<svg xmlns="http://www.w3.org/2000/svg" width="464" height="361" viewBox="0 0 464 361" fill="none"><path d="M9.17908 35.8952C9.17908 16.0708 25.2499 0 45.0743 0H283.329C382.946 0 463.702 80.7559 463.702 180.373V324.852C463.702 344.676 447.631 360.747 427.807 360.747H189.552C89.9349 360.747 9.17908 279.991 9.17908 180.374V35.8952Z" fill="url(#paint0_linear_40_256)"></path><path d="M79.6521 207.51C78.1302 207.51 76.7518 207.18 75.517 206.52C74.2966 205.845 73.3346 204.919 72.631 203.741C71.9418 202.564 71.5972 201.236 71.5972 199.757C71.5972 198.278 71.949 196.95 72.6526 195.773C73.3561 194.595 74.3181 193.676 75.5385 193.016C76.7733 192.341 78.1517 192.004 79.6737 192.004C80.9085 192.004 82.0356 192.219 83.055 192.65C84.0744 193.08 84.9359 193.705 85.6394 194.523L83.8303 196.225C82.7391 195.047 81.3966 194.459 79.8029 194.459C78.7691 194.459 77.843 194.689 77.0246 195.148C76.2062 195.593 75.5672 196.218 75.1078 197.022C74.6483 197.826 74.4186 198.738 74.4186 199.757C74.4186 200.776 74.6483 201.688 75.1078 202.492C75.5672 203.296 76.2062 203.928 77.0246 204.387C77.843 204.833 78.7691 205.055 79.8029 205.055C81.3966 205.055 82.7391 204.459 83.8303 203.267L85.6394 204.99C84.9359 205.809 84.0672 206.433 83.0334 206.864C82.014 207.295 80.8869 207.51 79.6521 207.51ZM92.812 207.446C91.649 207.446 90.6008 207.194 89.6676 206.692C88.7343 206.189 88.002 205.493 87.4708 204.603C86.9539 203.698 86.6954 202.679 86.6954 201.545C86.6954 200.41 86.9539 199.398 87.4708 198.508C88.002 197.618 88.7343 196.921 89.6676 196.419C90.6008 195.916 91.649 195.665 92.812 195.665C93.9893 195.665 95.0447 195.916 95.9779 196.419C96.9112 196.921 97.6363 197.618 98.1532 198.508C98.6844 199.398 98.9501 200.41 98.9501 201.545C98.9501 202.679 98.6844 203.698 98.1532 204.603C97.6363 205.493 96.9112 206.189 95.9779 206.692C95.0447 207.194 93.9893 207.446 92.812 207.446ZM92.812 205.141C93.8027 205.141 94.6211 204.811 95.2672 204.151C95.9133 203.49 96.2364 202.621 96.2364 201.545C96.2364 200.468 95.9133 199.599 95.2672 198.939C94.6211 198.278 93.8027 197.948 92.812 197.948C91.8213 197.948 91.0029 198.278 90.3567 198.939C89.725 199.599 89.4091 200.468 89.4091 201.545C89.4091 202.621 89.725 203.49 90.3567 204.151C91.0029 204.811 91.8213 205.141 92.812 205.141ZM101.524 191.314H104.217V207.295H101.524V191.314ZM112.919 207.446C111.756 207.446 110.708 207.194 109.774 206.692C108.841 206.189 108.109 205.493 107.578 204.603C107.061 203.698 106.802 202.679 106.802 201.545C106.802 200.41 107.061 199.398 107.578 198.508C108.109 197.618 108.841 196.921 109.774 196.419C110.708 195.916 111.756 195.665 112.919 195.665C114.096 195.665 115.152 195.916 116.085 196.419C117.018 196.921 117.743 197.618 118.26 198.508C118.791 199.398 119.057 200.41 119.057 201.545C119.057 202.679 118.791 203.698 118.26 204.603C117.743 205.493 117.018 206.189 116.085 206.692C115.152 207.194 114.096 207.446 112.919 207.446ZM112.919 205.141C113.91 205.141 114.728 204.811 115.374 204.151C116.02 203.49 116.343 202.621 116.343 201.545C116.343 200.468 116.02 199.599 115.374 198.939C114.728 198.278 113.91 197.948 112.919 197.948C111.928 197.948 111.11 198.278 110.464 198.939C109.832 199.599 109.516 200.468 109.516 201.545C109.516 202.621 109.832 203.49 110.464 204.151C111.11 204.811 111.928 205.141 112.919 205.141ZM132.874 195.794V211.473H130.182V205.895C129.277 206.929 128.049 207.446 126.499 207.446C125.379 207.446 124.374 207.202 123.484 206.713C122.608 206.225 121.919 205.536 121.416 204.646C120.928 203.756 120.684 202.722 120.684 201.545C120.684 200.382 120.935 199.355 121.438 198.465C121.94 197.574 122.629 196.885 123.505 196.397C124.381 195.909 125.379 195.665 126.499 195.665C127.288 195.665 128.006 195.801 128.652 196.074C129.313 196.347 129.866 196.756 130.311 197.302V195.794H132.874ZM126.8 205.141C127.791 205.141 128.609 204.811 129.256 204.151C129.902 203.49 130.225 202.621 130.225 201.545C130.225 200.468 129.902 199.599 129.256 198.939C128.609 198.278 127.791 197.948 126.8 197.948C125.81 197.948 124.991 198.278 124.345 198.939C123.713 199.599 123.397 200.468 123.397 201.545C123.397 202.621 123.713 203.49 124.345 204.151C124.991 204.811 125.81 205.141 126.8 205.141ZM147.531 195.794V207.295H144.968V205.83C144.537 206.347 143.999 206.749 143.353 207.036C142.706 207.309 142.01 207.446 141.263 207.446C139.727 207.446 138.514 207.022 137.624 206.175C136.748 205.314 136.31 204.043 136.31 202.363V195.794H139.002V201.997C139.002 203.031 139.232 203.806 139.691 204.323C140.165 204.825 140.833 205.077 141.694 205.077C142.656 205.077 143.417 204.782 143.977 204.194C144.551 203.591 144.839 202.729 144.839 201.609V195.794H147.531ZM161.867 201.609C161.867 201.796 161.853 202.061 161.824 202.406H152.8C152.958 203.253 153.367 203.928 154.028 204.43C154.703 204.919 155.535 205.163 156.526 205.163C157.79 205.163 158.831 204.746 159.649 203.914L161.092 205.572C160.575 206.189 159.922 206.656 159.132 206.972C158.342 207.288 157.452 207.446 156.461 207.446C155.198 207.446 154.085 207.194 153.123 206.692C152.161 206.189 151.415 205.493 150.883 204.603C150.366 203.698 150.108 202.679 150.108 201.545C150.108 200.425 150.359 199.42 150.862 198.529C151.379 197.625 152.089 196.921 152.994 196.419C153.899 195.916 154.918 195.665 156.052 195.665C157.172 195.665 158.17 195.916 159.046 196.419C159.936 196.907 160.625 197.603 161.113 198.508C161.616 199.398 161.867 200.432 161.867 201.609ZM156.052 197.819C155.191 197.819 154.458 198.077 153.855 198.594C153.267 199.096 152.908 199.771 152.779 200.618H159.304C159.189 199.786 158.838 199.111 158.249 198.594C157.66 198.077 156.928 197.819 156.052 197.819ZM174.799 192.219V207.295H171.999V194.566H168.812V192.219H174.799ZM184.078 207.51C182.872 207.51 181.795 207.209 180.848 206.606C179.9 205.988 179.154 205.098 178.608 203.935C178.062 202.758 177.79 201.365 177.79 199.757C177.79 198.149 178.062 196.763 178.608 195.6C179.154 194.423 179.9 193.533 180.848 192.93C181.795 192.312 182.872 192.004 184.078 192.004C185.285 192.004 186.361 192.312 187.309 192.93C188.271 193.533 189.025 194.423 189.57 195.6C190.116 196.763 190.389 198.149 190.389 199.757C190.389 201.365 190.116 202.758 189.57 203.935C189.025 205.098 188.271 205.988 187.309 206.606C186.361 207.209 185.285 207.51 184.078 207.51ZM184.078 205.077C185.155 205.077 186.002 204.631 186.62 203.741C187.252 202.851 187.567 201.523 187.567 199.757C187.567 197.991 187.252 196.663 186.62 195.773C186.002 194.882 185.155 194.437 184.078 194.437C183.016 194.437 182.169 194.882 181.537 195.773C180.92 196.663 180.611 197.991 180.611 199.757C180.611 201.523 180.92 202.851 181.537 203.741C182.169 204.631 183.016 205.077 184.078 205.077ZM210.466 195.794V205.55C210.466 209.599 208.399 211.624 204.263 211.624C203.158 211.624 202.11 211.48 201.119 211.193C200.128 210.92 199.31 210.518 198.664 209.987L199.87 207.963C200.372 208.379 201.004 208.709 201.765 208.953C202.54 209.212 203.323 209.341 204.113 209.341C205.376 209.341 206.302 209.054 206.891 208.479C207.48 207.905 207.774 207.029 207.774 205.852V205.249C207.315 205.751 206.755 206.132 206.094 206.39C205.434 206.649 204.709 206.778 203.919 206.778C202.828 206.778 201.837 206.548 200.947 206.089C200.071 205.615 199.375 204.955 198.858 204.107C198.355 203.26 198.104 202.291 198.104 201.2C198.104 200.109 198.355 199.147 198.858 198.314C199.375 197.467 200.071 196.814 200.947 196.354C201.837 195.895 202.828 195.665 203.919 195.665C204.752 195.665 205.505 195.801 206.18 196.074C206.869 196.347 207.444 196.763 207.903 197.323V195.794H210.466ZM204.328 204.495C205.347 204.495 206.18 204.194 206.826 203.591C207.487 202.973 207.817 202.176 207.817 201.2C207.817 200.238 207.487 199.455 206.826 198.852C206.18 198.249 205.347 197.948 204.328 197.948C203.294 197.948 202.447 198.249 201.787 198.852C201.141 199.455 200.817 200.238 200.817 201.2C200.817 202.176 201.141 202.973 201.787 203.591C202.447 204.194 203.294 204.495 204.328 204.495ZM219.174 207.446C218.011 207.446 216.963 207.194 216.03 206.692C215.097 206.189 214.364 205.493 213.833 204.603C213.316 203.698 213.058 202.679 213.058 201.545C213.058 200.41 213.316 199.398 213.833 198.508C214.364 197.618 215.097 196.921 216.03 196.419C216.963 195.916 218.011 195.665 219.174 195.665C220.352 195.665 221.407 195.916 222.34 196.419C223.274 196.921 223.999 197.618 224.516 198.508C225.047 199.398 225.312 200.41 225.312 201.545C225.312 202.679 225.047 203.698 224.516 204.603C223.999 205.493 223.274 206.189 222.34 206.692C221.407 207.194 220.352 207.446 219.174 207.446ZM219.174 205.141C220.165 205.141 220.983 204.811 221.63 204.151C222.276 203.49 222.599 202.621 222.599 201.545C222.599 200.468 222.276 199.599 221.63 198.939C220.983 198.278 220.165 197.948 219.174 197.948C218.184 197.948 217.365 198.278 216.719 198.939C216.087 199.599 215.772 200.468 215.772 201.545C215.772 202.621 216.087 203.49 216.719 204.151C217.365 204.811 218.184 205.141 219.174 205.141ZM234.8 206.67C234.484 206.929 234.097 207.123 233.637 207.252C233.192 207.381 232.718 207.446 232.216 207.446C230.952 207.446 229.976 207.115 229.287 206.455C228.598 205.795 228.253 204.833 228.253 203.569V198.034H226.358V195.88H228.253V193.253H230.945V195.88H234.025V198.034H230.945V203.504C230.945 204.064 231.081 204.495 231.354 204.797C231.627 205.084 232.022 205.227 232.539 205.227C233.142 205.227 233.644 205.069 234.046 204.754L234.8 206.67ZM241.408 195.665C243.103 195.665 244.395 196.074 245.285 196.892C246.19 197.697 246.642 198.917 246.642 200.554V207.295H244.101V205.895C243.77 206.398 243.297 206.785 242.679 207.058C242.076 207.316 241.344 207.446 240.482 207.446C239.621 207.446 238.867 207.302 238.221 207.015C237.575 206.713 237.072 206.304 236.713 205.787C236.369 205.256 236.196 204.66 236.196 204C236.196 202.966 236.577 202.14 237.338 201.523C238.113 200.891 239.327 200.575 240.978 200.575H243.95V200.403C243.95 199.599 243.706 198.982 243.218 198.551C242.744 198.12 242.033 197.905 241.085 197.905C240.439 197.905 239.8 198.005 239.169 198.206C238.551 198.407 238.027 198.687 237.596 199.046L236.541 197.086C237.144 196.627 237.869 196.275 238.716 196.031C239.563 195.787 240.461 195.665 241.408 195.665ZM241.042 205.486C241.717 205.486 242.313 205.335 242.83 205.034C243.361 204.718 243.734 204.273 243.95 203.698V202.363H241.172C239.621 202.363 238.846 202.873 238.846 203.892C238.846 204.38 239.039 204.768 239.427 205.055C239.815 205.342 240.353 205.486 241.042 205.486ZM253.651 207.446C252.717 207.446 251.806 207.324 250.915 207.08C250.025 206.835 249.314 206.527 248.783 206.153L249.817 204.107C250.334 204.452 250.951 204.732 251.669 204.947C252.401 205.148 253.119 205.249 253.823 205.249C255.431 205.249 256.235 204.825 256.235 203.978C256.235 203.576 256.027 203.296 255.61 203.138C255.208 202.98 254.555 202.83 253.651 202.686C252.703 202.542 251.928 202.377 251.325 202.191C250.736 202.004 250.219 201.681 249.774 201.221C249.343 200.748 249.128 200.094 249.128 199.262C249.128 198.17 249.58 197.302 250.485 196.656C251.404 195.995 252.638 195.665 254.189 195.665C254.979 195.665 255.768 195.758 256.558 195.945C257.348 196.117 257.994 196.354 258.496 196.656L257.463 198.702C256.486 198.127 255.388 197.84 254.167 197.84C253.378 197.84 252.775 197.962 252.358 198.206C251.956 198.436 251.755 198.745 251.755 199.132C251.755 199.563 251.971 199.872 252.401 200.058C252.847 200.231 253.529 200.396 254.447 200.554C255.366 200.697 256.12 200.862 256.709 201.049C257.298 201.236 257.8 201.552 258.216 201.997C258.647 202.442 258.863 203.074 258.863 203.892C258.863 204.969 258.396 205.83 257.463 206.477C256.529 207.123 255.259 207.446 253.651 207.446ZM278.397 191.314V207.295H275.813V205.809C275.368 206.354 274.815 206.764 274.154 207.036C273.508 207.309 272.79 207.446 272.001 207.446C270.895 207.446 269.897 207.202 269.007 206.713C268.131 206.225 267.442 205.536 266.939 204.646C266.437 203.741 266.186 202.708 266.186 201.545C266.186 200.382 266.437 199.355 266.939 198.465C267.442 197.574 268.131 196.885 269.007 196.397C269.897 195.909 270.895 195.665 272.001 195.665C272.762 195.665 273.458 195.794 274.09 196.053C274.721 196.311 275.26 196.699 275.705 197.216V191.314H278.397ZM272.324 205.141C272.97 205.141 273.551 204.998 274.068 204.71C274.585 204.409 274.994 203.985 275.296 203.44C275.597 202.894 275.748 202.262 275.748 201.545C275.748 200.827 275.597 200.195 275.296 199.649C274.994 199.104 274.585 198.687 274.068 198.4C273.551 198.099 272.97 197.948 272.324 197.948C271.678 197.948 271.096 198.099 270.579 198.4C270.062 198.687 269.653 199.104 269.352 199.649C269.05 200.195 268.899 200.827 268.899 201.545C268.899 202.262 269.05 202.894 269.352 203.44C269.653 203.985 270.062 204.409 270.579 204.71C271.096 204.998 271.678 205.141 272.324 205.141ZM287.088 207.446C285.925 207.446 284.877 207.194 283.943 206.692C283.01 206.189 282.278 205.493 281.747 204.603C281.23 203.698 280.971 202.679 280.971 201.545C280.971 200.41 281.23 199.398 281.747 198.508C282.278 197.618 283.01 196.921 283.943 196.419C284.877 195.916 285.925 195.665 287.088 195.665C288.265 195.665 289.321 195.916 290.254 196.419C291.187 196.921 291.912 197.618 292.429 198.508C292.96 199.398 293.226 200.41 293.226 201.545C293.226 202.679 292.96 203.698 292.429 204.603C291.912 205.493 291.187 206.189 290.254 206.692C289.321 207.194 288.265 207.446 287.088 207.446ZM287.088 205.141C288.079 205.141 288.897 204.811 289.543 204.151C290.189 203.49 290.512 202.621 290.512 201.545C290.512 200.468 290.189 199.599 289.543 198.939C288.897 198.278 288.079 197.948 287.088 197.948C286.097 197.948 285.279 198.278 284.633 198.939C284.001 199.599 283.685 200.468 283.685 201.545C283.685 202.621 284.001 203.49 284.633 204.151C285.279 204.811 286.097 205.141 287.088 205.141ZM302.011 192.219H304.811V204.926H312.693V207.295H302.011V192.219ZM314.645 195.794H317.337V207.295H314.645V195.794ZM316.002 193.899C315.514 193.899 315.105 193.748 314.775 193.447C314.444 193.131 314.279 192.743 314.279 192.284C314.279 191.824 314.444 191.444 314.775 191.142C315.105 190.826 315.514 190.668 316.002 190.668C316.49 190.668 316.9 190.819 317.23 191.121C317.56 191.408 317.725 191.774 317.725 192.219C317.725 192.693 317.56 193.095 317.23 193.425C316.914 193.741 316.505 193.899 316.002 193.899ZM325.544 193.339C324.41 193.339 323.843 193.956 323.843 195.191V195.88H327.009V198.034H323.929V207.295H321.237V198.034H319.342V195.88H321.237V195.148C321.237 193.913 321.596 192.944 322.314 192.24C323.032 191.523 324.044 191.164 325.351 191.164C326.384 191.164 327.196 191.372 327.784 191.788L327.03 193.813C326.571 193.497 326.076 193.339 325.544 193.339ZM335.735 206.67C335.419 206.929 335.031 207.123 334.572 207.252C334.126 207.381 333.653 207.446 333.15 207.446C331.887 207.446 330.91 207.115 330.221 206.455C329.532 205.795 329.187 204.833 329.187 203.569V198.034H327.292V195.88H329.187V193.253H331.879V195.88H334.959V198.034H331.879V203.504C331.879 204.064 332.016 204.495 332.289 204.797C332.561 205.084 332.956 205.227 333.473 205.227C334.076 205.227 334.579 205.069 334.981 204.754L335.735 206.67ZM354.454 199.585H357.104V205.593C356.328 206.211 355.424 206.685 354.39 207.015C353.356 207.345 352.294 207.51 351.202 207.51C349.666 207.51 348.281 207.18 347.046 206.52C345.811 205.845 344.842 204.919 344.138 203.741C343.435 202.564 343.083 201.236 343.083 199.757C343.083 198.278 343.435 196.95 344.138 195.773C344.842 194.595 345.811 193.676 347.046 193.016C348.295 192.341 349.695 192.004 351.245 192.004C352.509 192.004 353.658 192.212 354.691 192.628C355.725 193.045 356.594 193.655 357.297 194.459L355.531 196.182C354.383 195.033 352.997 194.459 351.375 194.459C350.312 194.459 349.365 194.681 348.532 195.126C347.713 195.572 347.067 196.196 346.593 197C346.134 197.804 345.904 198.723 345.904 199.757C345.904 200.762 346.134 201.667 346.593 202.471C347.067 203.275 347.713 203.906 348.532 204.366C349.365 204.825 350.305 205.055 351.353 205.055C352.531 205.055 353.564 204.797 354.454 204.28V199.585ZM365.707 207.446C364.544 207.446 363.496 207.194 362.562 206.692C361.629 206.189 360.897 205.493 360.366 204.603C359.849 203.698 359.59 202.679 359.59 201.545C359.59 200.41 359.849 199.398 360.366 198.508C360.897 197.618 361.629 196.921 362.562 196.419C363.496 195.916 364.544 195.665 365.707 195.665C366.884 195.665 367.939 195.916 368.873 196.419C369.806 196.921 370.531 197.618 371.048 198.508C371.579 199.398 371.845 200.41 371.845 201.545C371.845 202.679 371.579 203.698 371.048 204.603C370.531 205.493 369.806 206.189 368.873 206.692C367.939 207.194 366.884 207.446 365.707 207.446ZM365.707 205.141C366.697 205.141 367.516 204.811 368.162 204.151C368.808 203.49 369.131 202.621 369.131 201.545C369.131 200.468 368.808 199.599 368.162 198.939C367.516 198.278 366.697 197.948 365.707 197.948C364.716 197.948 363.898 198.278 363.252 198.939C362.62 199.599 362.304 200.468 362.304 201.545C362.304 202.621 362.62 203.49 363.252 204.151C363.898 204.811 364.716 205.141 365.707 205.141ZM381.333 206.67C381.017 206.929 380.629 207.123 380.17 207.252C379.725 207.381 379.251 207.446 378.748 207.446C377.485 207.446 376.508 207.115 375.819 206.455C375.13 205.795 374.785 204.833 374.785 203.569V198.034H372.89V195.88H374.785V193.253H377.478V195.88H380.557V198.034H377.478V203.504C377.478 204.064 377.614 204.495 377.887 204.797C378.16 205.084 378.554 205.227 379.071 205.227C379.674 205.227 380.177 205.069 380.579 204.754L381.333 206.67ZM387.941 195.665C389.635 195.665 390.927 196.074 391.818 196.892C392.722 197.697 393.174 198.917 393.174 200.554V207.295H390.633V205.895C390.303 206.398 389.829 206.785 389.212 207.058C388.608 207.316 387.876 207.446 387.015 207.446C386.153 207.446 385.399 207.302 384.753 207.015C384.107 206.713 383.605 206.304 383.246 205.787C382.901 205.256 382.729 204.66 382.729 204C382.729 202.966 383.109 202.14 383.87 201.523C384.646 200.891 385.859 200.575 387.51 200.575H390.482V200.403C390.482 199.599 390.238 198.982 389.75 198.551C389.276 198.12 388.565 197.905 387.618 197.905C386.972 197.905 386.333 198.005 385.701 198.206C385.084 198.407 384.56 198.687 384.129 199.046L383.073 197.086C383.676 196.627 384.402 196.275 385.249 196.031C386.096 195.787 386.993 195.665 387.941 195.665ZM387.575 205.486C388.25 205.486 388.845 205.335 389.362 205.034C389.894 204.718 390.267 204.273 390.482 203.698V202.363H387.704C386.153 202.363 385.378 202.873 385.378 203.892C385.378 204.38 385.572 204.768 385.959 205.055C386.347 205.342 386.886 205.486 387.575 205.486ZM83.6796 216.314V232.295H81.0951V230.809C80.65 231.354 80.0972 231.764 79.4367 232.036C78.7906 232.309 78.0727 232.446 77.283 232.446C76.1775 232.446 75.1796 232.202 74.2894 231.713C73.4135 231.225 72.7243 230.536 72.2218 229.646C71.7193 228.741 71.468 227.708 71.468 226.545C71.468 225.382 71.7193 224.355 72.2218 223.465C72.7243 222.574 73.4135 221.885 74.2894 221.397C75.1796 220.909 76.1775 220.665 77.283 220.665C78.044 220.665 78.7404 220.794 79.3721 221.053C80.0039 221.311 80.5423 221.699 80.9874 222.216V216.314H83.6796ZM77.6061 230.141C78.2522 230.141 78.8337 229.998 79.3506 229.71C79.8675 229.409 80.2767 228.985 80.5782 228.44C80.8797 227.894 81.0305 227.262 81.0305 226.545C81.0305 225.827 80.8797 225.195 80.5782 224.649C80.2767 224.104 79.8675 223.687 79.3506 223.4C78.8337 223.099 78.2522 222.948 77.6061 222.948C76.96 222.948 76.3785 223.099 75.8616 223.4C75.3447 223.687 74.9355 224.104 74.634 224.649C74.3324 225.195 74.1817 225.827 74.1817 226.545C74.1817 227.262 74.3324 227.894 74.634 228.44C74.9355 228.985 75.3447 229.409 75.8616 229.71C76.3785 229.998 76.96 230.141 77.6061 230.141ZM87.2014 220.794H89.8935V232.295H87.2014V220.794ZM88.5582 218.899C88.0701 218.899 87.6608 218.748 87.3306 218.447C87.0004 218.131 86.8353 217.743 86.8353 217.284C86.8353 216.824 87.0004 216.444 87.3306 216.142C87.6608 215.826 88.0701 215.668 88.5582 215.668C89.0464 215.668 89.4556 215.819 89.7858 216.121C90.1161 216.408 90.2812 216.774 90.2812 217.219C90.2812 217.693 90.1161 218.095 89.7858 218.425C89.47 218.741 89.0608 218.899 88.5582 218.899ZM95.9899 222.474C96.7652 221.268 98.1292 220.665 100.082 220.665V223.228C99.8522 223.185 99.644 223.163 99.4574 223.163C98.4092 223.163 97.5908 223.472 97.0021 224.089C96.4134 224.692 96.1191 225.568 96.1191 226.717V232.295H93.427V220.794H95.9899V222.474ZM113.072 226.609C113.072 226.796 113.058 227.061 113.029 227.406H104.005C104.163 228.253 104.572 228.928 105.233 229.43C105.908 229.919 106.74 230.163 107.731 230.163C108.994 230.163 110.035 229.746 110.854 228.914L112.297 230.572C111.78 231.189 111.127 231.656 110.337 231.972C109.547 232.288 108.657 232.446 107.666 232.446C106.403 232.446 105.29 232.194 104.328 231.692C103.366 231.189 102.62 230.493 102.088 229.603C101.571 228.698 101.313 227.679 101.313 226.545C101.313 225.425 101.564 224.42 102.067 223.529C102.584 222.625 103.294 221.921 104.199 221.419C105.103 220.916 106.123 220.665 107.257 220.665C108.377 220.665 109.375 220.916 110.251 221.419C111.141 221.907 111.83 222.603 112.318 223.508C112.821 224.398 113.072 225.432 113.072 226.609ZM107.257 222.819C106.396 222.819 105.663 223.077 105.06 223.594C104.472 224.096 104.113 224.771 103.984 225.618H110.509C110.394 224.786 110.043 224.111 109.454 223.594C108.865 223.077 108.133 222.819 107.257 222.819ZM122.572 231.67C122.256 231.929 121.868 232.123 121.409 232.252C120.963 232.381 120.49 232.446 119.987 232.446C118.724 232.446 117.747 232.115 117.058 231.455C116.369 230.795 116.024 229.833 116.024 228.569V223.034H114.129V220.88H116.024V218.253H118.716V220.88H121.796V223.034H118.716V228.504C118.716 229.064 118.853 229.495 119.126 229.797C119.398 230.084 119.793 230.227 120.31 230.227C120.913 230.227 121.416 230.069 121.818 229.754L122.572 231.67ZM129.18 220.665C130.874 220.665 132.166 221.074 133.056 221.892C133.961 222.697 134.413 223.917 134.413 225.554V232.295H131.872V230.895C131.542 231.398 131.068 231.785 130.45 232.058C129.847 232.316 129.115 232.446 128.254 232.446C127.392 232.446 126.638 232.302 125.992 232.015C125.346 231.713 124.844 231.304 124.485 230.787C124.14 230.256 123.968 229.66 123.968 229C123.968 227.966 124.348 227.14 125.109 226.523C125.885 225.891 127.098 225.575 128.749 225.575H131.721V225.403C131.721 224.599 131.477 223.982 130.989 223.551C130.515 223.12 129.804 222.905 128.857 222.905C128.211 222.905 127.572 223.005 126.94 223.206C126.323 223.407 125.798 223.687 125.368 224.046L124.312 222.086C124.915 221.627 125.641 221.275 126.488 221.031C127.335 220.787 128.232 220.665 129.18 220.665ZM128.814 230.486C129.488 230.486 130.084 230.335 130.601 230.034C131.132 229.718 131.506 229.273 131.721 228.698V227.363H128.943C127.392 227.363 126.617 227.873 126.617 228.892C126.617 229.38 126.811 229.768 127.198 230.055C127.586 230.342 128.124 230.486 128.814 230.486ZM152.384 220.665C153.835 220.665 154.983 221.088 155.83 221.936C156.677 222.768 157.101 224.025 157.101 225.705V232.295H154.409V226.049C154.409 225.044 154.186 224.29 153.741 223.788C153.296 223.271 152.657 223.012 151.824 223.012C150.92 223.012 150.195 223.314 149.649 223.917C149.104 224.506 148.831 225.353 148.831 226.458V232.295H146.139V226.049C146.139 225.044 145.916 224.29 145.471 223.788C145.026 223.271 144.387 223.012 143.554 223.012C142.635 223.012 141.903 223.307 141.357 223.895C140.826 224.484 140.56 225.338 140.56 226.458V232.295H137.868V220.794H140.431V222.259C140.862 221.742 141.4 221.347 142.047 221.074C142.693 220.801 143.411 220.665 144.2 220.665C145.062 220.665 145.823 220.83 146.483 221.16C147.158 221.476 147.689 221.95 148.077 222.582C148.551 221.979 149.161 221.512 149.908 221.182C150.654 220.837 151.48 220.665 152.384 220.665ZM171.458 226.609C171.458 226.796 171.444 227.061 171.415 227.406H162.391C162.549 228.253 162.958 228.928 163.619 229.43C164.293 229.919 165.126 230.163 166.117 230.163C167.38 230.163 168.421 229.746 169.24 228.914L170.683 230.572C170.166 231.189 169.512 231.656 168.723 231.972C167.933 232.288 167.043 232.446 166.052 232.446C164.789 232.446 163.676 232.194 162.714 231.692C161.752 231.189 161.005 230.493 160.474 229.603C159.957 228.698 159.699 227.679 159.699 226.545C159.699 225.425 159.95 224.42 160.453 223.529C160.969 222.625 161.68 221.921 162.585 221.419C163.489 220.916 164.509 220.665 165.643 220.665C166.763 220.665 167.761 220.916 168.637 221.419C169.527 221.907 170.216 222.603 170.704 223.508C171.207 224.398 171.458 225.432 171.458 226.609ZM165.643 222.819C164.782 222.819 164.049 223.077 163.446 223.594C162.858 224.096 162.499 224.771 162.369 225.618H168.895C168.78 224.786 168.428 224.111 167.84 223.594C167.251 223.077 166.519 222.819 165.643 222.819ZM180.57 220.665C182.02 220.665 183.183 221.088 184.059 221.936C184.935 222.783 185.373 224.039 185.373 225.705V232.295H182.68V226.049C182.68 225.044 182.443 224.29 181.97 223.788C181.496 223.271 180.821 223.012 179.945 223.012C178.954 223.012 178.172 223.314 177.598 223.917C177.023 224.506 176.736 225.36 176.736 226.48V232.295H174.044V220.794H176.607V222.28C177.052 221.749 177.612 221.347 178.287 221.074C178.962 220.801 179.723 220.665 180.57 220.665ZM195.701 231.67C195.385 231.929 194.998 232.123 194.538 232.252C194.093 232.381 193.619 232.446 193.117 232.446C191.853 232.446 190.877 232.115 190.188 231.455C189.498 230.795 189.154 229.833 189.154 228.569V223.034H187.259V220.88H189.154V218.253H191.846V220.88H194.926V223.034H191.846V228.504C191.846 229.064 191.982 229.495 192.255 229.797C192.528 230.084 192.923 230.227 193.44 230.227C194.043 230.227 194.545 230.069 194.947 229.754L195.701 231.67ZM208.349 226.609C208.349 226.796 208.334 227.061 208.306 227.406H199.282C199.44 228.253 199.849 228.928 200.509 229.43C201.184 229.919 202.017 230.163 203.008 230.163C204.271 230.163 205.312 229.746 206.13 228.914L207.573 230.572C207.057 231.189 206.403 231.656 205.614 231.972C204.824 232.288 203.934 232.446 202.943 232.446C201.679 232.446 200.567 232.194 199.605 231.692C198.643 231.189 197.896 230.493 197.365 229.603C196.848 228.698 196.589 227.679 196.589 226.545C196.589 225.425 196.841 224.42 197.343 223.529C197.86 222.625 198.571 221.921 199.475 221.419C200.38 220.916 201.399 220.665 202.534 220.665C203.654 220.665 204.652 220.916 205.527 221.419C206.418 221.907 207.107 222.603 207.595 223.508C208.097 224.398 208.349 225.432 208.349 226.609ZM202.534 222.819C201.672 222.819 200.94 223.077 200.337 223.594C199.748 224.096 199.389 224.771 199.26 225.618H205.786C205.671 224.786 205.319 224.111 204.731 223.594C204.142 223.077 203.41 222.819 202.534 222.819ZM223.413 220.665C224.863 220.665 226.026 221.088 226.902 221.936C227.778 222.783 228.215 224.039 228.215 225.705V232.295H225.523V226.049C225.523 225.044 225.286 224.29 224.813 223.788C224.339 223.271 223.664 223.012 222.788 223.012C221.797 223.012 221.015 223.314 220.441 223.917C219.866 224.506 219.579 225.36 219.579 226.48V232.295H216.887V220.794H219.45V222.28C219.895 221.749 220.455 221.347 221.13 221.074C221.805 220.801 222.566 220.665 223.413 220.665ZM236.024 220.665C237.718 220.665 239.011 221.074 239.901 221.892C240.805 222.697 241.258 223.917 241.258 225.554V232.295H238.716V230.895C238.386 231.398 237.912 231.785 237.295 232.058C236.692 232.316 235.96 232.446 235.098 232.446C234.237 232.446 233.483 232.302 232.837 232.015C232.191 231.713 231.688 231.304 231.329 230.787C230.984 230.256 230.812 229.66 230.812 229C230.812 227.966 231.193 227.14 231.954 226.523C232.729 225.891 233.942 225.575 235.593 225.575H238.566V225.403C238.566 224.599 238.321 223.982 237.833 223.551C237.359 223.12 236.649 222.905 235.701 222.905C235.055 222.905 234.416 223.005 233.784 223.206C233.167 223.407 232.643 223.687 232.212 224.046L231.157 222.086C231.76 221.627 232.485 221.275 233.332 221.031C234.179 220.787 235.077 220.665 236.024 220.665ZM235.658 230.486C236.333 230.486 236.929 230.335 237.446 230.034C237.977 229.718 238.35 229.273 238.566 228.698V227.363H235.787C234.237 227.363 233.461 227.873 233.461 228.892C233.461 229.38 233.655 229.768 234.043 230.055C234.43 230.342 234.969 230.486 235.658 230.486ZM254.218 232.446C253.285 232.446 252.373 232.324 251.483 232.08C250.593 231.835 249.882 231.527 249.351 231.153L250.385 229.107C250.902 229.452 251.519 229.732 252.237 229.947C252.969 230.148 253.687 230.249 254.391 230.249C255.999 230.249 256.803 229.825 256.803 228.978C256.803 228.576 256.595 228.296 256.178 228.138C255.776 227.98 255.123 227.83 254.218 227.686C253.271 227.542 252.496 227.377 251.892 227.191C251.304 227.004 250.787 226.681 250.342 226.221C249.911 225.748 249.696 225.094 249.696 224.262C249.696 223.17 250.148 222.302 251.053 221.656C251.971 220.995 253.206 220.665 254.757 220.665C255.547 220.665 256.336 220.758 257.126 220.945C257.916 221.117 258.562 221.354 259.064 221.656L258.031 223.702C257.054 223.127 255.956 222.84 254.735 222.84C253.946 222.84 253.343 222.962 252.926 223.206C252.524 223.436 252.323 223.745 252.323 224.132C252.323 224.563 252.539 224.872 252.969 225.058C253.414 225.231 254.096 225.396 255.015 225.554C255.934 225.697 256.688 225.862 257.277 226.049C257.865 226.236 258.368 226.552 258.784 226.997C259.215 227.442 259.43 228.074 259.43 228.892C259.43 229.969 258.964 230.83 258.031 231.477C257.097 232.123 255.827 232.446 254.218 232.446ZM272.884 220.794V232.295H270.321V230.83C269.89 231.347 269.352 231.749 268.705 232.036C268.059 232.309 267.363 232.446 266.616 232.446C265.08 232.446 263.867 232.022 262.977 231.175C262.101 230.314 261.663 229.043 261.663 227.363V220.794H264.355V226.997C264.355 228.031 264.585 228.806 265.044 229.323C265.518 229.825 266.186 230.077 267.047 230.077C268.009 230.077 268.77 229.782 269.33 229.194C269.904 228.591 270.191 227.729 270.191 226.609V220.794H272.884ZM280.802 220.665C282.496 220.665 283.789 221.074 284.679 221.892C285.583 222.697 286.036 223.917 286.036 225.554V232.295H283.494V230.895C283.164 231.398 282.69 231.785 282.073 232.058C281.47 232.316 280.737 232.446 279.876 232.446C279.014 232.446 278.261 232.302 277.615 232.015C276.968 231.713 276.466 231.304 276.107 230.787C275.762 230.256 275.59 229.66 275.59 229C275.59 227.966 275.971 227.14 276.732 226.523C277.507 225.891 278.72 225.575 280.371 225.575H283.343V225.403C283.343 224.599 283.099 223.982 282.611 223.551C282.137 223.12 281.427 222.905 280.479 222.905C279.833 222.905 279.194 223.005 278.562 223.206C277.945 223.407 277.421 223.687 276.99 224.046L275.935 222.086C276.538 221.627 277.263 221.275 278.11 221.031C278.957 220.787 279.854 220.665 280.802 220.665ZM280.436 230.486C281.111 230.486 281.707 230.335 282.223 230.034C282.755 229.718 283.128 229.273 283.343 228.698V227.363H280.565C279.014 227.363 278.239 227.873 278.239 228.892C278.239 229.38 278.433 229.768 278.821 230.055C279.208 230.342 279.747 230.486 280.436 230.486ZM301.818 220.665C302.938 220.665 303.936 220.909 304.811 221.397C305.702 221.885 306.398 222.574 306.9 223.465C307.403 224.355 307.654 225.382 307.654 226.545C307.654 227.708 307.403 228.741 306.9 229.646C306.398 230.536 305.702 231.225 304.811 231.713C303.936 232.202 302.938 232.446 301.818 232.446C301.028 232.446 300.303 232.309 299.642 232.036C298.996 231.764 298.451 231.354 298.006 230.809V232.295H295.443V216.314H298.135V222.194C298.594 221.691 299.133 221.311 299.75 221.053C300.382 220.794 301.071 220.665 301.818 220.665ZM301.516 230.141C302.507 230.141 303.318 229.811 303.95 229.151C304.596 228.49 304.919 227.621 304.919 226.545C304.919 225.468 304.596 224.599 303.95 223.939C303.318 223.278 302.507 222.948 301.516 222.948C300.87 222.948 300.289 223.099 299.772 223.4C299.255 223.687 298.846 224.104 298.544 224.649C298.243 225.195 298.092 225.827 298.092 226.545C298.092 227.262 298.243 227.894 298.544 228.44C298.846 228.985 299.255 229.409 299.772 229.71C300.289 229.998 300.87 230.141 301.516 230.141ZM315.376 232.446C314.213 232.446 313.165 232.194 312.232 231.692C311.299 231.189 310.566 230.493 310.035 229.603C309.518 228.698 309.26 227.679 309.26 226.545C309.26 225.41 309.518 224.398 310.035 223.508C310.566 222.618 311.299 221.921 312.232 221.419C313.165 220.916 314.213 220.665 315.376 220.665C316.554 220.665 317.609 220.916 318.542 221.419C319.476 221.921 320.201 222.618 320.718 223.508C321.249 224.398 321.514 225.41 321.514 226.545C321.514 227.679 321.249 228.698 320.718 229.603C320.201 230.493 319.476 231.189 318.542 231.692C317.609 232.194 316.554 232.446 315.376 232.446ZM315.376 230.141C316.367 230.141 317.185 229.811 317.832 229.151C318.478 228.49 318.801 227.621 318.801 226.545C318.801 225.468 318.478 224.599 317.832 223.939C317.185 223.278 316.367 222.948 315.376 222.948C314.386 222.948 313.567 223.278 312.921 223.939C312.289 224.599 311.973 225.468 311.973 226.545C311.973 227.621 312.289 228.49 312.921 229.151C313.567 229.811 314.386 230.141 315.376 230.141ZM329.365 232.446C328.174 232.446 327.104 232.194 326.156 231.692C325.209 231.189 324.469 230.493 323.938 229.603C323.407 228.698 323.141 227.679 323.141 226.545C323.141 225.41 323.407 224.398 323.938 223.508C324.469 222.618 325.202 221.921 326.135 221.419C327.082 220.916 328.159 220.665 329.365 220.665C330.5 220.665 331.49 220.895 332.338 221.354C333.199 221.814 333.845 222.474 334.276 223.335L332.208 224.542C331.878 224.01 331.462 223.615 330.959 223.357C330.471 223.084 329.933 222.948 329.344 222.948C328.339 222.948 327.506 223.278 326.846 223.939C326.185 224.585 325.855 225.453 325.855 226.545C325.855 227.636 326.178 228.512 326.824 229.172C327.485 229.818 328.324 230.141 329.344 230.141C329.933 230.141 330.471 230.012 330.959 229.754C331.462 229.481 331.878 229.079 332.208 228.547L334.276 229.754C333.831 230.615 333.177 231.283 332.316 231.756C331.469 232.216 330.485 232.446 329.365 232.446ZM340.997 220.665C342.691 220.665 343.983 221.074 344.873 221.892C345.778 222.697 346.23 223.917 346.23 225.554V232.295H343.689V230.895C343.359 231.398 342.885 231.785 342.267 232.058C341.664 232.316 340.932 232.446 340.071 232.446C339.209 232.446 338.455 232.302 337.809 232.015C337.163 231.713 336.66 231.304 336.302 230.787C335.957 230.256 335.785 229.66 335.785 229C335.785 227.966 336.165 227.14 336.926 226.523C337.701 225.891 338.915 225.575 340.566 225.575H343.538V225.403C343.538 224.599 343.294 223.982 342.806 223.551C342.332 223.12 341.621 222.905 340.674 222.905C340.027 222.905 339.389 223.005 338.757 223.206C338.139 223.407 337.615 223.687 337.185 224.046L336.129 222.086C336.732 221.627 337.457 221.275 338.304 221.031C339.152 220.787 340.049 220.665 340.997 220.665ZM340.63 230.486C341.305 230.486 341.901 230.335 342.418 230.034C342.949 229.718 343.323 229.273 343.538 228.698V227.363H340.76C339.209 227.363 338.434 227.873 338.434 228.892C338.434 229.38 338.628 229.768 339.015 230.055C339.403 230.342 339.941 230.486 340.63 230.486ZM350.568 228.871C351.071 228.871 351.487 229.036 351.817 229.366C352.148 229.696 352.313 230.127 352.313 230.658C352.313 230.888 352.277 231.132 352.205 231.39C352.148 231.634 352.018 232.008 351.817 232.51L350.719 235.547H348.974L349.836 232.252C349.52 232.123 349.269 231.922 349.082 231.649C348.91 231.362 348.824 231.031 348.824 230.658C348.824 230.127 348.989 229.696 349.319 229.366C349.649 229.036 350.066 228.871 350.568 228.871ZM364.449 232.446C363.516 232.446 362.604 232.324 361.714 232.08C360.824 231.835 360.113 231.527 359.582 231.153L360.615 229.107C361.132 229.452 361.75 229.732 362.468 229.947C363.2 230.148 363.918 230.249 364.621 230.249C366.229 230.249 367.034 229.825 367.034 228.978C367.034 228.576 366.825 228.296 366.409 228.138C366.007 227.98 365.354 227.83 364.449 227.686C363.501 227.542 362.726 227.377 362.123 227.191C361.534 227.004 361.017 226.681 360.572 226.221C360.142 225.748 359.926 225.094 359.926 224.262C359.926 223.17 360.379 222.302 361.283 221.656C362.202 220.995 363.437 220.665 364.987 220.665C365.777 220.665 366.567 220.758 367.357 220.945C368.146 221.117 368.792 221.354 369.295 221.656L368.261 223.702C367.285 223.127 366.186 222.84 364.966 222.84C364.176 222.84 363.573 222.962 363.157 223.206C362.755 223.436 362.554 223.745 362.554 224.132C362.554 224.563 362.769 224.872 363.2 225.058C363.645 225.231 364.327 225.396 365.246 225.554C366.165 225.697 366.919 225.862 367.507 226.049C368.096 226.236 368.599 226.552 369.015 226.997C369.446 227.442 369.661 228.074 369.661 228.892C369.661 229.969 369.194 230.83 368.261 231.477C367.328 232.123 366.057 232.446 364.449 232.446ZM377.148 232.446C375.985 232.446 374.937 232.194 374.004 231.692C373.071 231.189 372.338 230.493 371.807 229.603C371.29 228.698 371.032 227.679 371.032 226.545C371.032 225.41 371.29 224.398 371.807 223.508C372.338 222.618 373.071 221.921 374.004 221.419C374.937 220.916 375.985 220.665 377.148 220.665C378.326 220.665 379.381 220.916 380.314 221.419C381.248 221.921 381.973 222.618 382.49 223.508C383.021 224.398 383.286 225.41 383.286 226.545C383.286 227.679 383.021 228.698 382.49 229.603C381.973 230.493 381.248 231.189 380.314 231.692C379.381 232.194 378.326 232.446 377.148 232.446ZM377.148 230.141C378.139 230.141 378.958 229.811 379.604 229.151C380.25 228.49 380.573 227.621 380.573 226.545C380.573 225.468 380.25 224.599 379.604 223.939C378.958 223.278 378.139 222.948 377.148 222.948C376.158 222.948 375.339 223.278 374.693 223.939C374.061 224.599 373.746 225.468 373.746 226.545C373.746 227.621 374.061 228.49 374.693 229.151C375.339 229.811 376.158 230.141 377.148 230.141ZM392.236 220.665C393.356 220.665 394.354 220.909 395.229 221.397C396.12 221.885 396.816 222.574 397.319 223.465C397.821 224.355 398.072 225.382 398.072 226.545C398.072 227.708 397.821 228.741 397.319 229.646C396.816 230.536 396.12 231.225 395.229 231.713C394.354 232.202 393.356 232.446 392.236 232.446C391.446 232.446 390.721 232.309 390.061 232.036C389.414 231.764 388.869 231.354 388.424 230.809V232.295H385.861V216.314H388.553V222.194C389.012 221.691 389.551 221.311 390.168 221.053C390.8 220.794 391.489 220.665 392.236 220.665ZM391.934 230.141C392.925 230.141 393.736 229.811 394.368 229.151C395.014 228.49 395.337 227.621 395.337 226.545C395.337 225.468 395.014 224.599 394.368 223.939C393.736 223.278 392.925 222.948 391.934 222.948C391.288 222.948 390.707 223.099 390.19 223.4C389.673 223.687 389.264 224.104 388.962 224.649C388.661 225.195 388.51 225.827 388.51 226.545C388.51 227.262 388.661 227.894 388.962 228.44C389.264 228.985 389.673 229.409 390.19 229.71C390.707 229.998 391.288 230.141 391.934 230.141ZM410.971 220.665C412.666 220.665 413.958 221.074 414.848 221.892C415.753 222.697 416.205 223.917 416.205 225.554V232.295H413.663V230.895C413.333 231.398 412.859 231.785 412.242 232.058C411.639 232.316 410.907 232.446 410.045 232.446C409.184 232.446 408.43 232.302 407.784 232.015C407.138 231.713 406.635 231.304 406.276 230.787C405.932 230.256 405.759 229.66 405.759 229C405.759 227.966 406.14 227.14 406.901 226.523C407.676 225.891 408.889 225.575 410.541 225.575H413.513V225.403C413.513 224.599 413.269 223.982 412.78 223.551C412.307 223.12 411.596 222.905 410.648 222.905C410.002 222.905 409.363 223.005 408.731 223.206C408.114 223.407 407.59 223.687 407.159 224.046L406.104 222.086C406.707 221.627 407.432 221.275 408.279 221.031C409.126 220.787 410.024 220.665 410.971 220.665ZM410.605 230.486C411.28 230.486 411.876 230.335 412.393 230.034C412.924 229.718 413.297 229.273 413.513 228.698V227.363H410.734C409.184 227.363 408.408 227.873 408.408 228.892C408.408 229.38 408.602 229.768 408.99 230.055C409.378 230.342 409.916 230.486 410.605 230.486ZM72.4156 241.314H75.1078V257.295H72.4156V241.314ZM78.6412 245.794H81.3334V257.295H78.6412V245.794ZM81.0965 241.271H84.2624L80.515 244.222H78.1889L81.0965 241.271ZM91.3925 245.665C92.8427 245.665 94.0057 246.088 94.8816 246.936C95.7574 247.783 96.1953 249.039 96.1953 250.705V257.295H93.5032V251.049C93.5032 250.044 93.2663 249.29 92.7925 248.788C92.3186 248.271 91.6438 248.012 90.768 248.012C89.7773 248.012 88.9947 248.314 88.4204 248.917C87.8461 249.506 87.5589 250.36 87.5589 251.48V257.295H84.8668V245.794H87.4297V247.28C87.8748 246.749 88.4348 246.347 89.1096 246.074C89.7844 245.801 90.5454 245.665 91.3925 245.665ZM111.13 245.794V255.55C111.13 259.599 109.063 261.624 104.928 261.624C103.822 261.624 102.774 261.48 101.783 261.193C100.792 260.92 99.9741 260.518 99.328 259.987L100.534 257.963C101.037 258.379 101.668 258.709 102.429 258.953C103.205 259.212 103.987 259.341 104.777 259.341C106.04 259.341 106.966 259.054 107.555 258.479C108.144 257.905 108.438 257.029 108.438 255.852V255.249C107.979 255.751 107.419 256.132 106.758 256.39C106.098 256.649 105.373 256.778 104.583 256.778C103.492 256.778 102.501 256.548 101.611 256.089C100.735 255.615 100.039 254.955 99.5218 254.107C99.0193 253.26 98.768 252.291 98.768 251.2C98.768 250.109 99.0193 249.147 99.5218 248.314C100.039 247.467 100.735 246.814 101.611 246.354C102.501 245.895 103.492 245.665 104.583 245.665C105.416 245.665 106.17 245.801 106.844 246.074C107.534 246.347 108.108 246.763 108.567 247.323V245.794H111.13ZM104.992 254.495C106.012 254.495 106.844 254.194 107.491 253.591C108.151 252.973 108.481 252.176 108.481 251.2C108.481 250.238 108.151 249.455 107.491 248.852C106.844 248.249 106.012 247.948 104.992 247.948C103.958 247.948 103.111 248.249 102.451 248.852C101.805 249.455 101.482 250.238 101.482 251.2C101.482 252.176 101.805 252.973 102.451 253.591C103.111 254.194 103.958 254.495 104.992 254.495ZM125.804 245.794V257.295H123.241V255.83C122.811 256.347 122.272 256.749 121.626 257.036C120.98 257.309 120.284 257.446 119.537 257.446C118.001 257.446 116.787 257.022 115.897 256.175C115.021 255.314 114.583 254.043 114.583 252.363V245.794H117.276V251.997C117.276 253.031 117.505 253.806 117.965 254.323C118.439 254.825 119.106 255.077 119.968 255.077C120.93 255.077 121.691 254.782 122.251 254.194C122.825 253.591 123.112 252.729 123.112 251.609V245.794H125.804ZM133.723 245.665C135.417 245.665 136.709 246.074 137.599 246.892C138.504 247.697 138.956 248.917 138.956 250.554V257.295H136.415V255.895C136.085 256.398 135.611 256.785 134.993 257.058C134.39 257.316 133.658 257.446 132.797 257.446C131.935 257.446 131.181 257.302 130.535 257.015C129.889 256.713 129.387 256.304 129.028 255.787C128.683 255.256 128.511 254.66 128.511 254C128.511 252.966 128.891 252.14 129.652 251.523C130.428 250.891 131.641 250.575 133.292 250.575H136.264V250.403C136.264 249.599 136.02 248.982 135.532 248.551C135.058 248.12 134.347 247.905 133.4 247.905C132.754 247.905 132.115 248.005 131.483 248.206C130.866 248.407 130.341 248.687 129.911 249.046L128.855 247.086C129.458 246.627 130.184 246.275 131.031 246.031C131.878 245.787 132.775 245.665 133.723 245.665ZM133.357 255.486C134.031 255.486 134.627 255.335 135.144 255.034C135.675 254.718 136.049 254.273 136.264 253.698V252.363H133.486C131.935 252.363 131.16 252.873 131.16 253.892C131.16 254.38 131.354 254.768 131.741 255.055C132.129 255.342 132.667 255.486 133.357 255.486ZM143.294 253.871C143.797 253.871 144.213 254.036 144.544 254.366C144.874 254.696 145.039 255.127 145.039 255.658C145.039 255.888 145.003 256.132 144.931 256.39C144.874 256.634 144.745 257.008 144.544 257.51L143.445 260.547H141.701L142.562 257.252C142.246 257.123 141.995 256.922 141.808 256.649C141.636 256.362 141.55 256.031 141.55 255.658C141.55 255.127 141.715 254.696 142.045 254.366C142.375 254.036 142.792 253.871 143.294 253.871ZM159.997 245.665C161.116 245.665 162.114 245.909 162.99 246.397C163.88 246.885 164.577 247.574 165.079 248.465C165.582 249.355 165.833 250.382 165.833 251.545C165.833 252.708 165.582 253.741 165.079 254.646C164.577 255.536 163.88 256.225 162.99 256.713C162.114 257.202 161.116 257.446 159.997 257.446C158.446 257.446 157.218 256.929 156.314 255.895V261.473H153.622V245.794H156.184V247.302C156.63 246.756 157.175 246.347 157.821 246.074C158.482 245.801 159.207 245.665 159.997 245.665ZM159.695 255.141C160.686 255.141 161.497 254.811 162.129 254.151C162.775 253.49 163.098 252.621 163.098 251.545C163.098 250.468 162.775 249.599 162.129 248.939C161.497 248.278 160.686 247.948 159.695 247.948C159.049 247.948 158.467 248.099 157.951 248.4C157.434 248.687 157.024 249.104 156.723 249.649C156.421 250.195 156.271 250.827 156.271 251.545C156.271 252.262 156.421 252.894 156.723 253.44C157.024 253.985 157.434 254.409 157.951 254.71C158.467 254.998 159.049 255.141 159.695 255.141ZM179.198 251.609C179.198 251.796 179.184 252.061 179.155 252.406H170.131C170.289 253.253 170.698 253.928 171.358 254.43C172.033 254.919 172.866 255.163 173.857 255.163C175.12 255.163 176.161 254.746 176.98 253.914L178.423 255.572C177.906 256.189 177.252 256.656 176.463 256.972C175.673 257.288 174.783 257.446 173.792 257.446C172.529 257.446 171.416 257.194 170.454 256.692C169.492 256.189 168.745 255.493 168.214 254.603C167.697 253.698 167.439 252.679 167.439 251.545C167.439 250.425 167.69 249.42 168.192 248.529C168.709 247.625 169.42 246.921 170.325 246.419C171.229 245.916 172.249 245.665 173.383 245.665C174.503 245.665 175.501 245.916 176.377 246.419C177.267 246.907 177.956 247.603 178.444 248.508C178.947 249.398 179.198 250.432 179.198 251.609ZM173.383 247.819C172.521 247.819 171.789 248.077 171.186 248.594C170.597 249.096 170.238 249.771 170.109 250.618H176.635C176.52 249.786 176.168 249.111 175.58 248.594C174.991 248.077 174.259 247.819 173.383 247.819ZM181.784 241.314H184.476V257.295H181.784V241.314ZM192.403 245.665C194.097 245.665 195.39 246.074 196.28 246.892C197.184 247.697 197.637 248.917 197.637 250.554V257.295H195.095V255.895C194.765 256.398 194.291 256.785 193.674 257.058C193.071 257.316 192.338 257.446 191.477 257.446C190.615 257.446 189.862 257.302 189.216 257.015C188.569 256.713 188.067 256.304 187.708 255.787C187.363 255.256 187.191 254.66 187.191 254C187.191 252.966 187.572 252.14 188.333 251.523C189.108 250.891 190.321 250.575 191.972 250.575H194.944V250.403C194.944 249.599 194.7 248.982 194.212 248.551C193.738 248.12 193.028 247.905 192.08 247.905C191.434 247.905 190.795 248.005 190.163 248.206C189.546 248.407 189.022 248.687 188.591 249.046L187.536 247.086C188.139 246.627 188.864 246.275 189.711 246.031C190.558 245.787 191.455 245.665 192.403 245.665ZM192.037 255.486C192.712 255.486 193.308 255.335 193.824 255.034C194.356 254.718 194.729 254.273 194.944 253.698V252.363H192.166C190.615 252.363 189.84 252.873 189.84 253.892C189.84 254.38 190.034 254.768 190.422 255.055C190.809 255.342 191.348 255.486 192.037 255.486ZM221.56 245.665C223.01 245.665 224.159 246.088 225.006 246.936C225.853 247.768 226.276 249.025 226.276 250.705V257.295H223.584V251.049C223.584 250.044 223.362 249.29 222.917 248.788C222.472 248.271 221.833 248.012 221 248.012C220.095 248.012 219.37 248.314 218.825 248.917C218.279 249.506 218.006 250.353 218.006 251.458V257.295H215.314V251.049C215.314 250.044 215.091 249.29 214.646 248.788C214.201 248.271 213.562 248.012 212.73 248.012C211.811 248.012 211.078 248.307 210.533 248.895C210.002 249.484 209.736 250.338 209.736 251.458V257.295H207.044V245.794H209.607V247.259C210.037 246.742 210.576 246.347 211.222 246.074C211.868 245.801 212.586 245.665 213.376 245.665C214.237 245.665 214.998 245.83 215.659 246.16C216.333 246.476 216.865 246.95 217.252 247.582C217.726 246.979 218.336 246.512 219.083 246.182C219.83 245.837 220.655 245.665 221.56 245.665ZM234.11 245.665C235.804 245.665 237.097 246.074 237.987 246.892C238.891 247.697 239.344 248.917 239.344 250.554V257.295H236.802V255.895C236.472 256.398 235.998 256.785 235.381 257.058C234.778 257.316 234.046 257.446 233.184 257.446C232.323 257.446 231.569 257.302 230.923 257.015C230.277 256.713 229.774 256.304 229.415 255.787C229.071 255.256 228.898 254.66 228.898 254C228.898 252.966 229.279 252.14 230.04 251.523C230.815 250.891 232.028 250.575 233.679 250.575H236.652V250.403C236.652 249.599 236.408 248.982 235.919 248.551C235.446 248.12 234.735 247.905 233.787 247.905C233.141 247.905 232.502 248.005 231.87 248.206C231.253 248.407 230.729 248.687 230.298 249.046L229.243 247.086C229.846 246.627 230.571 246.275 231.418 246.031C232.265 245.787 233.163 245.665 234.11 245.665ZM233.744 255.486C234.419 255.486 235.015 255.335 235.532 255.034C236.063 254.718 236.436 254.273 236.652 253.698V252.363H233.873C232.323 252.363 231.547 252.873 231.547 253.892C231.547 254.38 231.741 254.768 232.129 255.055C232.516 255.342 233.055 255.486 233.744 255.486ZM249.325 245.665C250.775 245.665 251.938 246.088 252.814 246.936C253.689 247.783 254.127 249.039 254.127 250.705V257.295H251.435V251.049C251.435 250.044 251.198 249.29 250.724 248.788C250.251 248.271 249.576 248.012 248.7 248.012C247.709 248.012 246.927 248.314 246.352 248.917C245.778 249.506 245.491 250.36 245.491 251.48V257.295H242.799V245.794H245.362V247.28C245.807 246.749 246.367 246.347 247.042 246.074C247.716 245.801 248.477 245.665 249.325 245.665ZM264.068 245.665C265.518 245.665 266.681 246.088 267.557 246.936C268.433 247.783 268.871 249.039 268.871 250.705V257.295H266.179V251.049C266.179 250.044 265.942 249.29 265.468 248.788C264.994 248.271 264.319 248.012 263.444 248.012C262.453 248.012 261.67 248.314 261.096 248.917C260.522 249.506 260.235 250.36 260.235 251.48V257.295H257.542V241.314H260.235V247.129C260.68 246.656 261.225 246.297 261.871 246.053C262.532 245.794 263.264 245.665 264.068 245.665ZM276.68 245.665C278.374 245.665 279.666 246.074 280.556 246.892C281.461 247.697 281.913 248.917 281.913 250.554V257.295H279.372V255.895C279.042 256.398 278.568 256.785 277.95 257.058C277.347 257.316 276.615 257.446 275.754 257.446C274.892 257.446 274.138 257.302 273.492 257.015C272.846 256.713 272.344 256.304 271.985 255.787C271.64 255.256 271.468 254.66 271.468 254C271.468 252.966 271.848 252.14 272.609 251.523C273.385 250.891 274.598 250.575 276.249 250.575H279.221V250.403C279.221 249.599 278.977 248.982 278.489 248.551C278.015 248.12 277.304 247.905 276.357 247.905C275.711 247.905 275.072 248.005 274.44 248.206C273.822 248.407 273.298 248.687 272.868 249.046L271.812 247.086C272.415 246.627 273.14 246.275 273.988 246.031C274.835 245.787 275.732 245.665 276.68 245.665ZM276.314 255.486C276.988 255.486 277.584 255.335 278.101 255.034C278.632 254.718 279.006 254.273 279.221 253.698V252.363H276.443C274.892 252.363 274.117 252.873 274.117 253.892C274.117 254.38 274.311 254.768 274.698 255.055C275.086 255.342 275.624 255.486 276.314 255.486ZM278.467 244.222C278.108 244.222 277.792 244.15 277.52 244.007C277.261 243.863 276.938 243.648 276.55 243.36C276.321 243.174 276.127 243.037 275.969 242.951C275.825 242.851 275.682 242.8 275.538 242.8C275.237 242.8 274.985 242.915 274.784 243.145C274.598 243.375 274.497 243.691 274.483 244.093H273.04C273.054 243.217 273.27 242.52 273.686 242.004C274.117 241.472 274.677 241.207 275.366 241.207C275.725 241.207 276.034 241.278 276.292 241.422C276.565 241.566 276.895 241.781 277.283 242.068C277.512 242.255 277.699 242.398 277.843 242.499C278.001 242.585 278.151 242.628 278.295 242.628C278.597 242.628 278.841 242.52 279.027 242.305C279.228 242.09 279.336 241.788 279.35 241.401H280.793C280.765 242.248 280.542 242.93 280.126 243.447C279.709 243.963 279.156 244.222 278.467 244.222ZM302.132 251.609C302.132 251.796 302.118 252.061 302.089 252.406H293.065C293.223 253.253 293.632 253.928 294.293 254.43C294.967 254.919 295.8 255.163 296.791 255.163C298.054 255.163 299.095 254.746 299.914 253.914L301.357 255.572C300.84 256.189 300.187 256.656 299.397 256.972C298.607 257.288 297.717 257.446 296.726 257.446C295.463 257.446 294.35 257.194 293.388 256.692C292.426 256.189 291.679 255.493 291.148 254.603C290.631 253.698 290.373 252.679 290.373 251.545C290.373 250.425 290.624 249.42 291.127 248.529C291.643 247.625 292.354 246.921 293.259 246.419C294.163 245.916 295.183 245.665 296.317 245.665C297.437 245.665 298.435 245.916 299.311 246.419C300.201 246.907 300.89 247.603 301.378 248.508C301.881 249.398 302.132 250.432 302.132 251.609ZM296.317 247.819C295.456 247.819 294.723 248.077 294.12 248.594C293.532 249.096 293.173 249.771 293.043 250.618H299.569C299.454 249.786 299.102 249.111 298.514 248.594C297.925 248.077 297.193 247.819 296.317 247.819ZM319.234 245.665C320.684 245.665 321.833 246.088 322.68 246.936C323.527 247.768 323.951 249.025 323.951 250.705V257.295H321.259V251.049C321.259 250.044 321.036 249.29 320.591 248.788C320.146 248.271 319.507 248.012 318.674 248.012C317.77 248.012 317.044 248.314 316.499 248.917C315.953 249.506 315.68 250.353 315.68 251.458V257.295H312.988V251.049C312.988 250.044 312.766 249.29 312.321 248.788C311.876 248.271 311.237 248.012 310.404 248.012C309.485 248.012 308.753 248.307 308.207 248.895C307.676 249.484 307.41 250.338 307.41 251.458V257.295H304.718V245.794H307.281V247.259C307.712 246.742 308.25 246.347 308.896 246.074C309.542 245.801 310.26 245.665 311.05 245.665C311.911 245.665 312.672 245.83 313.333 246.16C314.008 246.476 314.539 246.95 314.927 247.582C315.4 246.979 316.011 246.512 316.757 246.182C317.504 245.837 318.329 245.665 319.234 245.665ZM332.158 261.624C331.024 261.624 330.163 261.401 329.574 260.956L330.349 258.953C330.751 259.255 331.275 259.406 331.922 259.406C332.424 259.406 332.805 259.248 333.063 258.932C333.336 258.63 333.472 258.178 333.472 257.575V245.794H336.164V257.51C336.164 258.788 335.813 259.793 335.109 260.525C334.406 261.258 333.422 261.624 332.158 261.624ZM334.808 243.899C334.319 243.899 333.91 243.748 333.58 243.447C333.25 243.131 333.085 242.743 333.085 242.284C333.085 241.824 333.25 241.444 333.58 241.142C333.91 240.826 334.319 240.668 334.808 240.668C335.296 240.668 335.705 240.819 336.035 241.121C336.365 241.408 336.531 241.774 336.531 242.219C336.531 242.693 336.365 243.095 336.035 243.425C335.719 243.741 335.31 243.899 334.808 243.899ZM350.506 251.609C350.506 251.796 350.492 252.061 350.463 252.406H341.439C341.597 253.253 342.006 253.928 342.667 254.43C343.342 254.919 344.175 255.163 345.165 255.163C346.429 255.163 347.47 254.746 348.288 253.914L349.731 255.572C349.214 256.189 348.561 256.656 347.771 256.972C346.982 257.288 346.091 257.446 345.101 257.446C343.837 257.446 342.724 257.194 341.762 256.692C340.8 256.189 340.054 255.493 339.523 254.603C339.006 253.698 338.747 252.679 338.747 251.545C338.747 250.425 338.998 249.42 339.501 248.529C340.018 247.625 340.729 246.921 341.633 246.419C342.538 245.916 343.557 245.665 344.691 245.665C345.811 245.665 346.809 245.916 347.685 246.419C348.575 246.907 349.264 247.603 349.753 248.508C350.255 249.398 350.506 250.432 350.506 251.609ZM344.691 247.819C343.83 247.819 343.098 248.077 342.495 248.594C341.906 249.096 341.547 249.771 341.418 250.618H347.944C347.829 249.786 347.477 249.111 346.888 248.594C346.3 248.077 345.567 247.819 344.691 247.819ZM351.908 261.624C350.774 261.624 349.912 261.401 349.323 260.956L350.099 258.953C350.501 259.255 351.025 259.406 351.671 259.406C352.174 259.406 352.554 259.248 352.812 258.932C353.085 258.63 353.222 258.178 353.222 257.575V245.794H355.914V257.51C355.914 258.788 355.562 259.793 354.858 260.525C354.155 261.258 353.171 261.624 351.908 261.624ZM354.557 243.899C354.069 243.899 353.66 243.748 353.329 243.447C352.999 243.131 352.834 242.743 352.834 242.284C352.834 241.824 352.999 241.444 353.329 241.142C353.66 240.826 354.069 240.668 354.557 240.668C355.045 240.668 355.454 240.819 355.785 241.121C356.115 241.408 356.28 241.774 356.28 242.219C356.28 242.693 356.115 243.095 355.785 243.425C355.469 243.741 355.059 243.899 354.557 243.899ZM370.579 245.794V257.295H368.016V255.83C367.585 256.347 367.047 256.749 366.401 257.036C365.755 257.309 365.058 257.446 364.312 257.446C362.775 257.446 361.562 257.022 360.672 256.175C359.796 255.314 359.358 254.043 359.358 252.363V245.794H362.05V251.997C362.05 253.031 362.28 253.806 362.739 254.323C363.213 254.825 363.881 255.077 364.742 255.077C365.704 255.077 366.465 254.782 367.025 254.194C367.6 253.591 367.887 252.729 367.887 251.609V245.794H370.579ZM388.62 245.665C390.07 245.665 391.219 246.088 392.066 246.936C392.913 247.768 393.336 249.025 393.336 250.705V257.295H390.644V251.049C390.644 250.044 390.422 249.29 389.977 248.788C389.532 248.271 388.893 248.012 388.06 248.012C387.155 248.012 386.43 248.314 385.885 248.917C385.339 249.506 385.066 250.353 385.066 251.458V257.295H382.374V251.049C382.374 250.044 382.151 249.29 381.706 248.788C381.261 248.271 380.622 248.012 379.79 248.012C378.871 248.012 378.138 248.307 377.593 248.895C377.062 249.484 376.796 250.338 376.796 251.458V257.295H374.104V245.794H376.667V247.259C377.097 246.742 377.636 246.347 378.282 246.074C378.928 245.801 379.646 245.665 380.436 245.665C381.297 245.665 382.058 245.83 382.719 246.16C383.393 246.476 383.925 246.95 384.312 247.582C384.786 246.979 385.396 246.512 386.143 246.182C386.89 245.837 387.715 245.665 388.62 245.665ZM413.54 251.609C413.54 251.796 413.526 252.061 413.497 252.406H404.473C404.631 253.253 405.04 253.928 405.701 254.43C406.376 254.919 407.209 255.163 408.199 255.163C409.463 255.163 410.504 254.746 411.322 253.914L412.765 255.572C412.248 256.189 411.595 256.656 410.805 256.972C410.016 257.288 409.125 257.446 408.135 257.446C406.871 257.446 405.758 257.194 404.796 256.692C403.834 256.189 403.088 255.493 402.556 254.603C402.04 253.698 401.781 252.679 401.781 251.545C401.781 250.425 402.032 249.42 402.535 248.529C403.052 247.625 403.763 246.921 404.667 246.419C405.572 245.916 406.591 245.665 407.725 245.665C408.845 245.665 409.843 245.916 410.719 246.419C411.609 246.907 412.298 247.603 412.787 248.508C413.289 249.398 413.54 250.432 413.54 251.609ZM407.725 247.819C406.864 247.819 406.132 248.077 405.529 248.594C404.94 249.096 404.581 249.771 404.452 250.618H410.978C410.863 249.786 410.511 249.111 409.922 248.594C409.334 248.077 408.601 247.819 407.725 247.819ZM76.8092 267.219V282.295H74.0094V269.566H70.8219V267.219H76.8092ZM86.0887 282.51C84.8826 282.51 83.8058 282.209 82.8581 281.606C81.9105 280.988 81.1639 280.098 80.6183 278.935C80.0727 277.758 79.7998 276.365 79.7998 274.757C79.7998 273.149 80.0727 271.763 80.6183 270.6C81.1639 269.423 81.9105 268.533 82.8581 267.93C83.8058 267.312 84.8826 267.004 86.0887 267.004C87.2948 267.004 88.3716 267.312 89.3193 267.93C90.2813 268.533 91.0351 269.423 91.5807 270.6C92.1263 271.763 92.3991 273.149 92.3991 274.757C92.3991 276.365 92.1263 277.758 91.5807 278.935C91.0351 280.098 90.2813 280.988 89.3193 281.606C88.3716 282.209 87.2948 282.51 86.0887 282.51ZM86.0887 280.077C87.1655 280.077 88.0127 279.631 88.6301 278.741C89.2618 277.851 89.5777 276.523 89.5777 274.757C89.5777 272.991 89.2618 271.663 88.6301 270.773C88.0127 269.882 87.1655 269.437 86.0887 269.437C85.0262 269.437 84.1791 269.882 83.5473 270.773C82.9299 271.663 82.6212 272.991 82.6212 274.757C82.6212 276.523 82.9299 277.851 83.5473 278.741C84.1791 279.631 85.0262 280.077 86.0887 280.077ZM112.476 270.794V280.55C112.476 284.599 110.409 286.624 106.274 286.624C105.168 286.624 104.12 286.48 103.129 286.193C102.139 285.92 101.32 285.518 100.674 284.987L101.88 282.963C102.383 283.379 103.014 283.709 103.775 283.953C104.551 284.212 105.333 284.341 106.123 284.341C107.386 284.341 108.313 284.054 108.901 283.479C109.49 282.905 109.784 282.029 109.784 280.852V280.249C109.325 280.751 108.765 281.132 108.104 281.39C107.444 281.649 106.719 281.778 105.929 281.778C104.838 281.778 103.847 281.548 102.957 281.089C102.081 280.615 101.385 279.955 100.868 279.107C100.365 278.26 100.114 277.291 100.114 276.2C100.114 275.109 100.365 274.147 100.868 273.314C101.385 272.467 102.081 271.814 102.957 271.354C103.847 270.895 104.838 270.665 105.929 270.665C106.762 270.665 107.516 270.801 108.191 271.074C108.88 271.347 109.454 271.763 109.913 272.323V270.794H112.476ZM106.338 279.495C107.358 279.495 108.191 279.194 108.837 278.591C109.497 277.973 109.827 277.176 109.827 276.2C109.827 275.238 109.497 274.455 108.837 273.852C108.191 273.249 107.358 272.948 106.338 272.948C105.305 272.948 104.457 273.249 103.797 273.852C103.151 274.455 102.828 275.238 102.828 276.2C102.828 277.176 103.151 277.973 103.797 278.591C104.457 279.194 105.305 279.495 106.338 279.495ZM121.185 282.446C120.022 282.446 118.973 282.194 118.04 281.692C117.107 281.189 116.375 280.493 115.843 279.603C115.327 278.698 115.068 277.679 115.068 276.545C115.068 275.41 115.327 274.398 115.843 273.508C116.375 272.618 117.107 271.921 118.04 271.419C118.973 270.916 120.022 270.665 121.185 270.665C122.362 270.665 123.417 270.916 124.351 271.419C125.284 271.921 126.009 272.618 126.526 273.508C127.057 274.398 127.323 275.41 127.323 276.545C127.323 277.679 127.057 278.698 126.526 279.603C126.009 280.493 125.284 281.189 124.351 281.692C123.417 282.194 122.362 282.446 121.185 282.446ZM121.185 280.141C122.175 280.141 122.994 279.811 123.64 279.151C124.286 278.49 124.609 277.621 124.609 276.545C124.609 275.468 124.286 274.599 123.64 273.939C122.994 273.278 122.175 272.948 121.185 272.948C120.194 272.948 119.376 273.278 118.729 273.939C118.098 274.599 117.782 275.468 117.782 276.545C117.782 277.621 118.098 278.49 118.729 279.151C119.376 279.811 120.194 280.141 121.185 280.141ZM136.81 281.67C136.495 281.929 136.107 282.123 135.647 282.252C135.202 282.381 134.729 282.446 134.226 282.446C132.963 282.446 131.986 282.115 131.297 281.455C130.608 280.795 130.263 279.833 130.263 278.569V273.034H128.368V270.88H130.263V268.253H132.955V270.88H136.035V273.034H132.955V278.504C132.955 279.064 133.092 279.495 133.365 279.797C133.637 280.084 134.032 280.227 134.549 280.227C135.152 280.227 135.655 280.069 136.057 279.754L136.81 281.67ZM143.419 270.665C145.113 270.665 146.405 271.074 147.295 271.892C148.2 272.697 148.652 273.917 148.652 275.554V282.295H146.111V280.895C145.781 281.398 145.307 281.785 144.689 282.058C144.086 282.316 143.354 282.446 142.493 282.446C141.631 282.446 140.877 282.302 140.231 282.015C139.585 281.713 139.083 281.304 138.724 280.787C138.379 280.256 138.207 279.66 138.207 279C138.207 277.966 138.587 277.14 139.348 276.523C140.124 275.891 141.337 275.575 142.988 275.575H145.96V275.403C145.96 274.599 145.716 273.982 145.228 273.551C144.754 273.12 144.043 272.905 143.096 272.905C142.45 272.905 141.811 273.005 141.179 273.206C140.561 273.407 140.037 273.687 139.607 274.046L138.551 272.086C139.154 271.627 139.879 271.275 140.727 271.031C141.574 270.787 142.471 270.665 143.419 270.665ZM143.053 280.486C143.727 280.486 144.323 280.335 144.84 280.034C145.371 279.718 145.745 279.273 145.96 278.698V277.363H143.182C141.631 277.363 140.856 277.873 140.856 278.892C140.856 279.38 141.05 279.768 141.437 280.055C141.825 280.342 142.363 280.486 143.053 280.486ZM155.661 282.446C154.728 282.446 153.816 282.324 152.926 282.08C152.035 281.835 151.325 281.527 150.793 281.153L151.827 279.107C152.344 279.452 152.962 279.732 153.679 279.947C154.412 280.148 155.13 280.249 155.833 280.249C157.441 280.249 158.245 279.825 158.245 278.978C158.245 278.576 158.037 278.296 157.621 278.138C157.219 277.98 156.565 277.83 155.661 277.686C154.713 277.542 153.938 277.377 153.335 277.191C152.746 277.004 152.229 276.681 151.784 276.221C151.353 275.748 151.138 275.094 151.138 274.262C151.138 273.17 151.59 272.302 152.495 271.656C153.414 270.995 154.649 270.665 156.199 270.665C156.989 270.665 157.779 270.758 158.568 270.945C159.358 271.117 160.004 271.354 160.507 271.656L159.473 273.702C158.497 273.127 157.398 272.84 156.178 272.84C155.388 272.84 154.785 272.962 154.369 273.206C153.967 273.436 153.766 273.745 153.766 274.132C153.766 274.563 153.981 274.872 154.412 275.058C154.857 275.231 155.539 275.396 156.458 275.554C157.377 275.697 158.13 275.862 158.719 276.049C159.308 276.236 159.81 276.552 160.227 276.997C160.657 277.442 160.873 278.074 160.873 278.892C160.873 279.969 160.406 280.83 159.473 281.477C158.54 282.123 157.269 282.446 155.661 282.446ZM175.518 270.665C176.638 270.665 177.636 270.909 178.512 271.397C179.402 271.885 180.099 272.574 180.601 273.465C181.104 274.355 181.355 275.382 181.355 276.545C181.355 277.708 181.104 278.741 180.601 279.646C180.099 280.536 179.402 281.225 178.512 281.713C177.636 282.202 176.638 282.446 175.518 282.446C173.968 282.446 172.74 281.929 171.836 280.895V286.473H169.143V270.794H171.706V272.302C172.151 271.756 172.697 271.347 173.343 271.074C174.004 270.801 174.729 270.665 175.518 270.665ZM175.217 280.141C176.208 280.141 177.019 279.811 177.651 279.151C178.297 278.49 178.62 277.621 178.62 276.545C178.62 275.468 178.297 274.599 177.651 273.939C177.019 273.278 176.208 272.948 175.217 272.948C174.571 272.948 173.989 273.099 173.472 273.4C172.956 273.687 172.546 274.104 172.245 274.649C171.943 275.195 171.793 275.827 171.793 276.545C171.793 277.262 171.943 277.894 172.245 278.44C172.546 278.985 172.956 279.409 173.472 279.71C173.989 279.998 174.571 280.141 175.217 280.141ZM194.72 276.609C194.72 276.796 194.705 277.061 194.677 277.406H185.653C185.811 278.253 186.22 278.928 186.88 279.43C187.555 279.919 188.388 280.163 189.379 280.163C190.642 280.163 191.683 279.746 192.501 278.914L193.944 280.572C193.428 281.189 192.774 281.656 191.985 281.972C191.195 282.288 190.305 282.446 189.314 282.446C188.05 282.446 186.938 282.194 185.976 281.692C185.014 281.189 184.267 280.493 183.736 279.603C183.219 278.698 182.961 277.679 182.961 276.545C182.961 275.425 183.212 274.42 183.714 273.529C184.231 272.625 184.942 271.921 185.846 271.419C186.751 270.916 187.77 270.665 188.905 270.665C190.025 270.665 191.023 270.916 191.898 271.419C192.789 271.907 193.478 272.603 193.966 273.508C194.469 274.398 194.72 275.432 194.72 276.609ZM188.905 272.819C188.043 272.819 187.311 273.077 186.708 273.594C186.119 274.096 185.76 274.771 185.631 275.618H192.157C192.042 274.786 191.69 274.111 191.102 273.594C190.513 273.077 189.781 272.819 188.905 272.819ZM197.306 266.314H199.998V282.295H197.306V266.314ZM207.925 270.665C209.619 270.665 210.911 271.074 211.802 271.892C212.706 272.697 213.158 273.917 213.158 275.554V282.295H210.617V280.895C210.287 281.398 209.813 281.785 209.196 282.058C208.593 282.316 207.86 282.446 206.999 282.446C206.137 282.446 205.384 282.302 204.737 282.015C204.091 281.713 203.589 281.304 203.23 280.787C202.885 280.256 202.713 279.66 202.713 279C202.713 277.966 203.093 277.14 203.854 276.523C204.63 275.891 205.843 275.575 207.494 275.575H210.466V275.403C210.466 274.599 210.222 273.982 209.734 273.551C209.26 273.12 208.55 272.905 207.602 272.905C206.956 272.905 206.317 273.005 205.685 273.206C205.068 273.407 204.544 273.687 204.113 274.046L203.058 272.086C203.661 271.627 204.386 271.275 205.233 271.031C206.08 270.787 206.977 270.665 207.925 270.665ZM207.559 280.486C208.234 280.486 208.829 280.335 209.346 280.034C209.878 279.718 210.251 279.273 210.466 278.698V277.363H207.688C206.137 277.363 205.362 277.873 205.362 278.892C205.362 279.38 205.556 279.768 205.944 280.055C206.331 280.342 206.87 280.486 207.559 280.486ZM229.091 270.665C230.542 270.665 231.705 271.088 232.58 271.936C233.456 272.783 233.894 274.039 233.894 275.705V282.295H231.202V276.049C231.202 275.044 230.965 274.29 230.491 273.788C230.017 273.271 229.343 273.012 228.467 273.012C227.476 273.012 226.694 273.314 226.119 273.917C225.545 274.506 225.258 275.36 225.258 276.48V282.295H222.566V270.794H225.129V272.28C225.574 271.749 226.134 271.347 226.808 271.074C227.483 270.801 228.244 270.665 229.091 270.665ZM242.583 282.446C241.42 282.446 240.372 282.194 239.439 281.692C238.506 281.189 237.773 280.493 237.242 279.603C236.725 278.698 236.467 277.679 236.467 276.545C236.467 275.41 236.725 274.398 237.242 273.508C237.773 272.618 238.506 271.921 239.439 271.419C240.372 270.916 241.42 270.665 242.583 270.665C243.761 270.665 244.816 270.916 245.749 271.419C246.683 271.921 247.408 272.618 247.925 273.508C248.456 274.398 248.721 275.41 248.721 276.545C248.721 277.679 248.456 278.698 247.925 279.603C247.408 280.493 246.683 281.189 245.749 281.692C244.816 282.194 243.761 282.446 242.583 282.446ZM242.583 280.141C243.574 280.141 244.392 279.811 245.039 279.151C245.685 278.49 246.008 277.621 246.008 276.545C246.008 275.468 245.685 274.599 245.039 273.939C244.392 273.278 243.574 272.948 242.583 272.948C241.593 272.948 240.774 273.278 240.128 273.939C239.496 274.599 239.181 275.468 239.181 276.545C239.181 277.621 239.496 278.49 240.128 279.151C240.774 279.811 241.593 280.141 242.583 280.141ZM251.296 270.794H253.988V282.295H251.296V270.794ZM252.653 268.899C252.164 268.899 251.755 268.748 251.425 268.447C251.095 268.131 250.93 267.743 250.93 267.284C250.93 266.824 251.095 266.444 251.425 266.142C251.755 265.826 252.164 265.668 252.653 265.668C253.141 265.668 253.55 265.819 253.88 266.121C254.211 266.408 254.376 266.774 254.376 267.219C254.376 267.693 254.211 268.095 253.88 268.425C253.564 268.741 253.155 268.899 252.653 268.899ZM264.435 281.67C264.119 281.929 263.731 282.123 263.272 282.252C262.827 282.381 262.353 282.446 261.85 282.446C260.587 282.446 259.611 282.115 258.921 281.455C258.232 280.795 257.888 279.833 257.888 278.569V273.034H255.992V270.88H257.888V268.253H260.58V270.88H263.659V273.034H260.58V278.504C260.58 279.064 260.716 279.495 260.989 279.797C261.262 280.084 261.657 280.227 262.173 280.227C262.776 280.227 263.279 280.069 263.681 279.754L264.435 281.67ZM277.083 276.609C277.083 276.796 277.068 277.061 277.039 277.406H268.015C268.173 278.253 268.583 278.928 269.243 279.43C269.918 279.919 270.751 280.163 271.741 280.163C273.005 280.163 274.046 279.746 274.864 278.914L276.307 280.572C275.79 281.189 275.137 281.656 274.347 281.972C273.558 282.288 272.667 282.446 271.677 282.446C270.413 282.446 269.3 282.194 268.338 281.692C267.376 281.189 266.63 280.493 266.099 279.603C265.582 278.698 265.323 277.679 265.323 276.545C265.323 275.425 265.574 274.42 266.077 273.529C266.594 272.625 267.305 271.921 268.209 271.419C269.114 270.916 270.133 270.665 271.267 270.665C272.387 270.665 273.385 270.916 274.261 271.419C275.151 271.907 275.841 272.603 276.329 273.508C276.831 274.398 277.083 275.432 277.083 276.609ZM271.267 272.819C270.406 272.819 269.674 273.077 269.071 273.594C268.482 274.096 268.123 274.771 267.994 275.618H274.52C274.405 274.786 274.053 274.111 273.464 273.594C272.876 273.077 272.143 272.819 271.267 272.819ZM280.53 282.446C280.042 282.446 279.625 282.281 279.281 281.95C278.936 281.606 278.764 281.175 278.764 280.658C278.764 280.127 278.929 279.696 279.259 279.366C279.604 279.036 280.027 278.871 280.53 278.871C281.032 278.871 281.449 279.036 281.779 279.366C282.124 279.696 282.296 280.127 282.296 280.658C282.296 281.175 282.124 281.606 281.779 281.95C281.435 282.281 281.018 282.446 280.53 282.446Z" fill="black"></path><path d="M41.3556 1.79468H2V51.8836C2 92.1932 73.7941 102.688 80.2341 54.7458C85.3861 16.392 56.4618 3.46431 41.3556 1.79468Z" fill="white" stroke="#19B300" stroke-width="3.33926"></path><path d="M48.746 23.8813V68.1802H38.4939V32.1082H29.6342V23.8813H48.746Z" fill="black"></path><path d="M168.349 47.1418C163.527 47.118 159.9 49.7013 157.606 53.6833C153.936 60.0538 155.07 67.6101 164.981 73.345C171.494 77.1137 180.187 79.1624 186.42 78.3187L183.609 83.1921L187.378 85.3698L199.657 64.0549L195.888 61.8769L193.294 66.3796C190.906 60.5466 184.794 54.031 178.28 50.2618C174.564 48.111 171.242 47.1563 168.349 47.142L168.349 47.1418ZM201.557 70.0087L199.248 74.0172L241.692 98.5757H227.791L195.773 80.041L193.463 84.042L245.051 113.89L245.886 114.377L246.812 114.122C247.728 113.871 249.527 114.025 251.346 114.577C253.165 115.13 255.014 116.005 256.203 116.694L256.744 117.003H256.922C256.977 117.023 257.035 117.039 257.091 117.057C256.995 117.409 256.945 117.773 256.945 118.138C256.945 120.403 258.781 122.239 261.046 122.239C263.311 122.239 265.146 120.403 265.146 118.138C265.146 116.533 264.22 115.151 262.876 114.478C263.339 113.578 263.58 112.536 263.409 111.412C263.218 110.159 262.377 108.861 261.138 108.145C258.491 106.613 254.858 103.834 254.226 101.302L253.987 100.352L253.137 99.8655L201.556 70.009L201.557 70.0087ZM261.594 128.2C256.983 145.409 250.574 143.026 250.574 153.099C250.574 159.182 255.511 164.112 261.594 164.112C267.677 164.112 272.614 159.182 272.614 153.099C272.614 142.224 266.287 145.716 261.594 128.2L261.594 128.2Z" fill="black"></path><defs><linearGradient id="paint0_linear_40_256" x1="112.602" y1="14.5824" x2="405.597" y2="360.747" gradientUnits="userSpaceOnUse"><stop stop-color="#05E401"></stop><stop offset="1" stop-color="#70FF00"></stop></linearGradient></defs></svg>