<svg xmlns="http://www.w3.org/2000/svg" width="464" height="361" viewBox="0 0 464 361" fill="none"><path d="M45.2232 2.55439H283.478C381.685 2.55439 461.297 82.1667 461.297 180.373V324.852C461.297 343.265 446.37 358.193 427.956 358.193H189.701C91.4946 358.193 11.8824 278.58 11.8824 180.374V35.8952C11.8824 17.4816 26.8096 2.55439 45.2232 2.55439Z" stroke="url(#paint0_linear_40_263)" stroke-width="5.10877"></path><path d="M86.219 212.219V227.295H83.9146L75.6012 217.086V227.295H72.823V212.219H75.1274L83.4408 222.428V212.219H86.219ZM94.3939 215.665C96.0882 215.665 97.3804 216.074 98.2706 216.892C99.1751 217.697 99.6274 218.917 99.6274 220.554V227.295H97.086V225.895C96.7558 226.398 96.282 226.785 95.6646 227.058C95.0616 227.316 94.3293 227.446 93.4678 227.446C92.6063 227.446 91.8525 227.302 91.2064 227.015C90.5603 226.713 90.0578 226.304 89.6988 225.787C89.3542 225.256 89.1819 224.66 89.1819 224C89.1819 222.966 89.5624 222.14 90.3234 221.523C91.0987 220.891 92.312 220.575 93.9632 220.575H96.9353V220.403C96.9353 219.599 96.6912 218.982 96.203 218.551C95.7292 218.12 95.0185 217.905 94.0708 217.905C93.4247 217.905 92.7858 218.005 92.154 218.206C91.5366 218.407 91.0126 218.687 90.5818 219.046L89.5265 217.086C90.1296 216.627 90.8546 216.275 91.7018 216.031C92.5489 215.787 93.4463 215.665 94.3939 215.665ZM94.0278 225.486C94.7026 225.486 95.2985 225.335 95.8154 225.034C96.3466 224.718 96.7199 224.273 96.9353 223.698V222.363H94.157C92.6063 222.363 91.831 222.873 91.831 223.892C91.831 224.38 92.0248 224.768 92.4125 225.055C92.8002 225.342 93.3386 225.486 94.0278 225.486ZM96.1815 214.222C95.8225 214.222 95.5067 214.15 95.2339 214.007C94.9754 213.863 94.6524 213.648 94.2647 213.36C94.035 213.174 93.8411 213.037 93.6832 212.951C93.5396 212.851 93.396 212.8 93.2524 212.8C92.9509 212.8 92.6997 212.915 92.4986 213.145C92.312 213.375 92.2115 213.691 92.1971 214.093H90.7541C90.7685 213.217 90.9839 212.52 91.4002 212.004C91.831 211.472 92.391 211.207 93.0801 211.207C93.4391 211.207 93.7478 211.278 94.0062 211.422C94.279 211.566 94.6093 211.781 94.9969 212.068C95.2267 212.255 95.4133 212.398 95.5569 212.499C95.7148 212.585 95.8656 212.628 96.0092 212.628C96.3107 212.628 96.5548 212.52 96.7415 212.305C96.9425 212.09 97.0502 211.788 97.0645 211.401H98.5075C98.4788 212.248 98.2562 212.93 97.8398 213.447C97.4235 213.963 96.8707 214.222 96.1815 214.222ZM108.357 227.446C107.194 227.446 106.145 227.194 105.212 226.692C104.279 226.189 103.547 225.493 103.015 224.603C102.498 223.698 102.24 222.679 102.24 221.545C102.24 220.41 102.498 219.398 103.015 218.508C103.547 217.618 104.279 216.921 105.212 216.419C106.145 215.916 107.194 215.665 108.357 215.665C109.534 215.665 110.589 215.916 111.522 216.419C112.456 216.921 113.181 217.618 113.698 218.508C114.229 219.398 114.495 220.41 114.495 221.545C114.495 222.679 114.229 223.698 113.698 224.603C113.181 225.493 112.456 226.189 111.522 226.692C110.589 227.194 109.534 227.446 108.357 227.446ZM108.357 225.141C109.347 225.141 110.166 224.811 110.812 224.151C111.458 223.49 111.781 222.621 111.781 221.545C111.781 220.468 111.458 219.599 110.812 218.939C110.166 218.278 109.347 217.948 108.357 217.948C107.366 217.948 106.547 218.278 105.901 218.939C105.27 219.599 104.954 220.468 104.954 221.545C104.954 222.621 105.27 223.49 105.901 224.151C106.547 224.811 107.366 225.141 108.357 225.141ZM123.021 215.794H125.713V227.295H123.021V215.794ZM124.378 213.899C123.89 213.899 123.481 213.748 123.15 213.447C122.82 213.131 122.655 212.743 122.655 212.284C122.655 211.824 122.82 211.444 123.15 211.142C123.481 210.826 123.89 210.668 124.378 210.668C124.866 210.668 125.275 210.819 125.606 211.121C125.936 211.408 126.101 211.774 126.101 212.219C126.101 212.693 125.936 213.095 125.606 213.425C125.29 213.741 124.881 213.899 124.378 213.899ZM135.772 215.665C137.223 215.665 138.386 216.088 139.261 216.936C140.137 217.783 140.575 219.039 140.575 220.705V227.295H137.883V221.049C137.883 220.044 137.646 219.29 137.172 218.788C136.699 218.271 136.024 218.012 135.148 218.012C134.157 218.012 133.375 218.314 132.8 218.917C132.226 219.506 131.939 220.36 131.939 221.48V227.295H129.247V215.794H131.81V217.28C132.255 216.749 132.815 216.347 133.49 216.074C134.164 215.801 134.925 215.665 135.772 215.665ZM155.51 215.794V225.55C155.51 229.599 153.443 231.624 149.308 231.624C148.202 231.624 147.154 231.48 146.163 231.193C145.172 230.92 144.354 230.518 143.708 229.987L144.914 227.963C145.416 228.379 146.048 228.709 146.809 228.953C147.585 229.212 148.367 229.341 149.157 229.341C150.42 229.341 151.346 229.054 151.935 228.479C152.524 227.905 152.818 227.029 152.818 225.852V225.249C152.359 225.751 151.799 226.132 151.138 226.39C150.478 226.649 149.753 226.778 148.963 226.778C147.872 226.778 146.881 226.548 145.991 226.089C145.115 225.615 144.419 224.955 143.902 224.107C143.399 223.26 143.148 222.291 143.148 221.2C143.148 220.109 143.399 219.147 143.902 218.314C144.419 217.467 145.115 216.814 145.991 216.354C146.881 215.895 147.872 215.665 148.963 215.665C149.796 215.665 150.55 215.801 151.224 216.074C151.914 216.347 152.488 216.763 152.947 217.323V215.794H155.51ZM149.372 224.495C150.392 224.495 151.224 224.194 151.87 223.591C152.531 222.973 152.861 222.176 152.861 221.2C152.861 220.238 152.531 219.455 151.87 218.852C151.224 218.249 150.392 217.948 149.372 217.948C148.338 217.948 147.491 218.249 146.831 218.852C146.185 219.455 145.862 220.238 145.862 221.2C145.862 222.176 146.185 222.973 146.831 223.591C147.491 224.194 148.338 224.495 149.372 224.495ZM169.861 221.609C169.861 221.796 169.847 222.061 169.818 222.406H160.794C160.952 223.253 161.361 223.928 162.022 224.43C162.697 224.919 163.529 225.163 164.52 225.163C165.783 225.163 166.824 224.746 167.643 223.914L169.086 225.572C168.569 226.189 167.916 226.656 167.126 226.972C166.336 227.288 165.446 227.446 164.455 227.446C163.192 227.446 162.079 227.194 161.117 226.692C160.155 226.189 159.409 225.493 158.877 224.603C158.36 223.698 158.102 222.679 158.102 221.545C158.102 220.425 158.353 219.42 158.856 218.529C159.373 217.625 160.083 216.921 160.988 216.419C161.892 215.916 162.912 215.665 164.046 215.665C165.166 215.665 166.164 215.916 167.04 216.419C167.93 216.907 168.619 217.603 169.107 218.508C169.61 219.398 169.861 220.432 169.861 221.609ZM164.046 217.819C163.185 217.819 162.452 218.077 161.849 218.594C161.261 219.096 160.902 219.771 160.773 220.618H167.298C167.183 219.786 166.832 219.111 166.243 218.594C165.654 218.077 164.922 217.819 164.046 217.819ZM175.01 217.474C175.785 216.268 177.149 215.665 179.102 215.665V218.228C178.872 218.185 178.664 218.163 178.478 218.163C177.429 218.163 176.611 218.472 176.022 219.089C175.434 219.692 175.139 220.568 175.139 221.717V227.295H172.447V215.794H175.01V217.474ZM181.386 215.794H184.078V227.295H181.386V215.794ZM182.743 213.899C182.255 213.899 181.845 213.748 181.515 213.447C181.185 213.131 181.02 212.743 181.02 212.284C181.02 211.824 181.185 211.444 181.515 211.142C181.845 210.826 182.255 210.668 182.743 210.668C183.231 210.668 183.64 210.819 183.97 211.121C184.301 211.408 184.466 211.774 184.466 212.219C184.466 212.693 184.301 213.095 183.97 213.425C183.654 213.741 183.245 213.899 182.743 213.899ZM190.174 217.474C190.95 216.268 192.314 215.665 194.266 215.665V218.228C194.037 218.185 193.829 218.163 193.642 218.163C192.594 218.163 191.775 218.472 191.187 219.089C190.598 219.692 190.304 220.568 190.304 221.717V227.295H187.611V215.794H190.174V217.474ZM207.884 227.446C206.692 227.446 205.623 227.194 204.675 226.692C203.727 226.189 202.988 225.493 202.457 224.603C201.926 223.698 201.66 222.679 201.66 221.545C201.66 220.41 201.926 219.398 202.457 218.508C202.988 217.618 203.72 216.921 204.654 216.419C205.601 215.916 206.678 215.665 207.884 215.665C209.018 215.665 210.009 215.895 210.856 216.354C211.718 216.814 212.364 217.474 212.795 218.335L210.727 219.542C210.397 219.01 209.98 218.615 209.478 218.357C208.99 218.084 208.451 217.948 207.863 217.948C206.858 217.948 206.025 218.278 205.364 218.939C204.704 219.585 204.374 220.453 204.374 221.545C204.374 222.636 204.697 223.512 205.343 224.172C206.003 224.818 206.843 225.141 207.863 225.141C208.451 225.141 208.99 225.012 209.478 224.754C209.98 224.481 210.397 224.079 210.727 223.547L212.795 224.754C212.35 225.615 211.696 226.283 210.835 226.756C209.988 227.216 209.004 227.446 207.884 227.446ZM220.122 227.446C218.959 227.446 217.911 227.194 216.978 226.692C216.045 226.189 215.313 225.493 214.781 224.603C214.264 223.698 214.006 222.679 214.006 221.545C214.006 220.41 214.264 219.398 214.781 218.508C215.313 217.618 216.045 216.921 216.978 216.419C217.911 215.916 218.959 215.665 220.122 215.665C221.3 215.665 222.355 215.916 223.288 216.419C224.222 216.921 224.947 217.618 225.464 218.508C225.995 219.398 226.261 220.41 226.261 221.545C226.261 222.679 225.995 223.698 225.464 224.603C224.947 225.493 224.222 226.189 223.288 226.692C222.355 227.194 221.3 227.446 220.122 227.446ZM220.122 225.141C221.113 225.141 221.932 224.811 222.578 224.151C223.224 223.49 223.547 222.621 223.547 221.545C223.547 220.468 223.224 219.599 222.578 218.939C221.932 218.278 221.113 217.948 220.122 217.948C219.132 217.948 218.313 218.278 217.667 218.939C217.035 219.599 216.72 220.468 216.72 221.545C216.72 222.621 217.035 223.49 217.667 224.151C218.313 224.811 219.132 225.141 220.122 225.141ZM243.351 215.665C244.801 215.665 245.95 216.088 246.797 216.936C247.644 217.768 248.068 219.025 248.068 220.705V227.295H245.375V221.049C245.375 220.044 245.153 219.29 244.708 218.788C244.263 218.271 243.624 218.012 242.791 218.012C241.886 218.012 241.161 218.314 240.616 218.917C240.07 219.506 239.797 220.353 239.797 221.458V227.295H237.105V221.049C237.105 220.044 236.883 219.29 236.438 218.788C235.992 218.271 235.353 218.012 234.521 218.012C233.602 218.012 232.87 218.307 232.324 218.895C231.793 219.484 231.527 220.338 231.527 221.458V227.295H228.835V215.794H231.398V217.259C231.829 216.742 232.367 216.347 233.013 216.074C233.659 215.801 234.377 215.665 235.167 215.665C236.028 215.665 236.789 215.83 237.45 216.16C238.125 216.476 238.656 216.95 239.044 217.582C239.517 216.979 240.128 216.512 240.874 216.182C241.621 215.837 242.446 215.665 243.351 215.665ZM263.835 215.665C264.955 215.665 265.953 215.909 266.829 216.397C267.719 216.885 268.415 217.574 268.918 218.465C269.42 219.355 269.672 220.382 269.672 221.545C269.672 222.708 269.42 223.741 268.918 224.646C268.415 225.536 267.719 226.225 266.829 226.713C265.953 227.202 264.955 227.446 263.835 227.446C263.045 227.446 262.32 227.309 261.66 227.036C261.014 226.764 260.468 226.354 260.023 225.809V227.295H257.46V211.314H260.152V217.194C260.612 216.691 261.15 216.311 261.767 216.053C262.399 215.794 263.088 215.665 263.835 215.665ZM263.533 225.141C264.524 225.141 265.335 224.811 265.967 224.151C266.613 223.49 266.936 222.621 266.936 221.545C266.936 220.468 266.613 219.599 265.967 218.939C265.335 218.278 264.524 217.948 263.533 217.948C262.887 217.948 262.306 218.099 261.789 218.4C261.272 218.687 260.863 219.104 260.561 219.649C260.26 220.195 260.109 220.827 260.109 221.545C260.109 222.262 260.26 222.894 260.561 223.44C260.863 223.985 261.272 224.409 261.789 224.71C262.306 224.998 262.887 225.141 263.533 225.141ZM283.036 221.609C283.036 221.796 283.022 222.061 282.993 222.406H273.969C274.127 223.253 274.536 223.928 275.197 224.43C275.872 224.919 276.704 225.163 277.695 225.163C278.959 225.163 280 224.746 280.818 223.914L282.261 225.572C281.744 226.189 281.091 226.656 280.301 226.972C279.511 227.288 278.621 227.446 277.63 227.446C276.367 227.446 275.254 227.194 274.292 226.692C273.33 226.189 272.584 225.493 272.052 224.603C271.535 223.698 271.277 222.679 271.277 221.545C271.277 220.425 271.528 219.42 272.031 218.529C272.548 217.625 273.258 216.921 274.163 216.419C275.068 215.916 276.087 215.665 277.221 215.665C278.341 215.665 279.339 215.916 280.215 216.419C281.105 216.907 281.794 217.603 282.283 218.508C282.785 219.398 283.036 220.432 283.036 221.609ZM277.221 217.819C276.36 217.819 275.628 218.077 275.024 218.594C274.436 219.096 274.077 219.771 273.948 220.618H280.473C280.359 219.786 280.007 219.111 279.418 218.594C278.829 218.077 278.097 217.819 277.221 217.819ZM291.997 215.665C293.117 215.665 294.115 215.909 294.991 216.397C295.881 216.885 296.577 217.574 297.08 218.465C297.583 219.355 297.834 220.382 297.834 221.545C297.834 222.708 297.583 223.741 297.08 224.646C296.577 225.536 295.881 226.225 294.991 226.713C294.115 227.202 293.117 227.446 291.997 227.446C291.208 227.446 290.482 227.309 289.822 227.036C289.176 226.764 288.63 226.354 288.185 225.809V227.295H285.622V211.314H288.314V217.194C288.774 216.691 289.312 216.311 289.93 216.053C290.561 215.794 291.251 215.665 291.997 215.665ZM291.696 225.141C292.686 225.141 293.498 224.811 294.129 224.151C294.776 223.49 295.099 222.621 295.099 221.545C295.099 220.468 294.776 219.599 294.129 218.939C293.498 218.278 292.686 217.948 291.696 217.948C291.05 217.948 290.468 218.099 289.951 218.4C289.434 218.687 289.025 219.104 288.724 219.649C288.422 220.195 288.271 220.827 288.271 221.545C288.271 222.262 288.422 222.894 288.724 223.44C289.025 223.985 289.434 224.409 289.951 224.71C290.468 224.998 291.05 225.141 291.696 225.141ZM300.387 215.794H303.079V227.295H300.387V215.794ZM301.744 213.899C301.256 213.899 300.846 213.748 300.516 213.447C300.186 213.131 300.021 212.743 300.021 212.284C300.021 211.824 300.186 211.444 300.516 211.142C300.846 210.826 301.256 210.668 301.744 210.668C302.232 210.668 302.641 210.819 302.971 211.121C303.302 211.408 303.467 211.774 303.467 212.219C303.467 212.693 303.302 213.095 302.971 213.425C302.656 213.741 302.246 213.899 301.744 213.899ZM317.876 211.314V227.295H315.292V225.809C314.847 226.354 314.294 226.764 313.634 227.036C312.988 227.309 312.27 227.446 311.48 227.446C310.374 227.446 309.376 227.202 308.486 226.713C307.61 226.225 306.921 225.536 306.419 224.646C305.916 223.741 305.665 222.708 305.665 221.545C305.665 220.382 305.916 219.355 306.419 218.465C306.921 217.574 307.61 216.885 308.486 216.397C309.376 215.909 310.374 215.665 311.48 215.665C312.241 215.665 312.937 215.794 313.569 216.053C314.201 216.311 314.739 216.699 315.184 217.216V211.314H317.876ZM311.803 225.141C312.449 225.141 313.031 224.998 313.548 224.71C314.064 224.409 314.474 223.985 314.775 223.44C315.077 222.894 315.227 222.262 315.227 221.545C315.227 220.827 315.077 220.195 314.775 219.649C314.474 219.104 314.064 218.687 313.548 218.4C313.031 218.099 312.449 217.948 311.803 217.948C311.157 217.948 310.575 218.099 310.058 218.4C309.542 218.687 309.132 219.104 308.831 219.649C308.529 220.195 308.379 220.827 308.379 221.545C308.379 222.262 308.529 222.894 308.831 223.44C309.132 223.985 309.542 224.409 310.058 224.71C310.575 224.998 311.157 225.141 311.803 225.141ZM325.792 215.665C327.486 215.665 328.778 216.074 329.669 216.892C330.573 217.697 331.025 218.917 331.025 220.554V227.295H328.484V225.895C328.154 226.398 327.68 226.785 327.063 227.058C326.46 227.316 325.727 227.446 324.866 227.446C324.004 227.446 323.251 227.302 322.604 227.015C321.958 226.713 321.456 226.304 321.097 225.787C320.752 225.256 320.58 224.66 320.58 224C320.58 222.966 320.96 222.14 321.721 221.523C322.497 220.891 323.71 220.575 325.361 220.575H328.333V220.403C328.333 219.599 328.089 218.982 327.601 218.551C327.127 218.12 326.416 217.905 325.469 217.905C324.823 217.905 324.184 218.005 323.552 218.206C322.935 218.407 322.411 218.687 321.98 219.046L320.924 217.086C321.528 216.627 322.253 216.275 323.1 216.031C323.947 215.787 324.844 215.665 325.792 215.665ZM325.426 225.486C326.101 225.486 326.696 225.335 327.213 225.034C327.745 224.718 328.118 224.273 328.333 223.698V222.363H325.555C324.004 222.363 323.229 222.873 323.229 223.892C323.229 224.38 323.423 224.768 323.81 225.055C324.198 225.342 324.737 225.486 325.426 225.486ZM338.034 227.446C337.101 227.446 336.189 227.324 335.299 227.08C334.409 226.835 333.698 226.527 333.167 226.153L334.2 224.107C334.717 224.452 335.335 224.732 336.053 224.947C336.785 225.148 337.503 225.249 338.206 225.249C339.814 225.249 340.619 224.825 340.619 223.978C340.619 223.576 340.41 223.296 339.994 223.138C339.592 222.98 338.939 222.83 338.034 222.686C337.086 222.542 336.311 222.377 335.708 222.191C335.119 222.004 334.602 221.681 334.157 221.221C333.727 220.748 333.511 220.094 333.511 219.262C333.511 218.17 333.964 217.302 334.868 216.656C335.787 215.995 337.022 215.665 338.572 215.665C339.362 215.665 340.152 215.758 340.942 215.945C341.731 216.117 342.377 216.354 342.88 216.656L341.846 218.702C340.87 218.127 339.771 217.84 338.551 217.84C337.761 217.84 337.158 217.962 336.742 218.206C336.34 218.436 336.139 218.745 336.139 219.132C336.139 219.563 336.354 219.872 336.785 220.058C337.23 220.231 337.912 220.396 338.831 220.554C339.75 220.697 340.504 220.862 341.092 221.049C341.681 221.236 342.184 221.552 342.6 221.997C343.031 222.442 343.246 223.074 343.246 223.892C343.246 224.969 342.779 225.83 341.846 226.477C340.913 227.123 339.642 227.446 338.034 227.446ZM83.8069 240.794V256.473H81.1147V250.895C80.2102 251.929 78.9826 252.446 77.4319 252.446C76.312 252.446 75.3069 252.202 74.4167 251.713C73.5409 251.225 72.8517 250.536 72.3491 249.646C71.861 248.756 71.6169 247.722 71.6169 246.545C71.6169 245.382 71.8681 244.355 72.3707 243.465C72.8732 242.574 73.5624 241.885 74.4382 241.397C75.3141 240.909 76.312 240.665 77.4319 240.665C78.2216 240.665 78.9395 240.801 79.5856 241.074C80.2461 241.347 80.7989 241.756 81.244 242.302V240.794H83.8069ZM77.7334 250.141C78.7241 250.141 79.5425 249.811 80.1887 249.151C80.8348 248.49 81.1578 247.621 81.1578 246.545C81.1578 245.468 80.8348 244.599 80.1887 243.939C79.5425 243.278 78.7241 242.948 77.7334 242.948C76.7427 242.948 75.9243 243.278 75.2782 243.939C74.6464 244.599 74.3306 245.468 74.3306 246.545C74.3306 247.621 74.6464 248.49 75.2782 249.151C75.9243 249.811 76.7427 250.141 77.7334 250.141ZM98.4639 240.794V252.295H95.901V250.83C95.4703 251.347 94.9318 251.749 94.2857 252.036C93.6396 252.309 92.9432 252.446 92.1966 252.446C90.6603 252.446 89.447 252.022 88.5568 251.175C87.681 250.314 87.2431 249.043 87.2431 247.363V240.794H89.9352V246.997C89.9352 248.031 90.1649 248.806 90.6244 249.323C91.0982 249.825 91.7659 250.077 92.6274 250.077C93.5893 250.077 94.3503 249.782 94.9103 249.194C95.4846 248.591 95.7718 247.729 95.7718 246.609V240.794H98.4639ZM112.8 246.609C112.8 246.796 112.786 247.061 112.757 247.406H103.733C103.891 248.253 104.3 248.928 104.961 249.43C105.636 249.919 106.468 250.163 107.459 250.163C108.723 250.163 109.764 249.746 110.582 248.914L112.025 250.572C111.508 251.189 110.855 251.656 110.065 251.972C109.276 252.288 108.385 252.446 107.395 252.446C106.131 252.446 105.018 252.194 104.056 251.692C103.094 251.189 102.348 250.493 101.816 249.603C101.3 248.698 101.041 247.679 101.041 246.545C101.041 245.425 101.292 244.42 101.795 243.529C102.312 242.625 103.023 241.921 103.927 241.419C104.832 240.916 105.851 240.665 106.985 240.665C108.105 240.665 109.103 240.916 109.979 241.419C110.869 241.907 111.558 242.603 112.047 243.508C112.549 244.398 112.8 245.432 112.8 246.609ZM106.985 242.819C106.124 242.819 105.392 243.077 104.789 243.594C104.2 244.096 103.841 244.771 103.712 245.618H110.237C110.123 244.786 109.771 244.111 109.182 243.594C108.593 243.077 107.861 242.819 106.985 242.819ZM121.912 240.665C123.362 240.665 124.525 241.088 125.401 241.936C126.277 242.783 126.715 244.039 126.715 245.705V252.295H124.023V246.049C124.023 245.044 123.786 244.29 123.312 243.788C122.838 243.271 122.163 243.012 121.288 243.012C120.297 243.012 119.514 243.314 118.94 243.917C118.366 244.506 118.079 245.36 118.079 246.48V252.295H115.386V240.794H117.949V242.28C118.394 241.749 118.954 241.347 119.629 241.074C120.304 240.801 121.065 240.665 121.912 240.665ZM137.043 251.67C136.728 251.929 136.34 252.123 135.88 252.252C135.435 252.381 134.962 252.446 134.459 252.446C133.196 252.446 132.219 252.115 131.53 251.455C130.841 250.795 130.496 249.833 130.496 248.569V243.034H128.601V240.88H130.496V238.253H133.188V240.88H136.268V243.034H133.188V248.504C133.188 249.064 133.325 249.495 133.598 249.797C133.87 250.084 134.265 250.227 134.782 250.227C135.385 250.227 135.888 250.069 136.29 249.754L137.043 251.67ZM149.691 246.609C149.691 246.796 149.677 247.061 149.648 247.406H140.624C140.782 248.253 141.191 248.928 141.852 249.43C142.526 249.919 143.359 250.163 144.35 250.163C145.613 250.163 146.654 249.746 147.473 248.914L148.916 250.572C148.399 251.189 147.746 251.656 146.956 251.972C146.166 252.288 145.276 252.446 144.285 252.446C143.022 252.446 141.909 252.194 140.947 251.692C139.985 251.189 139.238 250.493 138.707 249.603C138.19 248.698 137.932 247.679 137.932 246.545C137.932 245.425 138.183 244.42 138.686 243.529C139.203 242.625 139.913 241.921 140.818 241.419C141.722 240.916 142.742 240.665 143.876 240.665C144.996 240.665 145.994 240.916 146.87 241.419C147.76 241.907 148.449 242.603 148.937 243.508C149.44 244.398 149.691 245.432 149.691 246.609ZM143.876 242.819C143.015 242.819 142.282 243.077 141.679 243.594C141.091 244.096 140.732 244.771 140.602 245.618H147.128C147.013 244.786 146.662 244.111 146.073 243.594C145.484 243.077 144.752 242.819 143.876 242.819ZM155.831 252.446C154.897 252.446 153.986 252.324 153.096 252.08C152.205 251.835 151.495 251.527 150.963 251.153L151.997 249.107C152.514 249.452 153.131 249.732 153.849 249.947C154.582 250.148 155.3 250.249 156.003 250.249C157.611 250.249 158.415 249.825 158.415 248.978C158.415 248.576 158.207 248.296 157.791 248.138C157.389 247.98 156.735 247.83 155.831 247.686C154.883 247.542 154.108 247.377 153.505 247.191C152.916 247.004 152.399 246.681 151.954 246.221C151.523 245.748 151.308 245.094 151.308 244.262C151.308 243.17 151.76 242.302 152.665 241.656C153.584 240.995 154.819 240.665 156.369 240.665C157.159 240.665 157.949 240.758 158.738 240.945C159.528 241.117 160.174 241.354 160.677 241.656L159.643 243.702C158.666 243.127 157.568 242.84 156.348 242.84C155.558 242.84 154.955 242.962 154.539 243.206C154.137 243.436 153.935 243.745 153.935 244.132C153.935 244.563 154.151 244.872 154.582 245.058C155.027 245.231 155.709 245.396 156.628 245.554C157.547 245.697 158.3 245.862 158.889 246.049C159.478 246.236 159.98 246.552 160.397 246.997C160.827 247.442 161.043 248.074 161.043 248.892C161.043 249.969 160.576 250.83 159.643 251.477C158.71 252.123 157.439 252.446 155.831 252.446ZM174.482 252.446C173.319 252.446 172.271 252.194 171.338 251.692C170.405 251.189 169.672 250.493 169.141 249.603C168.624 248.698 168.366 247.679 168.366 246.545C168.366 245.41 168.624 244.398 169.141 243.508C169.672 242.618 170.405 241.921 171.338 241.419C172.271 240.916 173.319 240.665 174.482 240.665C175.66 240.665 176.715 240.916 177.648 241.419C178.581 241.921 179.307 242.618 179.823 243.508C180.355 244.398 180.62 245.41 180.62 246.545C180.62 247.679 180.355 248.698 179.823 249.603C179.307 250.493 178.581 251.189 177.648 251.692C176.715 252.194 175.66 252.446 174.482 252.446ZM174.482 250.141C175.473 250.141 176.291 249.811 176.937 249.151C177.584 248.49 177.907 247.621 177.907 246.545C177.907 245.468 177.584 244.599 176.937 243.939C176.291 243.278 175.473 242.948 174.482 242.948C173.492 242.948 172.673 243.278 172.027 243.939C171.395 244.599 171.079 245.468 171.079 246.545C171.079 247.621 171.395 248.49 172.027 249.151C172.673 249.811 173.492 250.141 174.482 250.141ZM194.329 240.794V252.295H191.766V250.83C191.336 251.347 190.797 251.749 190.151 252.036C189.505 252.309 188.809 252.446 188.062 252.446C186.526 252.446 185.313 252.022 184.422 251.175C183.546 250.314 183.109 249.043 183.109 247.363V240.794H185.801V246.997C185.801 248.031 186.03 248.806 186.49 249.323C186.964 249.825 187.631 250.077 188.493 250.077C189.455 250.077 190.216 249.782 190.776 249.194C191.35 248.591 191.637 247.729 191.637 246.609V240.794H194.329ZM215.221 240.794V250.55C215.221 254.599 213.154 256.624 209.018 256.624C207.913 256.624 206.865 256.48 205.874 256.193C204.883 255.92 204.065 255.518 203.419 254.987L204.625 252.963C205.127 253.379 205.759 253.709 206.52 253.953C207.295 254.212 208.078 254.341 208.868 254.341C210.131 254.341 211.057 254.054 211.646 253.479C212.235 252.905 212.529 252.029 212.529 250.852V250.249C212.069 250.751 211.51 251.132 210.849 251.39C210.189 251.649 209.463 251.778 208.674 251.778C207.583 251.778 206.592 251.548 205.702 251.089C204.826 250.615 204.129 249.955 203.613 249.107C203.11 248.26 202.859 247.291 202.859 246.2C202.859 245.109 203.11 244.147 203.613 243.314C204.129 242.467 204.826 241.814 205.702 241.354C206.592 240.895 207.583 240.665 208.674 240.665C209.507 240.665 210.26 240.801 210.935 241.074C211.624 241.347 212.199 241.763 212.658 242.323V240.794H215.221ZM209.083 249.495C210.102 249.495 210.935 249.194 211.581 248.591C212.242 247.973 212.572 247.176 212.572 246.2C212.572 245.238 212.242 244.455 211.581 243.852C210.935 243.249 210.102 242.948 209.083 242.948C208.049 242.948 207.202 243.249 206.542 243.852C205.896 244.455 205.572 245.238 205.572 246.2C205.572 247.176 205.896 247.973 206.542 248.591C207.202 249.194 208.049 249.495 209.083 249.495ZM229.572 246.609C229.572 246.796 229.558 247.061 229.529 247.406H220.505C220.663 248.253 221.072 248.928 221.733 249.43C222.407 249.919 223.24 250.163 224.231 250.163C225.494 250.163 226.535 249.746 227.354 248.914L228.797 250.572C228.28 251.189 227.627 251.656 226.837 251.972C226.047 252.288 225.157 252.446 224.166 252.446C222.903 252.446 221.79 252.194 220.828 251.692C219.866 251.189 219.119 250.493 218.588 249.603C218.071 248.698 217.813 247.679 217.813 246.545C217.813 245.425 218.064 244.42 218.567 243.529C219.083 242.625 219.794 241.921 220.699 241.419C221.603 240.916 222.623 240.665 223.757 240.665C224.877 240.665 225.875 240.916 226.751 241.419C227.641 241.907 228.33 242.603 228.818 243.508C229.321 244.398 229.572 245.432 229.572 246.609ZM223.757 242.819C222.896 242.819 222.163 243.077 221.56 243.594C220.972 244.096 220.613 244.771 220.483 245.618H227.009C226.894 244.786 226.542 244.111 225.954 243.594C225.365 243.077 224.633 242.819 223.757 242.819ZM232.158 236.314H234.85V252.295H232.158V236.314ZM242.777 240.665C244.471 240.665 245.764 241.074 246.654 241.892C247.558 242.697 248.011 243.917 248.011 245.554V252.295H245.469V250.895C245.139 251.398 244.665 251.785 244.048 252.058C243.445 252.316 242.713 252.446 241.851 252.446C240.99 252.446 240.236 252.302 239.59 252.015C238.944 251.713 238.441 251.304 238.082 250.787C237.737 250.256 237.565 249.66 237.565 249C237.565 247.966 237.946 247.14 238.707 246.523C239.482 245.891 240.695 245.575 242.346 245.575H245.319V245.403C245.319 244.599 245.074 243.982 244.586 243.551C244.112 243.12 243.402 242.905 242.454 242.905C241.808 242.905 241.169 243.005 240.537 243.206C239.92 243.407 239.396 243.687 238.965 244.046L237.91 242.086C238.513 241.627 239.238 241.275 240.085 241.031C240.932 240.787 241.83 240.665 242.777 240.665ZM242.411 250.486C243.086 250.486 243.682 250.335 244.199 250.034C244.73 249.718 245.103 249.273 245.319 248.698V247.363H242.54C240.99 247.363 240.214 247.873 240.214 248.892C240.214 249.38 240.408 249.768 240.796 250.055C241.183 250.342 241.722 250.486 242.411 250.486ZM262.835 236.314V252.295H260.25V250.809C259.805 251.354 259.252 251.764 258.592 252.036C257.946 252.309 257.228 252.446 256.438 252.446C255.333 252.446 254.335 252.202 253.445 251.713C252.569 251.225 251.88 250.536 251.377 249.646C250.875 248.741 250.623 247.708 250.623 246.545C250.623 245.382 250.875 244.355 251.377 243.465C251.88 242.574 252.569 241.885 253.445 241.397C254.335 240.909 255.333 240.665 256.438 240.665C257.199 240.665 257.896 240.794 258.527 241.053C259.159 241.311 259.698 241.699 260.143 242.216V236.314H262.835ZM256.761 250.141C257.407 250.141 257.989 249.998 258.506 249.71C259.023 249.409 259.432 248.985 259.733 248.44C260.035 247.894 260.186 247.262 260.186 246.545C260.186 245.827 260.035 245.195 259.733 244.649C259.432 244.104 259.023 243.687 258.506 243.4C257.989 243.099 257.407 242.948 256.761 242.948C256.115 242.948 255.534 243.099 255.017 243.4C254.5 243.687 254.091 244.104 253.789 244.649C253.488 245.195 253.337 245.827 253.337 246.545C253.337 247.262 253.488 247.894 253.789 248.44C254.091 248.985 254.5 249.409 255.017 249.71C255.534 249.998 256.115 250.141 256.761 250.141ZM270.75 240.665C272.444 240.665 273.737 241.074 274.627 241.892C275.531 242.697 275.984 243.917 275.984 245.554V252.295H273.442V250.895C273.112 251.398 272.638 251.785 272.021 252.058C271.418 252.316 270.686 252.446 269.824 252.446C268.963 252.446 268.209 252.302 267.563 252.015C266.917 251.713 266.414 251.304 266.055 250.787C265.711 250.256 265.538 249.66 265.538 249C265.538 247.966 265.919 247.14 266.68 246.523C267.455 245.891 268.668 245.575 270.319 245.575H273.292V245.403C273.292 244.599 273.048 243.982 272.559 243.551C272.086 243.12 271.375 242.905 270.427 242.905C269.781 242.905 269.142 243.005 268.51 243.206C267.893 243.407 267.369 243.687 266.938 244.046L265.883 242.086C266.486 241.627 267.211 241.275 268.058 241.031C268.905 240.787 269.803 240.665 270.75 240.665ZM270.384 250.486C271.059 250.486 271.655 250.335 272.172 250.034C272.703 249.718 273.076 249.273 273.292 248.698V247.363H270.513C268.963 247.363 268.187 247.873 268.187 248.892C268.187 249.38 268.381 249.768 268.769 250.055C269.156 250.342 269.695 250.486 270.384 250.486ZM282.992 252.446C282.059 252.446 281.147 252.324 280.257 252.08C279.367 251.835 278.656 251.527 278.125 251.153L279.159 249.107C279.676 249.452 280.293 249.732 281.011 249.947C281.743 250.148 282.461 250.249 283.165 250.249C284.773 250.249 285.577 249.825 285.577 248.978C285.577 248.576 285.369 248.296 284.952 248.138C284.55 247.98 283.897 247.83 282.992 247.686C282.045 247.542 281.269 247.377 280.666 247.191C280.078 247.004 279.561 246.681 279.116 246.221C278.685 245.748 278.47 245.094 278.47 244.262C278.47 243.17 278.922 242.302 279.826 241.656C280.745 240.995 281.98 240.665 283.531 240.665C284.321 240.665 285.11 240.758 285.9 240.945C286.69 241.117 287.336 241.354 287.838 241.656L286.804 243.702C285.828 243.127 284.73 242.84 283.509 242.84C282.72 242.84 282.117 242.962 281.7 243.206C281.298 243.436 281.097 243.745 281.097 244.132C281.097 244.563 281.312 244.872 281.743 245.058C282.188 245.231 282.87 245.396 283.789 245.554C284.708 245.697 285.462 245.862 286.051 246.049C286.639 246.236 287.142 246.552 287.558 246.997C287.989 247.442 288.204 248.074 288.204 248.892C288.204 249.969 287.738 250.83 286.804 251.477C285.871 252.123 284.6 252.446 282.992 252.446ZM291.406 248.871C291.908 248.871 292.325 249.036 292.655 249.366C292.985 249.696 293.15 250.127 293.15 250.658C293.15 250.888 293.114 251.132 293.043 251.39C292.985 251.634 292.856 252.008 292.655 252.51L291.557 255.547H289.812L290.674 252.252C290.358 252.123 290.106 251.922 289.92 251.649C289.747 251.362 289.661 251.031 289.661 250.658C289.661 250.127 289.826 249.696 290.157 249.366C290.487 249.036 290.903 248.871 291.406 248.871ZM308.108 240.665C309.228 240.665 310.226 240.909 311.102 241.397C311.992 241.885 312.688 242.574 313.191 243.465C313.693 244.355 313.945 245.382 313.945 246.545C313.945 247.708 313.693 248.741 313.191 249.646C312.688 250.536 311.992 251.225 311.102 251.713C310.226 252.202 309.228 252.446 308.108 252.446C306.557 252.446 305.33 251.929 304.425 250.895V256.473H301.733V240.794H304.296V242.302C304.741 241.756 305.287 241.347 305.933 241.074C306.593 240.801 307.318 240.665 308.108 240.665ZM307.807 250.141C308.797 250.141 309.608 249.811 310.24 249.151C310.886 248.49 311.209 247.621 311.209 246.545C311.209 245.468 310.886 244.599 310.24 243.939C309.608 243.278 308.797 242.948 307.807 242.948C307.16 242.948 306.579 243.099 306.062 243.4C305.545 243.687 305.136 244.104 304.834 244.649C304.533 245.195 304.382 245.827 304.382 246.545C304.382 247.262 304.533 247.894 304.834 248.44C305.136 248.985 305.545 249.409 306.062 249.71C306.579 249.998 307.16 250.141 307.807 250.141ZM320.744 240.665C322.438 240.665 323.731 241.074 324.621 241.892C325.525 242.697 325.978 243.917 325.978 245.554V252.295H323.436V250.895C323.106 251.398 322.632 251.785 322.015 252.058C321.412 252.316 320.679 252.446 319.818 252.446C318.957 252.446 318.203 252.302 317.557 252.015C316.91 251.713 316.408 251.304 316.049 250.787C315.704 250.256 315.532 249.66 315.532 249C315.532 247.966 315.913 247.14 316.674 246.523C317.449 245.891 318.662 245.575 320.313 245.575H323.285V245.403C323.285 244.599 323.041 243.982 322.553 243.551C322.079 243.12 321.369 242.905 320.421 242.905C319.775 242.905 319.136 243.005 318.504 243.206C317.887 243.407 317.363 243.687 316.932 244.046L315.877 242.086C316.48 241.627 317.205 241.275 318.052 241.031C318.899 240.787 319.796 240.665 320.744 240.665ZM320.378 250.486C321.053 250.486 321.649 250.335 322.166 250.034C322.697 249.718 323.07 249.273 323.285 248.698V247.363H320.507C318.957 247.363 318.181 247.873 318.181 248.892C318.181 249.38 318.375 249.768 318.763 250.055C319.15 250.342 319.689 250.486 320.378 250.486ZM331.996 242.474C332.771 241.268 334.135 240.665 336.088 240.665V243.228C335.858 243.185 335.65 243.163 335.463 243.163C334.415 243.163 333.597 243.472 333.008 244.089C332.419 244.692 332.125 245.568 332.125 246.717V252.295H329.433V240.794H331.996V242.474ZM342.702 240.665C344.396 240.665 345.688 241.074 346.579 241.892C347.483 242.697 347.935 243.917 347.935 245.554V252.295H345.394V250.895C345.064 251.398 344.59 251.785 343.973 252.058C343.37 252.316 342.637 252.446 341.776 252.446C340.914 252.446 340.161 252.302 339.514 252.015C338.868 251.713 338.366 251.304 338.007 250.787C337.662 250.256 337.49 249.66 337.49 249C337.49 247.966 337.87 247.14 338.631 246.523C339.407 245.891 340.62 245.575 342.271 245.575H345.243V245.403C345.243 244.599 344.999 243.982 344.511 243.551C344.037 243.12 343.326 242.905 342.379 242.905C341.733 242.905 341.094 243.005 340.462 243.206C339.845 243.407 339.321 243.687 338.89 244.046L337.834 242.086C338.438 241.627 339.163 241.275 340.01 241.031C340.857 240.787 341.754 240.665 342.702 240.665ZM342.336 250.486C343.011 250.486 343.606 250.335 344.123 250.034C344.655 249.718 345.028 249.273 345.243 248.698V247.363H342.465C340.914 247.363 340.139 247.873 340.139 248.892C340.139 249.38 340.333 249.768 340.72 250.055C341.108 250.342 341.647 250.486 342.336 250.486ZM371.859 240.665C373.309 240.665 374.457 241.088 375.305 241.936C376.152 242.768 376.575 244.025 376.575 245.705V252.295H373.883V246.049C373.883 245.044 373.661 244.29 373.215 243.788C372.77 243.271 372.131 243.012 371.299 243.012C370.394 243.012 369.669 243.314 369.123 243.917C368.578 244.506 368.305 245.353 368.305 246.458V252.295H365.613V246.049C365.613 245.044 365.39 244.29 364.945 243.788C364.5 243.271 363.861 243.012 363.028 243.012C362.109 243.012 361.377 243.307 360.832 243.895C360.3 244.484 360.035 245.338 360.035 246.458V252.295H357.343V240.794H359.906V242.259C360.336 241.742 360.875 241.347 361.521 241.074C362.167 240.801 362.885 240.665 363.675 240.665C364.536 240.665 365.297 240.83 365.957 241.16C366.632 241.476 367.164 241.95 367.551 242.582C368.025 241.979 368.635 241.512 369.382 241.182C370.128 240.837 370.954 240.665 371.859 240.665ZM384.409 240.665C386.103 240.665 387.396 241.074 388.286 241.892C389.19 242.697 389.643 243.917 389.643 245.554V252.295H387.101V250.895C386.771 251.398 386.297 251.785 385.68 252.058C385.077 252.316 384.344 252.446 383.483 252.446C382.621 252.446 381.868 252.302 381.222 252.015C380.575 251.713 380.073 251.304 379.714 250.787C379.369 250.256 379.197 249.66 379.197 249C379.197 247.966 379.578 247.14 380.339 246.523C381.114 245.891 382.327 245.575 383.978 245.575H386.95V245.403C386.95 244.599 386.706 243.982 386.218 243.551C385.744 243.12 385.034 242.905 384.086 242.905C383.44 242.905 382.801 243.005 382.169 243.206C381.552 243.407 381.028 243.687 380.597 244.046L379.542 242.086C380.145 241.627 380.87 241.275 381.717 241.031C382.564 240.787 383.461 240.665 384.409 240.665ZM384.043 250.486C384.718 250.486 385.314 250.335 385.831 250.034C386.362 249.718 386.735 249.273 386.95 248.698V247.363H384.172C382.621 247.363 381.846 247.873 381.846 248.892C381.846 249.38 382.04 249.768 382.428 250.055C382.815 250.342 383.354 250.486 384.043 250.486ZM393.098 240.794H395.79V252.295H393.098V240.794ZM394.454 238.899C393.966 238.899 393.557 238.748 393.227 238.447C392.897 238.131 392.731 237.743 392.731 237.284C392.731 236.824 392.897 236.444 393.227 236.142C393.557 235.826 393.966 235.668 394.454 235.668C394.943 235.668 395.352 235.819 395.682 236.121C396.012 236.408 396.177 236.774 396.177 237.219C396.177 237.693 396.012 238.095 395.682 238.425C395.366 238.741 394.957 238.899 394.454 238.899ZM404.492 252.446C403.329 252.446 402.281 252.194 401.348 251.692C400.414 251.189 399.682 250.493 399.151 249.603C398.634 248.698 398.376 247.679 398.376 246.545C398.376 245.41 398.634 244.398 399.151 243.508C399.682 242.618 400.414 241.921 401.348 241.419C402.281 240.916 403.329 240.665 404.492 240.665C405.669 240.665 406.725 240.916 407.658 241.419C408.591 241.921 409.316 242.618 409.833 243.508C410.365 244.398 410.63 245.41 410.63 246.545C410.63 247.679 410.365 248.698 409.833 249.603C409.316 250.493 408.591 251.189 407.658 251.692C406.725 252.194 405.669 252.446 404.492 252.446ZM404.492 250.141C405.483 250.141 406.301 249.811 406.947 249.151C407.593 248.49 407.916 247.621 407.916 246.545C407.916 245.468 407.593 244.599 406.947 243.939C406.301 243.278 405.483 242.948 404.492 242.948C403.501 242.948 402.683 243.278 402.037 243.939C401.405 244.599 401.089 245.468 401.089 246.545C401.089 247.621 401.405 248.49 402.037 249.151C402.683 249.811 403.501 250.141 404.492 250.141ZM415.767 242.474C416.543 241.268 417.907 240.665 419.86 240.665V243.228C419.63 243.185 419.422 243.163 419.235 243.163C418.187 243.163 417.368 243.472 416.78 244.089C416.191 244.692 415.897 245.568 415.897 246.717V252.295H413.205V240.794H415.767V242.474ZM83.3761 271.609C83.3761 271.796 83.3618 272.061 83.3331 272.406H74.309C74.467 273.253 74.8762 273.928 75.5366 274.43C76.2115 274.919 77.0442 275.163 78.0349 275.163C79.2985 275.163 80.3394 274.746 81.1578 273.914L82.6008 275.572C82.0839 276.189 81.4306 276.656 80.6409 276.972C79.8512 277.288 78.961 277.446 77.9703 277.446C76.7068 277.446 75.5941 277.194 74.6321 276.692C73.6701 276.189 72.9235 275.493 72.3922 274.603C71.8753 273.698 71.6169 272.679 71.6169 271.545C71.6169 270.425 71.8681 269.42 72.3707 268.529C72.8876 267.625 73.5983 266.921 74.5028 266.419C75.4074 265.916 76.4268 265.665 77.5611 265.665C78.6811 265.665 79.6789 265.916 80.5548 266.419C81.445 266.907 82.1342 267.603 82.6223 268.508C83.1249 269.398 83.3761 270.432 83.3761 271.609ZM77.5611 267.819C76.6996 267.819 75.9674 268.077 75.3643 268.594C74.7757 269.096 74.4167 269.771 74.2875 270.618H80.8132C80.6984 269.786 80.3466 269.111 79.7579 268.594C79.1692 268.077 78.437 267.819 77.5611 267.819ZM90.6357 263.339C89.5014 263.339 88.9342 263.956 88.9342 265.191V265.88H92.1002V268.034H89.0204V277.295H86.3282V268.034H84.433V265.88H86.3282V265.148C86.3282 263.913 86.6872 262.944 87.4051 262.24C88.123 261.523 89.1353 261.164 90.4418 261.164C91.4756 261.164 92.2869 261.372 92.8755 261.788L92.1217 263.813C91.6623 263.497 91.1669 263.339 90.6357 263.339ZM95.6323 265.794H98.3244V277.295H95.6323V265.794ZM96.9891 263.899C96.501 263.899 96.0917 263.748 95.7615 263.447C95.4313 263.131 95.2662 262.743 95.2662 262.284C95.2662 261.824 95.4313 261.444 95.7615 261.142C96.0917 260.826 96.501 260.668 96.9891 260.668C97.4773 260.668 97.8865 260.819 98.2167 261.121C98.547 261.408 98.7121 261.774 98.7121 262.219C98.7121 262.693 98.547 263.095 98.2167 263.425C97.9009 263.741 97.4917 263.899 96.9891 263.899ZM107.139 277.446C105.947 277.446 104.878 277.194 103.93 276.692C102.983 276.189 102.243 275.493 101.712 274.603C101.181 273.698 100.915 272.679 100.915 271.545C100.915 270.41 101.181 269.398 101.712 268.508C102.243 267.618 102.975 266.921 103.909 266.419C104.856 265.916 105.933 265.665 107.139 265.665C108.273 265.665 109.264 265.895 110.111 266.354C110.973 266.814 111.619 267.474 112.05 268.335L109.982 269.542C109.652 269.01 109.235 268.615 108.733 268.357C108.245 268.084 107.706 267.948 107.118 267.948C106.113 267.948 105.28 268.278 104.619 268.939C103.959 269.585 103.629 270.453 103.629 271.545C103.629 272.636 103.952 273.512 104.598 274.172C105.258 274.818 106.098 275.141 107.118 275.141C107.706 275.141 108.245 275.012 108.733 274.754C109.235 274.481 109.652 274.079 109.982 273.547L112.05 274.754C111.605 275.615 110.951 276.283 110.09 276.756C109.243 277.216 108.259 277.446 107.139 277.446ZM118.77 265.665C120.465 265.665 121.757 266.074 122.647 266.892C123.552 267.697 124.004 268.917 124.004 270.554V277.295H121.463V275.895C121.132 276.398 120.658 276.785 120.041 277.058C119.438 277.316 118.706 277.446 117.844 277.446C116.983 277.446 116.229 277.302 115.583 277.015C114.937 276.713 114.434 276.304 114.075 275.787C113.731 275.256 113.558 274.66 113.558 274C113.558 272.966 113.939 272.14 114.7 271.523C115.475 270.891 116.688 270.575 118.34 270.575H121.312V270.403C121.312 269.599 121.068 268.982 120.58 268.551C120.106 268.12 119.395 267.905 118.447 267.905C117.801 267.905 117.162 268.005 116.531 268.206C115.913 268.407 115.389 268.687 114.958 269.046L113.903 267.086C114.506 266.627 115.231 266.275 116.078 266.031C116.925 265.787 117.823 265.665 118.77 265.665ZM118.404 275.486C119.079 275.486 119.675 275.335 120.192 275.034C120.723 274.718 121.096 274.273 121.312 273.698V272.363H118.533C116.983 272.363 116.207 272.873 116.207 273.892C116.207 274.38 116.401 274.768 116.789 275.055C117.177 275.342 117.715 275.486 118.404 275.486ZM120.106 261.271H123.272L119.524 264.222H117.198L120.106 261.271ZM132.841 277.446C131.649 277.446 130.579 277.194 129.632 276.692C128.684 276.189 127.945 275.493 127.413 274.603C126.882 273.698 126.616 272.679 126.616 271.545C126.616 270.41 126.882 269.398 127.413 268.508C127.945 267.618 128.677 266.921 129.61 266.419C130.558 265.916 131.635 265.665 132.841 265.665C133.975 265.665 134.966 265.895 135.813 266.354C136.674 266.814 137.32 267.474 137.751 268.335L135.684 269.542C135.353 269.01 134.937 268.615 134.434 268.357C133.946 268.084 133.408 267.948 132.819 267.948C131.814 267.948 130.981 268.278 130.321 268.939C129.66 269.585 129.33 270.453 129.33 271.545C129.33 272.636 129.653 273.512 130.299 274.172C130.96 274.818 131.8 275.141 132.819 275.141C133.408 275.141 133.946 275.012 134.434 274.754C134.937 274.481 135.353 274.079 135.684 273.547L137.751 274.754C137.306 275.615 136.653 276.283 135.791 276.756C134.944 277.216 133.961 277.446 132.841 277.446ZM140.078 265.794H142.771V277.295H140.078V265.794ZM141.435 263.899C140.947 263.899 140.538 263.748 140.208 263.447C139.877 263.131 139.712 262.743 139.712 262.284C139.712 261.824 139.877 261.444 140.208 261.142C140.538 260.826 140.947 260.668 141.435 260.668C141.923 260.668 142.333 260.819 142.663 261.121C142.993 261.408 143.158 261.774 143.158 262.219C143.158 262.693 142.993 263.095 142.663 263.425C142.347 263.741 141.938 263.899 141.435 263.899ZM150.698 265.665C152.392 265.665 153.684 266.074 154.574 266.892C155.479 267.697 155.931 268.917 155.931 270.554V277.295H153.39V275.895C153.059 276.398 152.586 276.785 151.968 277.058C151.365 277.316 150.633 277.446 149.771 277.446C148.91 277.446 148.156 277.302 147.51 277.015C146.864 276.713 146.361 276.304 146.002 275.787C145.658 275.256 145.486 274.66 145.486 274C145.486 272.966 145.866 272.14 146.627 271.523C147.402 270.891 148.616 270.575 150.267 270.575H153.239V270.403C153.239 269.599 152.995 268.982 152.507 268.551C152.033 268.12 151.322 267.905 150.374 267.905C149.728 267.905 149.089 268.005 148.458 268.206C147.84 268.407 147.316 268.687 146.885 269.046L145.83 267.086C146.433 266.627 147.158 266.275 148.005 266.031C148.853 265.787 149.75 265.665 150.698 265.665ZM150.331 275.486C151.006 275.486 151.602 275.335 152.119 275.034C152.65 274.718 153.024 274.273 153.239 273.698V272.363H150.461C148.91 272.363 148.135 272.873 148.135 273.892C148.135 274.38 148.328 274.768 148.716 275.055C149.104 275.342 149.642 275.486 150.331 275.486ZM176.602 261.314V277.295H174.018V275.809C173.573 276.354 173.02 276.764 172.359 277.036C171.713 277.309 170.995 277.446 170.206 277.446C169.1 277.446 168.102 277.202 167.212 276.713C166.336 276.225 165.647 275.536 165.144 274.646C164.642 273.741 164.391 272.708 164.391 271.545C164.391 270.382 164.642 269.355 165.144 268.465C165.647 267.574 166.336 266.885 167.212 266.397C168.102 265.909 169.1 265.665 170.206 265.665C170.967 265.665 171.663 265.794 172.295 266.053C172.926 266.311 173.465 266.699 173.91 267.216V261.314H176.602ZM170.529 275.141C171.175 275.141 171.756 274.998 172.273 274.71C172.79 274.409 173.199 273.985 173.501 273.44C173.802 272.894 173.953 272.262 173.953 271.545C173.953 270.827 173.802 270.195 173.501 269.649C173.199 269.104 172.79 268.687 172.273 268.4C171.756 268.099 171.175 267.948 170.529 267.948C169.883 267.948 169.301 268.099 168.784 268.4C168.267 268.687 167.858 269.104 167.557 269.649C167.255 270.195 167.104 270.827 167.104 271.545C167.104 272.262 167.255 272.894 167.557 273.44C167.858 273.985 168.267 274.409 168.784 274.71C169.301 274.998 169.883 275.141 170.529 275.141ZM185.293 277.446C184.13 277.446 183.082 277.194 182.148 276.692C181.215 276.189 180.483 275.493 179.952 274.603C179.435 273.698 179.176 272.679 179.176 271.545C179.176 270.41 179.435 269.398 179.952 268.508C180.483 267.618 181.215 266.921 182.148 266.419C183.082 265.916 184.13 265.665 185.293 265.665C186.47 265.665 187.526 265.916 188.459 266.419C189.392 266.921 190.117 267.618 190.634 268.508C191.165 269.398 191.431 270.41 191.431 271.545C191.431 272.679 191.165 273.698 190.634 274.603C190.117 275.493 189.392 276.189 188.459 276.692C187.526 277.194 186.47 277.446 185.293 277.446ZM185.293 275.141C186.284 275.141 187.102 274.811 187.748 274.151C188.394 273.49 188.717 272.621 188.717 271.545C188.717 270.468 188.394 269.599 187.748 268.939C187.102 268.278 186.284 267.948 185.293 267.948C184.302 267.948 183.484 268.278 182.838 268.939C182.206 269.599 181.89 270.468 181.89 271.545C181.89 272.621 182.206 273.49 182.838 274.151C183.484 274.811 184.302 275.141 185.293 275.141ZM206.332 265.665C207.452 265.665 208.45 265.909 209.326 266.397C210.216 266.885 210.913 267.574 211.415 268.465C211.918 269.355 212.169 270.382 212.169 271.545C212.169 272.708 211.918 273.741 211.415 274.646C210.913 275.536 210.216 276.225 209.326 276.713C208.45 277.202 207.452 277.446 206.332 277.446C204.782 277.446 203.554 276.929 202.65 275.895V281.473H199.957V265.794H202.52V267.302C202.966 266.756 203.511 266.347 204.157 266.074C204.818 265.801 205.543 265.665 206.332 265.665ZM206.031 275.141C207.022 275.141 207.833 274.811 208.465 274.151C209.111 273.49 209.434 272.621 209.434 271.545C209.434 270.468 209.111 269.599 208.465 268.939C207.833 268.278 207.022 267.948 206.031 267.948C205.385 267.948 204.803 268.099 204.286 268.4C203.77 268.687 203.36 269.104 203.059 269.649C202.757 270.195 202.607 270.827 202.607 271.545C202.607 272.262 202.757 272.894 203.059 273.44C203.36 273.985 203.77 274.409 204.286 274.71C204.803 274.998 205.385 275.141 206.031 275.141ZM217.285 267.474C218.06 266.268 219.424 265.665 221.377 265.665V268.228C221.147 268.185 220.939 268.163 220.753 268.163C219.704 268.163 218.886 268.472 218.297 269.089C217.709 269.692 217.414 270.568 217.414 271.717V277.295H214.722V265.794H217.285V267.474ZM228.725 277.446C227.562 277.446 226.514 277.194 225.58 276.692C224.647 276.189 223.915 275.493 223.383 274.603C222.867 273.698 222.608 272.679 222.608 271.545C222.608 270.41 222.867 269.398 223.383 268.508C223.915 267.618 224.647 266.921 225.58 266.419C226.514 265.916 227.562 265.665 228.725 265.665C229.902 265.665 230.957 265.916 231.891 266.419C232.824 266.921 233.549 267.618 234.066 268.508C234.597 269.398 234.863 270.41 234.863 271.545C234.863 272.679 234.597 273.698 234.066 274.603C233.549 275.493 232.824 276.189 231.891 276.692C230.957 277.194 229.902 277.446 228.725 277.446ZM228.725 275.141C229.715 275.141 230.534 274.811 231.18 274.151C231.826 273.49 232.149 272.621 232.149 271.545C232.149 270.468 231.826 269.599 231.18 268.939C230.534 268.278 229.715 267.948 228.725 267.948C227.734 267.948 226.916 268.278 226.269 268.939C225.638 269.599 225.322 270.468 225.322 271.545C225.322 272.621 225.638 273.49 226.269 274.151C226.916 274.811 227.734 275.141 228.725 275.141ZM248.701 261.314V277.295H246.117V275.809C245.672 276.354 245.119 276.764 244.458 277.036C243.812 277.309 243.094 277.446 242.305 277.446C241.199 277.446 240.201 277.202 239.311 276.713C238.435 276.225 237.746 275.536 237.243 274.646C236.741 273.741 236.49 272.708 236.49 271.545C236.49 270.382 236.741 269.355 237.243 268.465C237.746 267.574 238.435 266.885 239.311 266.397C240.201 265.909 241.199 265.665 242.305 265.665C243.066 265.665 243.762 265.794 244.394 266.053C245.025 266.311 245.564 266.699 246.009 267.216V261.314H248.701ZM242.628 275.141C243.274 275.141 243.855 274.998 244.372 274.71C244.889 274.409 245.298 273.985 245.6 273.44C245.901 272.894 246.052 272.262 246.052 271.545C246.052 270.827 245.901 270.195 245.6 269.649C245.298 269.104 244.889 268.687 244.372 268.4C243.855 268.099 243.274 267.948 242.628 267.948C241.981 267.948 241.4 268.099 240.883 268.4C240.366 268.687 239.957 269.104 239.655 269.649C239.354 270.195 239.203 270.827 239.203 271.545C239.203 272.262 239.354 272.894 239.655 273.44C239.957 273.985 240.366 274.409 240.883 274.71C241.4 274.998 241.981 275.141 242.628 275.141ZM263.358 265.794V277.295H260.795V275.83C260.364 276.347 259.826 276.749 259.179 277.036C258.533 277.309 257.837 277.446 257.09 277.446C255.554 277.446 254.341 277.022 253.451 276.175C252.575 275.314 252.137 274.043 252.137 272.363V265.794H254.829V271.997C254.829 273.031 255.059 273.806 255.518 274.323C255.992 274.825 256.66 275.077 257.521 275.077C258.483 275.077 259.244 274.782 259.804 274.194C260.378 273.591 260.665 272.729 260.665 271.609V265.794H263.358ZM273.796 276.67C273.48 276.929 273.092 277.123 272.633 277.252C272.188 277.381 271.714 277.446 271.211 277.446C269.948 277.446 268.972 277.115 268.282 276.455C267.593 275.795 267.249 274.833 267.249 273.569V268.034H265.353V265.88H267.249V263.253H269.941V265.88H273.021V268.034H269.941V273.504C269.941 274.064 270.077 274.495 270.35 274.797C270.623 275.084 271.018 275.227 271.534 275.227C272.137 275.227 272.64 275.069 273.042 274.754L273.796 276.67ZM280.801 277.446C279.638 277.446 278.59 277.194 277.656 276.692C276.723 276.189 275.991 275.493 275.46 274.603C274.943 273.698 274.684 272.679 274.684 271.545C274.684 270.41 274.943 269.398 275.46 268.508C275.991 267.618 276.723 266.921 277.656 266.419C278.59 265.916 279.638 265.665 280.801 265.665C281.978 265.665 283.033 265.916 283.967 266.419C284.9 266.921 285.625 267.618 286.142 268.508C286.673 269.398 286.939 270.41 286.939 271.545C286.939 272.679 286.673 273.698 286.142 274.603C285.625 275.493 284.9 276.189 283.967 276.692C283.033 277.194 281.978 277.446 280.801 277.446ZM280.801 275.141C281.792 275.141 282.61 274.811 283.256 274.151C283.902 273.49 284.225 272.621 284.225 271.545C284.225 270.468 283.902 269.599 283.256 268.939C282.61 268.278 281.792 267.948 280.801 267.948C279.81 267.948 278.992 268.278 278.346 268.939C277.714 269.599 277.398 270.468 277.398 271.545C277.398 272.621 277.714 273.49 278.346 274.151C278.992 274.811 279.81 275.141 280.801 275.141ZM290.164 277.446C289.676 277.446 289.26 277.281 288.915 276.95C288.571 276.606 288.398 276.175 288.398 275.658C288.398 275.127 288.563 274.696 288.894 274.366C289.238 274.036 289.662 273.871 290.164 273.871C290.667 273.871 291.083 274.036 291.414 274.366C291.758 274.696 291.93 275.127 291.93 275.658C291.93 276.175 291.758 276.606 291.414 276.95C291.069 277.281 290.653 277.446 290.164 277.446Z" fill="white"></path><path d="M41.5045 1.79468H2.14893V51.8836C2.14893 92.1932 73.943 102.688 80.383 54.7458C85.535 16.392 56.6107 3.46431 41.5045 1.79468Z" fill="white" stroke="#19B300" stroke-width="3.33926"></path><path fill-rule="evenodd" clip-rule="evenodd" d="M180.307 113.272C180.249 114.298 180.394 115.533 180.684 118.013L183.008 137.88C183.918 145.66 187.654 152.835 193.505 158.043C199.357 163.25 206.917 166.127 214.75 166.128H235.695C241.851 166.128 247.875 164.35 253.044 161.009C258.213 157.667 262.308 152.905 264.836 147.292H277.383C283.147 147.292 288.675 145.003 292.751 140.927C296.827 136.851 299.116 131.323 299.116 125.559C299.116 119.795 296.827 114.267 292.751 110.191C288.675 106.115 283.147 103.826 277.383 103.826H264.175C263.06 103.206 261.849 102.775 260.593 102.551C259.585 102.377 258.333 102.377 255.841 102.377H194.605C192.113 102.377 190.867 102.377 189.858 102.551C187.295 103.007 184.96 104.313 183.229 106.258C181.499 108.203 180.474 110.674 180.319 113.272H180.307ZM270.063 112.519C270.092 112.768 270.121 113.023 270.133 113.272C270.191 114.298 270.052 115.533 269.762 118.013L267.438 137.88L267.345 138.599H277.383C280.841 138.599 284.158 137.225 286.604 134.78C289.049 132.334 290.423 129.017 290.423 125.559C290.423 122.101 289.049 118.784 286.604 116.338C284.158 113.893 280.841 112.519 277.383 112.519H270.063ZM228.294 52.9404C229.108 53.7554 229.566 54.8602 229.566 56.0121C229.566 57.1639 229.108 58.2687 228.294 59.0837C227.574 59.8071 227.169 60.7866 227.169 61.8076C227.169 62.8287 227.574 63.8081 228.294 64.5316C230.646 66.8835 231.967 70.0731 231.967 73.3988C231.967 76.7245 230.646 79.9141 228.294 82.266C227.47 83.0338 226.381 83.4518 225.255 83.432C224.128 83.4121 223.054 82.9559 222.258 82.1595C221.461 81.3631 221.005 80.2887 220.985 79.1626C220.965 78.0365 221.383 76.9467 222.151 76.1227C223.658 74.6159 223.658 72.1817 222.151 70.6749C219.8 68.3229 218.479 65.1334 218.479 61.8076C218.479 58.4819 219.8 55.2923 222.151 52.9404C222.966 52.1264 224.071 51.6692 225.223 51.6692C226.375 51.6692 227.479 52.1264 228.294 52.9404ZM202.214 61.6338C203.028 62.4488 203.486 63.5536 203.486 64.7054C203.486 65.8573 203.028 66.9621 202.214 67.7771L201.542 68.4494C200.859 69.1314 200.446 70.0371 200.378 70.9997C200.31 71.9623 200.591 72.9171 201.171 73.6886C203.005 76.1343 203.895 79.1594 203.678 82.2085C203.461 85.2576 202.151 88.1261 199.989 90.2871L199.317 90.9594C198.493 91.7272 197.403 92.1452 196.277 92.1253C195.151 92.1055 194.076 91.6493 193.28 90.8529C192.483 90.0565 192.027 88.9821 192.007 87.856C191.987 86.7299 192.405 85.6401 193.173 84.8161L193.846 84.1438C194.528 83.4618 194.942 82.5561 195.01 81.5935C195.078 80.6309 194.796 79.676 194.216 78.9046C192.383 76.4589 191.493 73.4338 191.71 70.3847C191.927 67.3356 193.237 64.4671 195.399 62.3061L196.071 61.6338C196.886 60.8198 197.991 60.3626 199.143 60.3626C200.295 60.3626 201.399 60.8198 202.214 61.6338ZM257.272 61.6338C258.086 62.4488 258.544 63.5536 258.544 64.7054C258.544 65.8573 258.086 66.9621 257.272 67.7771L256.6 68.4494C255.917 69.1314 255.504 70.0371 255.436 70.9997C255.368 71.9623 255.649 72.9171 256.229 73.6886C258.063 76.1343 258.953 79.1594 258.736 82.2085C258.519 85.2576 257.209 88.1261 255.047 90.2871L254.375 90.9594C253.977 91.3865 253.497 91.729 252.964 91.9666C252.43 92.2042 251.855 92.3319 251.271 92.3422C250.688 92.3525 250.108 92.2451 249.567 92.0265C249.025 91.8079 248.534 91.4825 248.121 91.0698C247.708 90.657 247.383 90.1653 247.164 89.6241C246.946 89.0829 246.838 88.5031 246.848 87.9195C246.859 87.3359 246.987 86.7603 247.224 86.2271C247.462 85.6939 247.804 85.214 248.231 84.8161L248.904 84.1438C249.586 83.4618 250 82.5561 250.068 81.5935C250.136 80.6309 249.854 79.676 249.274 78.9046C247.441 76.4589 246.551 73.4338 246.768 70.3847C246.985 67.3356 248.295 64.4671 250.457 62.3061L251.129 61.6338C251.944 60.8198 253.049 60.3626 254.201 60.3626C255.353 60.3626 256.457 60.8198 257.272 61.6338Z" fill="white"></path><path d="M57.9056 57.134V65.4875H24.4283V58.8427L41.5151 42.7053C43.3292 40.9755 44.5527 39.4989 45.1855 38.2754C45.8184 37.0097 46.1348 35.7651 46.1348 34.5416C46.1348 32.7697 45.523 31.4196 44.2996 30.4914C43.1182 29.5211 41.3674 29.0359 39.047 29.0359C37.1063 29.0359 35.3554 29.4156 33.7944 30.175C32.2334 30.8922 30.9255 31.9892 29.8708 33.4658L22.4032 28.6562C24.133 26.0826 26.5167 24.0786 29.5544 22.6442C32.592 21.1676 36.0726 20.4293 39.9962 20.4293C43.287 20.4293 46.1559 20.9777 48.6029 22.0746C51.092 23.1294 53.0117 24.6482 54.3617 26.6311C55.754 28.5718 56.4501 30.8711 56.4501 33.5291C56.4501 35.9339 55.9438 38.191 54.9313 40.3005C53.9187 42.4099 51.9569 44.8147 49.0459 47.5149L38.8571 57.134H57.9056Z" fill="black"></path><defs><linearGradient id="paint0_linear_40_263" x1="112.751" y1="14.5824" x2="405.746" y2="360.747" gradientUnits="userSpaceOnUse"><stop stop-color="#05E401"></stop><stop offset="1" stop-color="#70FF00"></stop></linearGradient></defs></svg>