<svg xmlns="http://www.w3.org/2000/svg" width="464" height="361" viewBox="0 0 464 361" fill="none"><path d="M9.47668 35.8952C9.47668 16.0708 25.5475 0 45.3719 0H283.627C383.244 0 464 80.7559 464 180.373V324.852C464 344.676 447.929 360.747 428.105 360.747H189.85C90.2326 360.747 9.47668 279.991 9.47668 180.374V35.8952Z" fill="url(#paint0_linear_40_270)"></path><path d="M76.0828 204.293H71.0861V201.924H83.8792V204.293H78.8826V217H76.0828V204.293ZM89.7131 217.151C88.5501 217.151 87.5019 216.899 86.5687 216.397C85.6354 215.894 84.9031 215.198 84.3719 214.308C83.855 213.403 83.5965 212.384 83.5965 211.25C83.5965 210.115 83.855 209.103 84.3719 208.213C84.9031 207.323 85.6354 206.626 86.5687 206.124C87.5019 205.621 88.5501 205.37 89.7131 205.37C90.8904 205.37 91.9458 205.621 92.879 206.124C93.8123 206.626 94.5374 207.323 95.0543 208.213C95.5855 209.103 95.8512 210.115 95.8512 211.25C95.8512 212.384 95.5855 213.403 95.0543 214.308C94.5374 215.198 93.8123 215.894 92.879 216.397C91.9458 216.899 90.8904 217.151 89.7131 217.151ZM89.7131 214.846C90.7038 214.846 91.5222 214.516 92.1683 213.856C92.8144 213.195 93.1375 212.326 93.1375 211.25C93.1375 210.173 92.8144 209.304 92.1683 208.644C91.5222 207.983 90.7038 207.653 89.7131 207.653C88.7224 207.653 87.904 207.983 87.2578 208.644C86.6261 209.304 86.3102 210.173 86.3102 211.25C86.3102 212.326 86.6261 213.195 87.2578 213.856C87.904 214.516 88.7224 214.846 89.7131 214.846ZM112.942 205.37C114.392 205.37 115.54 205.794 116.387 206.641C117.235 207.473 117.658 208.73 117.658 210.41V217H114.966V210.754C114.966 209.749 114.743 208.995 114.298 208.493C113.853 207.976 113.214 207.717 112.382 207.717C111.477 207.717 110.752 208.019 110.206 208.622C109.661 209.211 109.388 210.058 109.388 211.163V217H106.696V210.754C106.696 209.749 106.473 208.995 106.028 208.493C105.583 207.976 104.944 207.717 104.111 207.717C103.192 207.717 102.46 208.012 101.915 208.601C101.383 209.189 101.118 210.044 101.118 211.163V217H98.4255V205.499H100.988V206.964C101.419 206.447 101.958 206.052 102.604 205.779C103.25 205.506 103.968 205.37 104.757 205.37C105.619 205.37 106.38 205.535 107.04 205.865C107.715 206.181 108.246 206.655 108.634 207.287C109.108 206.684 109.718 206.217 110.465 205.887C111.211 205.542 112.037 205.37 112.942 205.37ZM132.015 211.314C132.015 211.501 132.001 211.766 131.972 212.111H122.948C123.106 212.958 123.515 213.633 124.176 214.136C124.851 214.624 125.683 214.868 126.674 214.868C127.938 214.868 128.978 214.451 129.797 213.619L131.24 215.277C130.723 215.894 130.07 216.361 129.28 216.677C128.49 216.993 127.6 217.151 126.609 217.151C125.346 217.151 124.233 216.899 123.271 216.397C122.309 215.894 121.563 215.198 121.031 214.308C120.514 213.403 120.256 212.384 120.256 211.25C120.256 210.13 120.507 209.125 121.01 208.234C121.527 207.33 122.237 206.626 123.142 206.124C124.046 205.621 125.066 205.37 126.2 205.37C127.32 205.37 128.318 205.621 129.194 206.124C130.084 206.612 130.773 207.308 131.261 208.213C131.764 209.103 132.015 210.137 132.015 211.314ZM126.2 207.524C125.339 207.524 124.606 207.782 124.003 208.299C123.415 208.802 123.056 209.476 122.927 210.323H129.452C129.337 209.491 128.986 208.816 128.397 208.299C127.808 207.782 127.076 207.524 126.2 207.524ZM144.947 205.37C146.641 205.37 147.933 205.779 148.824 206.598C149.728 207.402 150.18 208.622 150.18 210.259V217H147.639V215.6C147.309 216.103 146.835 216.49 146.218 216.763C145.615 217.022 144.882 217.151 144.021 217.151C143.159 217.151 142.406 217.007 141.759 216.72C141.113 216.418 140.611 216.009 140.252 215.492C139.907 214.961 139.735 214.365 139.735 213.705C139.735 212.671 140.115 211.845 140.876 211.228C141.652 210.596 142.865 210.28 144.516 210.28H147.488V210.108C147.488 209.304 147.244 208.687 146.756 208.256C146.282 207.825 145.571 207.61 144.624 207.61C143.978 207.61 143.339 207.71 142.707 207.911C142.09 208.112 141.566 208.392 141.135 208.751L140.08 206.791C140.683 206.332 141.408 205.98 142.255 205.736C143.102 205.492 143.999 205.37 144.947 205.37ZM144.581 215.191C145.256 215.191 145.851 215.04 146.368 214.739C146.9 214.423 147.273 213.978 147.488 213.403V212.068H144.71C143.159 212.068 142.384 212.578 142.384 213.597C142.384 214.085 142.578 214.473 142.965 214.76C143.353 215.047 143.892 215.191 144.581 215.191ZM160.01 205.37C161.13 205.37 162.128 205.614 163.004 206.102C163.894 206.59 164.591 207.28 165.093 208.17C165.596 209.06 165.847 210.087 165.847 211.25C165.847 212.413 165.596 213.446 165.093 214.351C164.591 215.241 163.894 215.93 163.004 216.418C162.128 216.907 161.13 217.151 160.01 217.151C158.46 217.151 157.232 216.634 156.328 215.6V221.178H153.635V205.499H156.198V207.007C156.643 206.461 157.189 206.052 157.835 205.779C158.496 205.506 159.221 205.37 160.01 205.37ZM159.709 214.846C160.7 214.846 161.511 214.516 162.143 213.856C162.789 213.195 163.112 212.326 163.112 211.25C163.112 210.173 162.789 209.304 162.143 208.644C161.511 207.983 160.7 207.653 159.709 207.653C159.063 207.653 158.481 207.804 157.964 208.105C157.448 208.392 157.038 208.809 156.737 209.354C156.435 209.9 156.285 210.532 156.285 211.25C156.285 211.967 156.435 212.599 156.737 213.145C157.038 213.69 157.448 214.114 157.964 214.416C158.481 214.703 159.063 214.846 159.709 214.846ZM179.212 211.314C179.212 211.501 179.197 211.766 179.169 212.111H170.145C170.303 212.958 170.712 213.633 171.372 214.136C172.047 214.624 172.88 214.868 173.871 214.868C175.134 214.868 176.175 214.451 176.993 213.619L178.436 215.277C177.92 215.894 177.266 216.361 176.477 216.677C175.687 216.993 174.797 217.151 173.806 217.151C172.542 217.151 171.43 216.899 170.468 216.397C169.506 215.894 168.759 215.198 168.228 214.308C167.711 213.403 167.453 212.384 167.453 211.25C167.453 210.13 167.704 209.125 168.206 208.234C168.723 207.33 169.434 206.626 170.339 206.124C171.243 205.621 172.262 205.37 173.397 205.37C174.517 205.37 175.515 205.621 176.39 206.124C177.281 206.612 177.97 207.308 178.458 208.213C178.961 209.103 179.212 210.137 179.212 211.314ZM173.397 207.524C172.535 207.524 171.803 207.782 171.2 208.299C170.611 208.802 170.252 209.476 170.123 210.323H176.649C176.534 209.491 176.182 208.816 175.594 208.299C175.005 207.782 174.273 207.524 173.397 207.524ZM188.324 205.37C189.774 205.37 190.937 205.794 191.813 206.641C192.688 207.488 193.126 208.744 193.126 210.41V217H190.434V210.754C190.434 209.749 190.197 208.995 189.723 208.493C189.25 207.976 188.575 207.717 187.699 207.717C186.708 207.717 185.926 208.019 185.351 208.622C184.777 209.211 184.49 210.065 184.49 211.185V217H181.798V205.499H184.361V206.985C184.806 206.454 185.366 206.052 186.041 205.779C186.715 205.506 187.476 205.37 188.324 205.37ZM200.935 205.37C202.629 205.37 203.922 205.779 204.812 206.598C205.716 207.402 206.169 208.622 206.169 210.259V217H203.627V215.6C203.297 216.103 202.823 216.49 202.206 216.763C201.603 217.022 200.87 217.151 200.009 217.151C199.147 217.151 198.394 217.007 197.748 216.72C197.101 216.418 196.599 216.009 196.24 215.492C195.895 214.961 195.723 214.365 195.723 213.705C195.723 212.671 196.104 211.845 196.865 211.228C197.64 210.596 198.853 210.28 200.504 210.28H203.476V210.108C203.476 209.304 203.232 208.687 202.744 208.256C202.27 207.825 201.56 207.61 200.612 207.61C199.966 207.61 199.327 207.71 198.695 207.911C198.078 208.112 197.554 208.392 197.123 208.751L196.068 206.791C196.671 206.332 197.396 205.98 198.243 205.736C199.09 205.492 199.987 205.37 200.935 205.37ZM200.569 215.191C201.244 215.191 201.84 215.04 202.356 214.739C202.888 214.423 203.261 213.978 203.476 213.403V212.068H200.698C199.147 212.068 198.372 212.578 198.372 213.597C198.372 214.085 198.566 214.473 198.954 214.76C199.341 215.047 199.88 215.191 200.569 215.191ZM213.177 217.151C212.244 217.151 211.332 217.029 210.442 216.785C209.552 216.541 208.841 216.232 208.31 215.859L209.344 213.813C209.86 214.157 210.478 214.437 211.196 214.652C211.928 214.853 212.646 214.954 213.35 214.954C214.958 214.954 215.762 214.53 215.762 213.683C215.762 213.281 215.553 213.001 215.137 212.843C214.735 212.685 214.082 212.535 213.177 212.391C212.23 212.247 211.454 212.082 210.851 211.896C210.263 211.709 209.746 211.386 209.301 210.927C208.87 210.453 208.654 209.799 208.654 208.967C208.654 207.875 209.107 207.007 210.011 206.361C210.93 205.7 212.165 205.37 213.716 205.37C214.505 205.37 215.295 205.463 216.085 205.65C216.874 205.822 217.521 206.059 218.023 206.361L216.989 208.407C216.013 207.832 214.915 207.545 213.694 207.545C212.904 207.545 212.301 207.667 211.885 207.911C211.483 208.141 211.282 208.45 211.282 208.837C211.282 209.268 211.497 209.577 211.928 209.764C212.373 209.936 213.055 210.101 213.974 210.259C214.893 210.402 215.647 210.568 216.235 210.754C216.824 210.941 217.327 211.257 217.743 211.702C218.174 212.147 218.389 212.779 218.389 213.597C218.389 214.674 217.923 215.535 216.989 216.182C216.056 216.828 214.785 217.151 213.177 217.151ZM237.924 201.019V217H235.339V215.514C234.894 216.06 234.341 216.469 233.681 216.742C233.035 217.014 232.317 217.151 231.527 217.151C230.422 217.151 229.424 216.907 228.534 216.418C227.658 215.93 226.968 215.241 226.466 214.351C225.963 213.446 225.712 212.413 225.712 211.25C225.712 210.087 225.963 209.06 226.466 208.17C226.968 207.28 227.658 206.59 228.534 206.102C229.424 205.614 230.422 205.37 231.527 205.37C232.288 205.37 232.985 205.499 233.616 205.758C234.248 206.016 234.786 206.404 235.232 206.921V201.019H237.924ZM231.85 214.846C232.496 214.846 233.078 214.703 233.595 214.416C234.112 214.114 234.521 213.69 234.822 213.145C235.124 212.599 235.275 211.967 235.275 211.25C235.275 210.532 235.124 209.9 234.822 209.354C234.521 208.809 234.112 208.392 233.595 208.105C233.078 207.804 232.496 207.653 231.85 207.653C231.204 207.653 230.623 207.804 230.106 208.105C229.589 208.392 229.18 208.809 228.878 209.354C228.577 209.9 228.426 210.532 228.426 211.25C228.426 211.967 228.577 212.599 228.878 213.145C229.18 213.69 229.589 214.114 230.106 214.416C230.623 214.703 231.204 214.846 231.85 214.846ZM252.58 205.499V217H250.017V215.535C249.587 216.052 249.048 216.454 248.402 216.742C247.756 217.014 247.06 217.151 246.313 217.151C244.777 217.151 243.563 216.727 242.673 215.88C241.797 215.019 241.359 213.748 241.359 212.068V205.499H244.052V211.702C244.052 212.736 244.281 213.511 244.741 214.028C245.215 214.53 245.882 214.782 246.744 214.782C247.706 214.782 248.467 214.487 249.027 213.899C249.601 213.296 249.888 212.434 249.888 211.314V205.499H252.58ZM260.499 205.37C262.193 205.37 263.485 205.779 264.375 206.598C265.28 207.402 265.732 208.622 265.732 210.259V217H263.191V215.6C262.861 216.103 262.387 216.49 261.769 216.763C261.166 217.022 260.434 217.151 259.573 217.151C258.711 217.151 257.957 217.007 257.311 216.72C256.665 216.418 256.163 216.009 255.804 215.492C255.459 214.961 255.287 214.365 255.287 213.705C255.287 212.671 255.667 211.845 256.428 211.228C257.203 210.596 258.417 210.28 260.068 210.28H263.04V210.108C263.04 209.304 262.796 208.687 262.308 208.256C261.834 207.825 261.123 207.61 260.176 207.61C259.529 207.61 258.891 207.71 258.259 207.911C257.641 208.112 257.117 208.392 256.687 208.751L255.631 206.791C256.234 206.332 256.959 205.98 257.807 205.736C258.654 205.492 259.551 205.37 260.499 205.37ZM260.133 215.191C260.807 215.191 261.403 215.04 261.92 214.739C262.451 214.423 262.825 213.978 263.04 213.403V212.068H260.262C258.711 212.068 257.936 212.578 257.936 213.597C257.936 214.085 258.13 214.473 258.517 214.76C258.905 215.047 259.443 215.191 260.133 215.191ZM272.741 217.151C271.808 217.151 270.896 217.029 270.006 216.785C269.115 216.541 268.405 216.232 267.873 215.859L268.907 213.813C269.424 214.157 270.042 214.437 270.759 214.652C271.492 214.853 272.21 214.954 272.913 214.954C274.521 214.954 275.325 214.53 275.325 213.683C275.325 213.281 275.117 213.001 274.701 212.843C274.299 212.685 273.645 212.535 272.741 212.391C271.793 212.247 271.018 212.082 270.415 211.896C269.826 211.709 269.309 211.386 268.864 210.927C268.433 210.453 268.218 209.799 268.218 208.967C268.218 207.875 268.67 207.007 269.575 206.361C270.494 205.7 271.729 205.37 273.279 205.37C274.069 205.37 274.859 205.463 275.648 205.65C276.438 205.822 277.084 206.059 277.587 206.361L276.553 208.407C275.577 207.832 274.478 207.545 273.258 207.545C272.468 207.545 271.865 207.667 271.449 207.911C271.047 208.141 270.846 208.45 270.846 208.837C270.846 209.268 271.061 209.577 271.492 209.764C271.937 209.936 272.619 210.101 273.538 210.259C274.457 210.402 275.21 210.568 275.799 210.754C276.388 210.941 276.89 211.257 277.307 211.702C277.737 212.147 277.953 212.779 277.953 213.597C277.953 214.674 277.486 215.535 276.553 216.182C275.62 216.828 274.349 217.151 272.741 217.151ZM296.992 205.499L292.06 217H289.282L284.35 205.499H287.15L290.725 214.028L294.408 205.499H296.992ZM309.171 211.314C309.171 211.501 309.156 211.766 309.128 212.111H300.104C300.262 212.958 300.671 213.633 301.331 214.136C302.006 214.624 302.839 214.868 303.83 214.868C305.093 214.868 306.134 214.451 306.952 213.619L308.395 215.277C307.879 215.894 307.225 216.361 306.436 216.677C305.646 216.993 304.756 217.151 303.765 217.151C302.501 217.151 301.389 216.899 300.427 216.397C299.465 215.894 298.718 215.198 298.187 214.308C297.67 213.403 297.411 212.384 297.411 211.25C297.411 210.13 297.663 209.125 298.165 208.234C298.682 207.33 299.393 206.626 300.297 206.124C301.202 205.621 302.221 205.37 303.356 205.37C304.476 205.37 305.474 205.621 306.349 206.124C307.24 206.612 307.929 207.308 308.417 208.213C308.919 209.103 309.171 210.137 309.171 211.314ZM303.356 207.524C302.494 207.524 301.762 207.782 301.159 208.299C300.57 208.802 300.211 209.476 300.082 210.323H306.608C306.493 209.491 306.141 208.816 305.552 208.299C304.964 207.782 304.232 207.524 303.356 207.524ZM320.633 214.846V217H310.704V215.299L317.014 207.653H310.833V205.499H320.46V207.201L314.128 214.846H320.633ZM333.758 211.314C333.758 211.501 333.743 211.766 333.714 212.111H324.69C324.848 212.958 325.258 213.633 325.918 214.136C326.593 214.624 327.426 214.868 328.416 214.868C329.68 214.868 330.721 214.451 331.539 213.619L332.982 215.277C332.465 215.894 331.812 216.361 331.022 216.677C330.233 216.993 329.342 217.151 328.352 217.151C327.088 217.151 325.975 216.899 325.013 216.397C324.051 215.894 323.305 215.198 322.774 214.308C322.257 213.403 321.998 212.384 321.998 211.25C321.998 210.13 322.25 209.125 322.752 208.234C323.269 207.33 323.98 206.626 324.884 206.124C325.789 205.621 326.808 205.37 327.943 205.37C329.062 205.37 330.06 205.621 330.936 206.124C331.826 206.612 332.516 207.308 333.004 208.213C333.506 209.103 333.758 210.137 333.758 211.314ZM327.943 207.524C327.081 207.524 326.349 207.782 325.746 208.299C325.157 208.802 324.798 209.476 324.669 210.323H331.195C331.08 209.491 330.728 208.816 330.139 208.299C329.551 207.782 328.818 207.524 327.943 207.524ZM339.897 217.151C338.964 217.151 338.052 217.029 337.162 216.785C336.272 216.541 335.561 216.232 335.03 215.859L336.064 213.813C336.58 214.157 337.198 214.437 337.916 214.652C338.648 214.853 339.366 214.954 340.069 214.954C341.678 214.954 342.482 214.53 342.482 213.683C342.482 213.281 342.273 213.001 341.857 212.843C341.455 212.685 340.802 212.535 339.897 212.391C338.95 212.247 338.174 212.082 337.571 211.896C336.982 211.709 336.466 211.386 336.02 210.927C335.59 210.453 335.374 209.799 335.374 208.967C335.374 207.875 335.827 207.007 336.731 206.361C337.65 205.7 338.885 205.37 340.436 205.37C341.225 205.37 342.015 205.463 342.805 205.65C343.594 205.822 344.24 206.059 344.743 206.361L343.709 208.407C342.733 207.832 341.634 207.545 340.414 207.545C339.624 207.545 339.021 207.667 338.605 207.911C338.203 208.141 338.002 208.45 338.002 208.837C338.002 209.268 338.217 209.577 338.648 209.764C339.093 209.936 339.775 210.101 340.694 210.259C341.613 210.402 342.367 210.568 342.955 210.754C343.544 210.941 344.047 211.257 344.463 211.702C344.894 212.147 345.109 212.779 345.109 213.597C345.109 214.674 344.643 215.535 343.709 216.182C342.776 216.828 341.505 217.151 339.897 217.151ZM359.755 205.37C360.875 205.37 361.873 205.614 362.748 206.102C363.639 206.59 364.335 207.28 364.837 208.17C365.34 209.06 365.591 210.087 365.591 211.25C365.591 212.413 365.34 213.446 364.837 214.351C364.335 215.241 363.639 215.93 362.748 216.418C361.873 216.907 360.875 217.151 359.755 217.151C358.204 217.151 356.976 216.634 356.072 215.6V221.178H353.38V205.499H355.943V207.007C356.388 206.461 356.933 206.052 357.579 205.779C358.24 205.506 358.965 205.37 359.755 205.37ZM359.453 214.846C360.444 214.846 361.255 214.516 361.887 213.856C362.533 213.195 362.856 212.326 362.856 211.25C362.856 210.173 362.533 209.304 361.887 208.644C361.255 207.983 360.444 207.653 359.453 207.653C358.807 207.653 358.226 207.804 357.709 208.105C357.192 208.392 356.783 208.809 356.481 209.354C356.18 209.9 356.029 210.532 356.029 211.25C356.029 211.967 356.18 212.599 356.481 213.145C356.783 213.69 357.192 214.114 357.709 214.416C358.226 214.703 358.807 214.846 359.453 214.846ZM373.313 217.151C372.15 217.151 371.102 216.899 370.169 216.397C369.236 215.894 368.503 215.198 367.972 214.308C367.455 213.403 367.197 212.384 367.197 211.25C367.197 210.115 367.455 209.103 367.972 208.213C368.503 207.323 369.236 206.626 370.169 206.124C371.102 205.621 372.15 205.37 373.313 205.37C374.491 205.37 375.546 205.621 376.479 206.124C377.413 206.626 378.138 207.323 378.655 208.213C379.186 209.103 379.451 210.115 379.451 211.25C379.451 212.384 379.186 213.403 378.655 214.308C378.138 215.198 377.413 215.894 376.479 216.397C375.546 216.899 374.491 217.151 373.313 217.151ZM373.313 214.846C374.304 214.846 375.122 214.516 375.769 213.856C376.415 213.195 376.738 212.326 376.738 211.25C376.738 210.173 376.415 209.304 375.769 208.644C375.122 207.983 374.304 207.653 373.313 207.653C372.323 207.653 371.504 207.983 370.858 208.644C370.226 209.304 369.911 210.173 369.911 211.25C369.911 212.326 370.226 213.195 370.858 213.856C371.504 214.516 372.323 214.846 373.313 214.846ZM384.589 207.179C385.364 205.973 386.728 205.37 388.681 205.37V207.933C388.451 207.89 388.243 207.868 388.056 207.868C387.008 207.868 386.19 208.177 385.601 208.794C385.012 209.397 384.718 210.273 384.718 211.422V217H382.026V205.499H384.589V207.179ZM408.286 201.019V217H405.701V215.514C405.256 216.06 404.703 216.469 404.043 216.742C403.397 217.014 402.679 217.151 401.889 217.151C400.784 217.151 399.786 216.907 398.896 216.418C398.02 215.93 397.331 215.241 396.828 214.351C396.326 213.446 396.074 212.413 396.074 211.25C396.074 210.087 396.326 209.06 396.828 208.17C397.331 207.28 398.02 206.59 398.896 206.102C399.786 205.614 400.784 205.37 401.889 205.37C402.65 205.37 403.347 205.499 403.978 205.758C404.61 206.016 405.149 206.404 405.594 206.921V201.019H408.286ZM402.212 214.846C402.858 214.846 403.44 214.703 403.957 214.416C404.474 214.114 404.883 213.69 405.184 213.145C405.486 212.599 405.637 211.967 405.637 211.25C405.637 210.532 405.486 209.9 405.184 209.354C404.883 208.809 404.474 208.392 403.957 208.105C403.44 207.804 402.858 207.653 402.212 207.653C401.566 207.653 400.985 207.804 400.468 208.105C399.951 208.392 399.542 208.809 399.24 209.354C398.939 209.9 398.788 210.532 398.788 211.25C398.788 211.967 398.939 212.599 399.24 213.145C399.542 213.69 399.951 214.114 400.468 214.416C400.985 214.703 401.566 214.846 402.212 214.846ZM411.808 205.499H414.5V217H411.808V205.499ZM413.164 203.604C412.676 203.604 412.267 203.453 411.937 203.152C411.607 202.836 411.441 202.448 411.441 201.989C411.441 201.529 411.607 201.149 411.937 200.847C412.267 200.531 412.676 200.373 413.164 200.373C413.653 200.373 414.062 200.524 414.392 200.826C414.722 201.113 414.887 201.479 414.887 201.924C414.887 202.398 414.722 202.8 414.392 203.13C414.076 203.446 413.667 203.604 413.164 203.604ZM422.427 205.37C424.121 205.37 425.413 205.779 426.303 206.598C427.208 207.402 427.66 208.622 427.66 210.259V217H425.119V215.6C424.789 216.103 424.315 216.49 423.697 216.763C423.094 217.022 422.362 217.151 421.501 217.151C420.639 217.151 419.885 217.007 419.239 216.72C418.593 216.418 418.091 216.009 417.732 215.492C417.387 214.961 417.215 214.365 417.215 213.705C417.215 212.671 417.595 211.845 418.356 211.228C419.132 210.596 420.345 210.28 421.996 210.28H424.968V210.108C424.968 209.304 424.724 208.687 424.236 208.256C423.762 207.825 423.051 207.61 422.104 207.61C421.458 207.61 420.819 207.71 420.187 207.911C419.57 208.112 419.045 208.392 418.615 208.751L417.559 206.791C418.162 206.332 418.888 205.98 419.735 205.736C420.582 205.492 421.479 205.37 422.427 205.37ZM422.061 215.191C422.735 215.191 423.331 215.04 423.848 214.739C424.379 214.423 424.753 213.978 424.968 213.403V212.068H422.19C420.639 212.068 419.864 212.578 419.864 213.597C419.864 214.085 420.058 214.473 420.445 214.76C420.833 215.047 421.371 215.191 422.061 215.191ZM431.977 217.151C431.489 217.151 431.072 216.986 430.728 216.655C430.383 216.311 430.211 215.88 430.211 215.363C430.211 214.832 430.376 214.401 430.706 214.071C431.051 213.741 431.474 213.576 431.977 213.576C432.479 213.576 432.896 213.741 433.226 214.071C433.571 214.401 433.743 214.832 433.743 215.363C433.743 215.88 433.571 216.311 433.226 216.655C432.881 216.986 432.465 217.151 431.977 217.151ZM77.698 242.215C76.535 242.215 75.4079 242.05 74.3167 241.72C73.2399 241.39 72.3856 240.952 71.7538 240.406L72.723 238.231C73.3404 238.719 74.0942 239.121 74.9844 239.437C75.8889 239.739 76.7935 239.889 77.698 239.889C78.818 239.889 79.6507 239.71 80.1964 239.351C80.7563 238.992 81.0363 238.518 81.0363 237.929C81.0363 237.499 80.8784 237.147 80.5625 236.874C80.261 236.587 79.8733 236.364 79.3995 236.207C78.9257 236.049 78.2796 235.869 77.4611 235.668C76.3125 235.395 75.3792 235.122 74.6613 234.85C73.9578 234.577 73.3475 234.153 72.8307 233.579C72.3281 232.99 72.0769 232.201 72.0769 231.21C72.0769 230.377 72.2994 229.623 72.7445 228.948C73.204 228.259 73.886 227.714 74.7905 227.312C75.7095 226.91 76.8294 226.709 78.1503 226.709C79.0692 226.709 79.9738 226.824 80.864 227.053C81.7542 227.283 82.5224 227.613 83.1685 228.044L82.2855 230.219C81.625 229.832 80.9358 229.537 80.2179 229.336C79.5 229.135 78.8036 229.035 78.1288 229.035C77.0232 229.035 76.1976 229.221 75.652 229.595C75.1208 229.968 74.8551 230.463 74.8551 231.081C74.8551 231.511 75.0059 231.863 75.3074 232.136C75.6233 232.409 76.0182 232.624 76.492 232.782C76.9658 232.94 77.6119 233.12 78.4303 233.321C79.5502 233.579 80.4692 233.852 81.1871 234.139C81.905 234.412 82.5152 234.835 83.0177 235.41C83.5346 235.984 83.7931 236.759 83.7931 237.736C83.7931 238.568 83.5633 239.322 83.1039 239.997C82.6588 240.672 81.9768 241.21 81.0578 241.612C80.1389 242.014 79.019 242.215 77.698 242.215ZM90.7045 230.37C92.3987 230.37 93.6909 230.779 94.5811 231.598C95.4857 232.402 95.938 233.622 95.938 235.259V242H93.3966V240.6C93.0664 241.103 92.5925 241.49 91.9751 241.763C91.3721 242.022 90.6398 242.151 89.7784 242.151C88.9169 242.151 88.1631 242.007 87.517 241.72C86.8708 241.418 86.3683 241.009 86.0094 240.492C85.6648 239.961 85.4925 239.365 85.4925 238.705C85.4925 237.671 85.873 236.845 86.6339 236.228C87.4093 235.596 88.6225 235.28 90.2737 235.28H93.2458V235.108C93.2458 234.304 93.0018 233.687 92.5136 233.256C92.0398 232.825 91.329 232.61 90.3814 232.61C89.7353 232.61 89.0964 232.71 88.4646 232.911C87.8472 233.112 87.3231 233.392 86.8924 233.751L85.8371 231.791C86.4401 231.332 87.1652 230.98 88.0123 230.736C88.8594 230.492 89.7568 230.37 90.7045 230.37ZM90.3383 240.191C91.0132 240.191 91.609 240.04 92.1259 239.739C92.6572 239.423 93.0305 238.978 93.2458 238.403V237.068H90.4675C88.9169 237.068 88.1415 237.578 88.1415 238.597C88.1415 239.085 88.3354 239.473 88.723 239.76C89.1107 240.047 89.6491 240.191 90.3383 240.191ZM105.768 230.37C106.888 230.37 107.886 230.614 108.762 231.102C109.652 231.59 110.348 232.28 110.851 233.17C111.353 234.06 111.605 235.087 111.605 236.25C111.605 237.413 111.353 238.446 110.851 239.351C110.348 240.241 109.652 240.93 108.762 241.418C107.886 241.907 106.888 242.151 105.768 242.151C104.978 242.151 104.253 242.014 103.593 241.742C102.947 241.469 102.401 241.06 101.956 240.514V242H99.393V226.019H102.085V231.899C102.545 231.397 103.083 231.016 103.7 230.758C104.332 230.499 105.021 230.37 105.768 230.37ZM105.466 239.846C106.457 239.846 107.268 239.516 107.9 238.856C108.546 238.195 108.869 237.326 108.869 236.25C108.869 235.173 108.546 234.304 107.9 233.644C107.268 232.983 106.457 232.653 105.466 232.653C104.82 232.653 104.239 232.804 103.722 233.105C103.205 233.392 102.796 233.809 102.494 234.354C102.193 234.9 102.042 235.532 102.042 236.25C102.042 236.967 102.193 237.599 102.494 238.145C102.796 238.69 103.205 239.114 103.722 239.416C104.239 239.703 104.82 239.846 105.466 239.846ZM119.327 242.151C118.164 242.151 117.115 241.899 116.182 241.397C115.249 240.894 114.517 240.198 113.985 239.308C113.469 238.403 113.21 237.384 113.21 236.25C113.21 235.115 113.469 234.103 113.985 233.213C114.517 232.323 115.249 231.626 116.182 231.124C117.115 230.621 118.164 230.37 119.327 230.37C120.504 230.37 121.559 230.621 122.493 231.124C123.426 231.626 124.151 232.323 124.668 233.213C125.199 234.103 125.465 235.115 125.465 236.25C125.465 237.384 125.199 238.403 124.668 239.308C124.151 240.198 123.426 240.894 122.493 241.397C121.559 241.899 120.504 242.151 119.327 242.151ZM119.327 239.846C120.317 239.846 121.136 239.516 121.782 238.856C122.428 238.195 122.751 237.326 122.751 236.25C122.751 235.173 122.428 234.304 121.782 233.644C121.136 232.983 120.317 232.653 119.327 232.653C118.336 232.653 117.518 232.983 116.871 233.644C116.24 234.304 115.924 235.173 115.924 236.25C115.924 237.326 116.24 238.195 116.871 238.856C117.518 239.516 118.336 239.846 119.327 239.846ZM130.602 232.179C131.377 230.973 132.741 230.37 134.694 230.37V232.933C134.464 232.89 134.256 232.868 134.069 232.868C133.021 232.868 132.203 233.177 131.614 233.794C131.026 234.397 130.731 235.273 130.731 236.422V242H128.039V230.499H130.602V232.179ZM146.589 242.151C145.655 242.151 144.744 242.029 143.854 241.785C142.963 241.541 142.253 241.232 141.721 240.859L142.755 238.813C143.272 239.157 143.889 239.437 144.607 239.652C145.34 239.853 146.058 239.954 146.761 239.954C148.369 239.954 149.173 239.53 149.173 238.683C149.173 238.281 148.965 238.001 148.549 237.843C148.147 237.685 147.493 237.535 146.589 237.391C145.641 237.247 144.866 237.082 144.263 236.896C143.674 236.709 143.157 236.386 142.712 235.927C142.281 235.453 142.066 234.799 142.066 233.967C142.066 232.875 142.518 232.007 143.423 231.361C144.342 230.7 145.577 230.37 147.127 230.37C147.917 230.37 148.707 230.463 149.496 230.65C150.286 230.822 150.932 231.059 151.435 231.361L150.401 233.407C149.424 232.832 148.326 232.545 147.106 232.545C146.316 232.545 145.713 232.667 145.297 232.911C144.895 233.141 144.694 233.45 144.694 233.837C144.694 234.268 144.909 234.577 145.34 234.764C145.785 234.936 146.467 235.101 147.386 235.259C148.305 235.402 149.058 235.568 149.647 235.754C150.236 235.941 150.738 236.257 151.155 236.702C151.585 237.147 151.801 237.779 151.801 238.597C151.801 239.674 151.334 240.535 150.401 241.182C149.468 241.828 148.197 242.151 146.589 242.151ZM165.254 230.499V242H162.691V240.535C162.26 241.052 161.722 241.454 161.076 241.742C160.43 242.014 159.733 242.151 158.987 242.151C157.45 242.151 156.237 241.727 155.347 240.88C154.471 240.019 154.033 238.748 154.033 237.068V230.499H156.725V236.702C156.725 237.736 156.955 238.511 157.414 239.028C157.888 239.53 158.556 239.782 159.417 239.782C160.379 239.782 161.14 239.487 161.7 238.899C162.275 238.296 162.562 237.434 162.562 236.314V230.499H165.254ZM175.154 230.37C176.274 230.37 177.272 230.614 178.147 231.102C179.038 231.59 179.734 232.28 180.237 233.17C180.739 234.06 180.99 235.087 180.99 236.25C180.99 237.413 180.739 238.446 180.237 239.351C179.734 240.241 179.038 240.93 178.147 241.418C177.272 241.907 176.274 242.151 175.154 242.151C173.603 242.151 172.375 241.634 171.471 240.6V246.178H168.779V230.499H171.342V232.007C171.787 231.461 172.332 231.052 172.978 230.779C173.639 230.506 174.364 230.37 175.154 230.37ZM174.852 239.846C175.843 239.846 176.654 239.516 177.286 238.856C177.932 238.195 178.255 237.326 178.255 236.25C178.255 235.173 177.932 234.304 177.286 233.644C176.654 232.983 175.843 232.653 174.852 232.653C174.206 232.653 173.625 232.804 173.108 233.105C172.591 233.392 172.182 233.809 171.88 234.354C171.579 234.9 171.428 235.532 171.428 236.25C171.428 236.967 171.579 237.599 171.88 238.145C172.182 238.69 172.591 239.114 173.108 239.416C173.625 239.703 174.206 239.846 174.852 239.846ZM194.355 236.314C194.355 236.501 194.341 236.766 194.312 237.111H185.288C185.446 237.958 185.855 238.633 186.516 239.136C187.19 239.624 188.023 239.868 189.014 239.868C190.277 239.868 191.318 239.451 192.137 238.619L193.58 240.277C193.063 240.894 192.41 241.361 191.62 241.677C190.83 241.993 189.94 242.151 188.949 242.151C187.686 242.151 186.573 241.899 185.611 241.397C184.649 240.894 183.902 240.198 183.371 239.308C182.854 238.403 182.596 237.384 182.596 236.25C182.596 235.13 182.847 234.125 183.35 233.234C183.867 232.33 184.577 231.626 185.482 231.124C186.386 230.621 187.406 230.37 188.54 230.37C189.66 230.37 190.658 230.621 191.534 231.124C192.424 231.612 193.113 232.308 193.601 233.213C194.104 234.103 194.355 235.137 194.355 236.314ZM188.54 232.524C187.679 232.524 186.946 232.782 186.343 233.299C185.755 233.802 185.396 234.476 185.266 235.323H191.792C191.677 234.491 191.326 233.816 190.737 233.299C190.148 232.782 189.416 232.524 188.54 232.524ZM199.504 232.179C200.279 230.973 201.643 230.37 203.596 230.37V232.933C203.366 232.89 203.158 232.868 202.971 232.868C201.923 232.868 201.105 233.177 200.516 233.794C199.928 234.397 199.633 235.273 199.633 236.422V242H196.941V230.499H199.504V232.179ZM223.352 230.499V240.255C223.352 244.304 221.284 246.329 217.149 246.329C216.044 246.329 214.995 246.185 214.005 245.898C213.014 245.625 212.196 245.223 211.549 244.692L212.756 242.668C213.258 243.084 213.89 243.414 214.651 243.658C215.426 243.917 216.209 244.046 216.998 244.046C218.262 244.046 219.188 243.759 219.777 243.185C220.365 242.61 220.66 241.734 220.66 240.557V239.954C220.2 240.457 219.64 240.837 218.98 241.095C218.319 241.354 217.594 241.483 216.805 241.483C215.713 241.483 214.723 241.253 213.832 240.794C212.957 240.32 212.26 239.66 211.743 238.813C211.241 237.965 210.99 236.996 210.99 235.905C210.99 234.814 211.241 233.852 211.743 233.019C212.26 232.172 212.957 231.519 213.832 231.059C214.723 230.6 215.713 230.37 216.805 230.37C217.637 230.37 218.391 230.506 219.066 230.779C219.755 231.052 220.329 231.468 220.789 232.028V230.499H223.352ZM217.214 239.2C218.233 239.2 219.066 238.899 219.712 238.296C220.373 237.678 220.703 236.881 220.703 235.905C220.703 234.943 220.373 234.16 219.712 233.557C219.066 232.954 218.233 232.653 217.214 232.653C216.18 232.653 215.333 232.954 214.672 233.557C214.026 234.16 213.703 234.943 213.703 235.905C213.703 236.881 214.026 237.678 214.672 238.296C215.333 238.899 216.18 239.2 217.214 239.2ZM232.06 242.151C230.897 242.151 229.849 241.899 228.916 241.397C227.982 240.894 227.25 240.198 226.719 239.308C226.202 238.403 225.944 237.384 225.944 236.25C225.944 235.115 226.202 234.103 226.719 233.213C227.25 232.323 227.982 231.626 228.916 231.124C229.849 230.621 230.897 230.37 232.06 230.37C233.237 230.37 234.293 230.621 235.226 231.124C236.159 231.626 236.884 232.323 237.401 233.213C237.933 234.103 238.198 235.115 238.198 236.25C238.198 237.384 237.933 238.403 237.401 239.308C236.884 240.198 236.159 240.894 235.226 241.397C234.293 241.899 233.237 242.151 232.06 242.151ZM232.06 239.846C233.051 239.846 233.869 239.516 234.515 238.856C235.161 238.195 235.484 237.326 235.484 236.25C235.484 235.173 235.161 234.304 234.515 233.644C233.869 232.983 233.051 232.653 232.06 232.653C231.069 232.653 230.251 232.983 229.605 233.644C228.973 234.304 228.657 235.173 228.657 236.25C228.657 237.326 228.973 238.195 229.605 238.856C230.251 239.516 231.069 239.846 232.06 239.846ZM244.326 242.151C243.393 242.151 242.481 242.029 241.591 241.785C240.701 241.541 239.99 241.232 239.459 240.859L240.493 238.813C241.009 239.157 241.627 239.437 242.345 239.652C243.077 239.853 243.795 239.954 244.498 239.954C246.107 239.954 246.911 239.53 246.911 238.683C246.911 238.281 246.702 238.001 246.286 237.843C245.884 237.685 245.231 237.535 244.326 237.391C243.378 237.247 242.603 237.082 242 236.896C241.411 236.709 240.895 236.386 240.449 235.927C240.019 235.453 239.803 234.799 239.803 233.967C239.803 232.875 240.256 232.007 241.16 231.361C242.079 230.7 243.314 230.37 244.865 230.37C245.654 230.37 246.444 230.463 247.234 230.65C248.023 230.822 248.669 231.059 249.172 231.361L248.138 233.407C247.162 232.832 246.063 232.545 244.843 232.545C244.053 232.545 243.45 232.667 243.034 232.911C242.632 233.141 242.431 233.45 242.431 233.837C242.431 234.268 242.646 234.577 243.077 234.764C243.522 234.936 244.204 235.101 245.123 235.259C246.042 235.402 246.796 235.568 247.384 235.754C247.973 235.941 248.476 236.257 248.892 236.702C249.323 237.147 249.538 237.779 249.538 238.597C249.538 239.674 249.071 240.535 248.138 241.182C247.205 241.828 245.934 242.151 244.326 242.151ZM258.77 241.375C258.454 241.634 258.066 241.828 257.607 241.957C257.162 242.086 256.688 242.151 256.186 242.151C254.922 242.151 253.946 241.821 253.256 241.16C252.567 240.5 252.223 239.538 252.223 238.274V232.739H250.327V230.585H252.223V227.958H254.915V230.585H257.995V232.739H254.915V238.209C254.915 238.769 255.051 239.2 255.324 239.502C255.597 239.789 255.992 239.932 256.509 239.932C257.112 239.932 257.614 239.774 258.016 239.459L258.77 241.375ZM265.775 242.151C264.612 242.151 263.564 241.899 262.631 241.397C261.697 240.894 260.965 240.198 260.434 239.308C259.917 238.403 259.658 237.384 259.658 236.25C259.658 235.115 259.917 234.103 260.434 233.213C260.965 232.323 261.697 231.626 262.631 231.124C263.564 230.621 264.612 230.37 265.775 230.37C266.952 230.37 268.008 230.621 268.941 231.124C269.874 231.626 270.599 232.323 271.116 233.213C271.647 234.103 271.913 235.115 271.913 236.25C271.913 237.384 271.647 238.403 271.116 239.308C270.599 240.198 269.874 240.894 268.941 241.397C268.008 241.899 266.952 242.151 265.775 242.151ZM265.775 239.846C266.766 239.846 267.584 239.516 268.23 238.856C268.876 238.195 269.199 237.326 269.199 236.25C269.199 235.173 268.876 234.304 268.23 233.644C267.584 232.983 266.766 232.653 265.775 232.653C264.784 232.653 263.966 232.983 263.32 233.644C262.688 234.304 262.372 235.173 262.372 236.25C262.372 237.326 262.688 238.195 263.32 238.856C263.966 239.516 264.784 239.846 265.775 239.846ZM278.041 242.151C277.108 242.151 276.196 242.029 275.306 241.785C274.416 241.541 273.705 241.232 273.174 240.859L274.207 238.813C274.724 239.157 275.342 239.437 276.06 239.652C276.792 239.853 277.51 239.954 278.213 239.954C279.821 239.954 280.625 239.53 280.625 238.683C280.625 238.281 280.417 238.001 280.001 237.843C279.599 237.685 278.946 237.535 278.041 237.391C277.093 237.247 276.318 237.082 275.715 236.896C275.126 236.709 274.609 236.386 274.164 235.927C273.734 235.453 273.518 234.799 273.518 233.967C273.518 232.875 273.97 232.007 274.875 231.361C275.794 230.7 277.029 230.37 278.579 230.37C279.369 230.37 280.159 230.463 280.948 230.65C281.738 230.822 282.384 231.059 282.887 231.361L281.853 233.407C280.877 232.832 279.778 232.545 278.558 232.545C277.768 232.545 277.165 232.667 276.749 232.911C276.347 233.141 276.146 233.45 276.146 233.837C276.146 234.268 276.361 234.577 276.792 234.764C277.237 234.936 277.919 235.101 278.838 235.259C279.757 235.402 280.511 235.568 281.099 235.754C281.688 235.941 282.19 236.257 282.607 236.702C283.038 237.147 283.253 237.779 283.253 238.597C283.253 239.674 282.786 240.535 281.853 241.182C280.92 241.828 279.649 242.151 278.041 242.151ZM290.74 242.151C289.577 242.151 288.529 241.899 287.596 241.397C286.663 240.894 285.93 240.198 285.399 239.308C284.882 238.403 284.624 237.384 284.624 236.25C284.624 235.115 284.882 234.103 285.399 233.213C285.93 232.323 286.663 231.626 287.596 231.124C288.529 230.621 289.577 230.37 290.74 230.37C291.918 230.37 292.973 230.621 293.906 231.124C294.84 231.626 295.565 232.323 296.082 233.213C296.613 234.103 296.878 235.115 296.878 236.25C296.878 237.384 296.613 238.403 296.082 239.308C295.565 240.198 294.84 240.894 293.906 241.397C292.973 241.899 291.918 242.151 290.74 242.151ZM290.74 239.846C291.731 239.846 292.549 239.516 293.196 238.856C293.842 238.195 294.165 237.326 294.165 236.25C294.165 235.173 293.842 234.304 293.196 233.644C292.549 232.983 291.731 232.653 290.74 232.653C289.75 232.653 288.931 232.983 288.285 233.644C287.653 234.304 287.337 235.173 287.337 236.25C287.337 237.326 287.653 238.195 288.285 238.856C288.931 239.516 289.75 239.846 290.74 239.846ZM316.669 226.019V242H314.084V240.514C313.639 241.06 313.087 241.469 312.426 241.742C311.78 242.014 311.062 242.151 310.272 242.151C309.167 242.151 308.169 241.907 307.279 241.418C306.403 240.93 305.714 240.241 305.211 239.351C304.709 238.446 304.457 237.413 304.457 236.25C304.457 235.087 304.709 234.06 305.211 233.17C305.714 232.28 306.403 231.59 307.279 231.102C308.169 230.614 309.167 230.37 310.272 230.37C311.033 230.37 311.73 230.499 312.361 230.758C312.993 231.016 313.532 231.404 313.977 231.921V226.019H316.669ZM310.595 239.846C311.241 239.846 311.823 239.703 312.34 239.416C312.857 239.114 313.266 238.69 313.568 238.145C313.869 237.599 314.02 236.967 314.02 236.25C314.02 235.532 313.869 234.9 313.568 234.354C313.266 233.809 312.857 233.392 312.34 233.105C311.823 232.804 311.241 232.653 310.595 232.653C309.949 232.653 309.368 232.804 308.851 233.105C308.334 233.392 307.925 233.809 307.623 234.354C307.322 234.9 307.171 235.532 307.171 236.25C307.171 236.967 307.322 237.599 307.623 238.145C307.925 238.69 308.334 239.114 308.851 239.416C309.368 239.703 309.949 239.846 310.595 239.846ZM331.002 236.314C331.002 236.501 330.988 236.766 330.959 237.111H321.935C322.093 237.958 322.502 238.633 323.163 239.136C323.838 239.624 324.67 239.868 325.661 239.868C326.925 239.868 327.966 239.451 328.784 238.619L330.227 240.277C329.71 240.894 329.057 241.361 328.267 241.677C327.477 241.993 326.587 242.151 325.596 242.151C324.333 242.151 323.22 241.899 322.258 241.397C321.296 240.894 320.55 240.198 320.018 239.308C319.501 238.403 319.243 237.384 319.243 236.25C319.243 235.13 319.494 234.125 319.997 233.234C320.514 232.33 321.224 231.626 322.129 231.124C323.034 230.621 324.053 230.37 325.187 230.37C326.307 230.37 327.305 230.621 328.181 231.124C329.071 231.612 329.76 232.308 330.249 233.213C330.751 234.103 331.002 235.137 331.002 236.314ZM325.187 232.524C324.326 232.524 323.594 232.782 322.99 233.299C322.402 233.802 322.043 234.476 321.914 235.323H328.439C328.325 234.491 327.973 233.816 327.384 233.299C326.795 232.782 326.063 232.524 325.187 232.524ZM339.54 226.019H342.233V242H339.54V226.019ZM350.16 230.37C351.854 230.37 353.146 230.779 354.036 231.598C354.941 232.402 355.393 233.622 355.393 235.259V242H352.852V240.6C352.521 241.103 352.048 241.49 351.43 241.763C350.827 242.022 350.095 242.151 349.233 242.151C348.372 242.151 347.618 242.007 346.972 241.72C346.326 241.418 345.823 241.009 345.464 240.492C345.12 239.961 344.948 239.365 344.948 238.705C344.948 237.671 345.328 236.845 346.089 236.228C346.864 235.596 348.078 235.28 349.729 235.28H352.701V235.108C352.701 234.304 352.457 233.687 351.969 233.256C351.495 232.825 350.784 232.61 349.837 232.61C349.19 232.61 348.551 232.71 347.92 232.911C347.302 233.112 346.778 233.392 346.348 233.751L345.292 231.791C345.895 231.332 346.62 230.98 347.467 230.736C348.315 230.492 349.212 230.37 350.16 230.37ZM349.793 240.191C350.468 240.191 351.064 240.04 351.581 239.739C352.112 239.423 352.486 238.978 352.701 238.403V237.068H349.923C348.372 237.068 347.597 237.578 347.597 238.597C347.597 239.085 347.791 239.473 348.178 239.76C348.566 240.047 349.104 240.191 349.793 240.191ZM361.411 232.179C362.186 230.973 363.55 230.37 365.503 230.37V232.933C365.273 232.89 365.065 232.868 364.879 232.868C363.83 232.868 363.012 233.177 362.423 233.794C361.835 234.397 361.54 235.273 361.54 236.422V242H358.848V230.499H361.411V232.179ZM372.117 230.37C373.812 230.37 375.104 230.779 375.994 231.598C376.899 232.402 377.351 233.622 377.351 235.259V242H374.81V240.6C374.479 241.103 374.005 241.49 373.388 241.763C372.785 242.022 372.053 242.151 371.191 242.151C370.33 242.151 369.576 242.007 368.93 241.72C368.284 241.418 367.781 241.009 367.422 240.492C367.078 239.961 366.905 239.365 366.905 238.705C366.905 237.671 367.286 236.845 368.047 236.228C368.822 235.596 370.035 235.28 371.687 235.28H374.659V235.108C374.659 234.304 374.415 233.687 373.927 233.256C373.453 232.825 372.742 232.61 371.794 232.61C371.148 232.61 370.509 232.71 369.878 232.911C369.26 233.112 368.736 233.392 368.305 233.751L367.25 231.791C367.853 231.332 368.578 230.98 369.425 230.736C370.272 230.492 371.17 230.37 372.117 230.37ZM371.751 240.191C372.426 240.191 373.022 240.04 373.539 239.739C374.07 239.423 374.443 238.978 374.659 238.403V237.068H371.88C370.33 237.068 369.554 237.578 369.554 238.597C369.554 239.085 369.748 239.473 370.136 239.76C370.524 240.047 371.062 240.191 371.751 240.191ZM387.332 230.37C388.782 230.37 389.945 230.794 390.821 231.641C391.697 232.488 392.134 233.744 392.134 235.41V242H389.442V235.754C389.442 234.749 389.205 233.995 388.732 233.493C388.258 232.976 387.583 232.717 386.707 232.717C385.716 232.717 384.934 233.019 384.36 233.622C383.785 234.211 383.498 235.065 383.498 236.185V242H380.806V230.499H383.369V231.985C383.814 231.454 384.374 231.052 385.049 230.779C385.724 230.506 386.485 230.37 387.332 230.37ZM394.365 246.329C393.231 246.329 392.369 246.106 391.781 245.661L392.556 243.658C392.958 243.96 393.482 244.111 394.128 244.111C394.631 244.111 395.011 243.953 395.27 243.637C395.542 243.335 395.679 242.883 395.679 242.28V230.499H398.371V242.215C398.371 243.493 398.019 244.498 397.316 245.231C396.612 245.963 395.629 246.329 394.365 246.329ZM397.014 228.604C396.526 228.604 396.117 228.453 395.787 228.152C395.456 227.836 395.291 227.448 395.291 226.989C395.291 226.529 395.456 226.149 395.787 225.847C396.117 225.531 396.526 225.373 397.014 225.373C397.502 225.373 397.912 225.524 398.242 225.826C398.572 226.113 398.737 226.479 398.737 226.924C398.737 227.398 398.572 227.8 398.242 228.13C397.926 228.446 397.517 228.604 397.014 228.604ZM406.295 230.37C407.989 230.37 409.281 230.779 410.172 231.598C411.076 232.402 411.528 233.622 411.528 235.259V242H408.987V240.6C408.657 241.103 408.183 241.49 407.566 241.763C406.963 242.022 406.23 242.151 405.369 242.151C404.507 242.151 403.754 242.007 403.107 241.72C402.461 241.418 401.959 241.009 401.6 240.492C401.255 239.961 401.083 239.365 401.083 238.705C401.083 237.671 401.463 236.845 402.224 236.228C403 235.596 404.213 235.28 405.864 235.28H408.836V235.108C408.836 234.304 408.592 233.687 408.104 233.256C407.63 232.825 406.92 232.61 405.972 232.61C405.326 232.61 404.687 232.71 404.055 232.911C403.438 233.112 402.914 233.392 402.483 233.751L401.428 231.791C402.031 231.332 402.756 230.98 403.603 230.736C404.45 230.492 405.347 230.37 406.295 230.37ZM405.929 240.191C406.604 240.191 407.2 240.04 407.716 239.739C408.248 239.423 408.621 238.978 408.836 238.403V237.068H406.058C404.507 237.068 403.732 237.578 403.732 238.597C403.732 239.085 403.926 239.473 404.314 239.76C404.701 240.047 405.24 240.191 405.929 240.191ZM415.845 242.151C415.357 242.151 414.94 241.986 414.596 241.655C414.251 241.311 414.079 240.88 414.079 240.363C414.079 239.832 414.244 239.401 414.574 239.071C414.919 238.741 415.342 238.576 415.845 238.576C416.348 238.576 416.764 238.741 417.094 239.071C417.439 239.401 417.611 239.832 417.611 240.363C417.611 240.88 417.439 241.311 417.094 241.655C416.75 241.986 416.333 242.151 415.845 242.151ZM83.7069 259.16C84.5397 259.433 85.2001 259.893 85.6883 260.539C86.1765 261.171 86.4206 261.96 86.4206 262.908C86.4206 264.215 85.9181 265.227 84.913 265.945C83.9079 266.648 82.4434 267 80.5194 267H73.0245V251.924H80.0887C81.8691 251.924 83.2403 252.276 84.2023 252.979C85.1643 253.669 85.6453 254.623 85.6453 255.844C85.6453 256.59 85.473 257.251 85.1284 257.825C84.7838 258.4 84.3099 258.845 83.7069 259.16ZM75.8243 254.121V258.277H79.7872C80.7635 258.277 81.5101 258.105 82.027 257.761C82.5583 257.402 82.8239 256.885 82.8239 256.21C82.8239 255.521 82.5583 255.004 82.027 254.659C81.5101 254.3 80.7635 254.121 79.7872 254.121H75.8243ZM80.3471 264.803C82.5152 264.803 83.5992 264.078 83.5992 262.628C83.5992 261.178 82.5152 260.453 80.3471 260.453H75.8243V264.803H80.3471ZM99.9619 261.314C99.9619 261.501 99.9475 261.766 99.9188 262.111H90.8948C91.0527 262.958 91.4619 263.633 92.1224 264.136C92.7972 264.624 93.63 264.868 94.6207 264.868C95.8842 264.868 96.9252 264.451 97.7436 263.619L99.1866 265.277C98.6697 265.894 98.0164 266.361 97.2267 266.677C96.437 266.993 95.5468 267.151 94.5561 267.151C93.2926 267.151 92.1798 266.899 91.2178 266.397C90.2558 265.894 89.5092 265.198 88.978 264.308C88.4611 263.403 88.2026 262.384 88.2026 261.25C88.2026 260.13 88.4539 259.125 88.9564 258.234C89.4733 257.33 90.184 256.626 91.0886 256.124C91.9932 255.621 93.0126 255.37 94.1469 255.37C95.2668 255.37 96.2647 255.621 97.1405 256.124C98.0307 256.612 98.7199 257.308 99.2081 258.213C99.7106 259.103 99.9619 260.137 99.9619 261.314ZM94.1469 257.524C93.2854 257.524 92.5531 257.782 91.9501 258.299C91.3614 258.802 91.0024 259.476 90.8732 260.323H97.399C97.2841 259.491 96.9323 258.816 96.3437 258.299C95.755 257.782 95.0227 257.524 94.1469 257.524ZM117.064 255.37C118.514 255.37 119.663 255.794 120.51 256.641C121.357 257.473 121.781 258.73 121.781 260.41V267H119.088V260.754C119.088 259.749 118.866 258.995 118.421 258.493C117.976 257.976 117.337 257.717 116.504 257.717C115.599 257.717 114.874 258.019 114.329 258.622C113.783 259.211 113.51 260.058 113.51 261.163V267H110.818V260.754C110.818 259.749 110.596 258.995 110.15 258.493C109.705 257.976 109.066 257.717 108.234 257.717C107.315 257.717 106.582 258.012 106.037 258.601C105.506 259.189 105.24 260.044 105.24 261.163V267H102.548V255.499H105.111V256.964C105.542 256.447 106.08 256.052 106.726 255.779C107.372 255.506 108.09 255.37 108.88 255.37C109.741 255.37 110.502 255.535 111.163 255.865C111.838 256.181 112.369 256.655 112.756 257.287C113.23 256.684 113.84 256.217 114.587 255.887C115.334 255.542 116.159 255.37 117.064 255.37ZM138.086 266.375C137.77 266.634 137.383 266.828 136.923 266.957C136.478 267.086 136.004 267.151 135.502 267.151C134.238 267.151 133.262 266.821 132.573 266.16C131.884 265.5 131.539 264.538 131.539 263.274V257.739H129.644V255.585H131.539V252.958H134.231V255.585H137.311V257.739H134.231V263.209C134.231 263.769 134.368 264.2 134.64 264.502C134.913 264.789 135.308 264.932 135.825 264.932C136.428 264.932 136.93 264.774 137.333 264.459L138.086 266.375ZM142.864 257.179C143.639 255.973 145.003 255.37 146.956 255.37V257.933C146.726 257.89 146.518 257.868 146.331 257.868C145.283 257.868 144.465 258.177 143.876 258.794C143.287 259.397 142.993 260.273 142.993 261.422V267H140.301V255.499H142.864V257.179ZM153.57 255.37C155.264 255.37 156.557 255.779 157.447 256.598C158.351 257.402 158.804 258.622 158.804 260.259V267H156.262V265.6C155.932 266.103 155.458 266.49 154.841 266.763C154.238 267.022 153.506 267.151 152.644 267.151C151.783 267.151 151.029 267.007 150.383 266.72C149.737 266.418 149.234 266.009 148.875 265.492C148.53 264.961 148.358 264.365 148.358 263.705C148.358 262.671 148.739 261.845 149.5 261.228C150.275 260.596 151.488 260.28 153.139 260.28H156.112V260.108C156.112 259.304 155.867 258.687 155.379 258.256C154.905 257.825 154.195 257.61 153.247 257.61C152.601 257.61 151.962 257.71 151.33 257.911C150.713 258.112 150.189 258.392 149.758 258.751L148.703 256.791C149.306 256.332 150.031 255.98 150.878 255.736C151.725 255.492 152.623 255.37 153.57 255.37ZM153.204 265.191C153.879 265.191 154.475 265.04 154.992 264.739C155.523 264.423 155.896 263.978 156.112 263.403V262.068H153.333C151.783 262.068 151.007 262.578 151.007 263.597C151.007 264.085 151.201 264.473 151.589 264.76C151.976 265.047 152.515 265.191 153.204 265.191ZM168.784 255.37C170.235 255.37 171.398 255.794 172.273 256.641C173.149 257.488 173.587 258.744 173.587 260.41V267H170.895V260.754C170.895 259.749 170.658 258.995 170.184 258.493C169.711 257.976 169.036 257.717 168.16 257.717C167.169 257.717 166.387 258.019 165.812 258.622C165.238 259.211 164.951 260.065 164.951 261.185V267H162.259V255.499H164.822V256.985C165.267 256.454 165.827 256.052 166.502 255.779C167.176 255.506 167.937 255.37 168.784 255.37ZM188.35 255.499V271.178H185.658V265.6C184.753 266.634 183.526 267.151 181.975 267.151C180.855 267.151 179.85 266.907 178.96 266.418C178.084 265.93 177.395 265.241 176.892 264.351C176.404 263.461 176.16 262.427 176.16 261.25C176.16 260.087 176.411 259.06 176.914 258.17C177.416 257.28 178.105 256.59 178.981 256.102C179.857 255.614 180.855 255.37 181.975 255.37C182.765 255.37 183.483 255.506 184.129 255.779C184.789 256.052 185.342 256.461 185.787 257.007V255.499H188.35ZM182.276 264.846C183.267 264.846 184.086 264.516 184.732 263.856C185.378 263.195 185.701 262.326 185.701 261.25C185.701 260.173 185.378 259.304 184.732 258.644C184.086 257.983 183.267 257.653 182.276 257.653C181.286 257.653 180.467 257.983 179.821 258.644C179.189 259.304 178.874 260.173 178.874 261.25C178.874 262.326 179.189 263.195 179.821 263.856C180.467 264.516 181.286 264.846 182.276 264.846ZM203.007 255.499V267H200.444V265.535C200.013 266.052 199.475 266.454 198.829 266.742C198.183 267.014 197.486 267.151 196.74 267.151C195.203 267.151 193.99 266.727 193.1 265.88C192.224 265.019 191.786 263.748 191.786 262.068V255.499H194.478V261.702C194.478 262.736 194.708 263.511 195.167 264.028C195.641 264.53 196.309 264.782 197.17 264.782C198.132 264.782 198.893 264.487 199.453 263.899C200.028 263.296 200.315 262.434 200.315 261.314V255.499H203.007ZM206.532 255.499H209.224V267H206.532V255.499ZM207.889 253.604C207.4 253.604 206.991 253.453 206.661 253.152C206.331 252.836 206.166 252.448 206.166 251.989C206.166 251.529 206.331 251.149 206.661 250.847C206.991 250.531 207.4 250.373 207.889 250.373C208.377 250.373 208.786 250.524 209.116 250.826C209.447 251.113 209.612 251.479 209.612 251.924C209.612 252.398 209.447 252.8 209.116 253.13C208.8 253.446 208.391 253.604 207.889 253.604ZM212.757 251.019H215.45V267H212.757V251.019ZM224.152 267.151C222.989 267.151 221.941 266.899 221.007 266.397C220.074 265.894 219.342 265.198 218.811 264.308C218.294 263.403 218.035 262.384 218.035 261.25C218.035 260.115 218.294 259.103 218.811 258.213C219.342 257.323 220.074 256.626 221.007 256.124C221.941 255.621 222.989 255.37 224.152 255.37C225.329 255.37 226.385 255.621 227.318 256.124C228.251 256.626 228.976 257.323 229.493 258.213C230.024 259.103 230.29 260.115 230.29 261.25C230.29 262.384 230.024 263.403 229.493 264.308C228.976 265.198 228.251 265.894 227.318 266.397C226.385 266.899 225.329 267.151 224.152 267.151ZM224.152 264.846C225.143 264.846 225.961 264.516 226.607 263.856C227.253 263.195 227.576 262.326 227.576 261.25C227.576 260.173 227.253 259.304 226.607 258.644C225.961 257.983 225.143 257.653 224.152 257.653C223.161 257.653 222.343 257.983 221.697 258.644C221.065 259.304 220.749 260.173 220.749 261.25C220.749 262.326 221.065 263.195 221.697 263.856C222.343 264.516 223.161 264.846 224.152 264.846ZM250.08 251.019V267H247.496V265.514C247.051 266.06 246.498 266.469 245.838 266.742C245.191 267.014 244.474 267.151 243.684 267.151C242.578 267.151 241.58 266.907 240.69 266.418C239.814 265.93 239.125 265.241 238.623 264.351C238.12 263.446 237.869 262.413 237.869 261.25C237.869 260.087 238.12 259.06 238.623 258.17C239.125 257.28 239.814 256.59 240.69 256.102C241.58 255.614 242.578 255.37 243.684 255.37C244.445 255.37 245.141 255.499 245.773 255.758C246.405 256.016 246.943 256.404 247.388 256.921V251.019H250.08ZM244.007 264.846C244.653 264.846 245.235 264.703 245.751 264.416C246.268 264.114 246.678 263.69 246.979 263.145C247.281 262.599 247.431 261.967 247.431 261.25C247.431 260.532 247.281 259.9 246.979 259.354C246.678 258.809 246.268 258.392 245.751 258.105C245.235 257.804 244.653 257.653 244.007 257.653C243.361 257.653 242.779 257.804 242.262 258.105C241.746 258.392 241.336 258.809 241.035 259.354C240.733 259.9 240.583 260.532 240.583 261.25C240.583 261.967 240.733 262.599 241.035 263.145C241.336 263.69 241.746 264.114 242.262 264.416C242.779 264.703 243.361 264.846 244.007 264.846ZM264.414 261.314C264.414 261.501 264.4 261.766 264.371 262.111H255.347C255.505 262.958 255.914 263.633 256.574 264.136C257.249 264.624 258.082 264.868 259.073 264.868C260.336 264.868 261.377 264.451 262.196 263.619L263.639 265.277C263.122 265.894 262.468 266.361 261.679 266.677C260.889 266.993 259.999 267.151 259.008 267.151C257.745 267.151 256.632 266.899 255.67 266.397C254.708 265.894 253.961 265.198 253.43 264.308C252.913 263.403 252.655 262.384 252.655 261.25C252.655 260.13 252.906 259.125 253.408 258.234C253.925 257.33 254.636 256.626 255.541 256.124C256.445 255.621 257.465 255.37 258.599 255.37C259.719 255.37 260.717 255.621 261.593 256.124C262.483 256.612 263.172 257.308 263.66 258.213C264.163 259.103 264.414 260.137 264.414 261.314ZM258.599 257.524C257.737 257.524 257.005 257.782 256.402 258.299C255.813 258.802 255.454 259.476 255.325 260.323H261.851C261.736 259.491 261.384 258.816 260.796 258.299C260.207 257.782 259.475 257.524 258.599 257.524ZM279.865 266.375C279.55 266.634 279.162 266.828 278.702 266.957C278.257 267.086 277.784 267.151 277.281 267.151C276.017 267.151 275.041 266.821 274.352 266.16C273.663 265.5 273.318 264.538 273.318 263.274V257.739H271.423V255.585H273.318V252.958H276.01V255.585H279.09V257.739H276.01V263.209C276.01 263.769 276.147 264.2 276.419 264.502C276.692 264.789 277.087 264.932 277.604 264.932C278.207 264.932 278.71 264.774 279.112 264.459L279.865 266.375ZM286.87 267.151C285.707 267.151 284.659 266.899 283.726 266.397C282.793 265.894 282.06 265.198 281.529 264.308C281.012 263.403 280.754 262.384 280.754 261.25C280.754 260.115 281.012 259.103 281.529 258.213C282.06 257.323 282.793 256.626 283.726 256.124C284.659 255.621 285.707 255.37 286.87 255.37C288.048 255.37 289.103 255.621 290.036 256.124C290.97 256.626 291.695 257.323 292.212 258.213C292.743 259.103 293.008 260.115 293.008 261.25C293.008 262.384 292.743 263.403 292.212 264.308C291.695 265.198 290.97 265.894 290.036 266.397C289.103 266.899 288.048 267.151 286.87 267.151ZM286.87 264.846C287.861 264.846 288.68 264.516 289.326 263.856C289.972 263.195 290.295 262.326 290.295 261.25C290.295 260.173 289.972 259.304 289.326 258.644C288.68 257.983 287.861 257.653 286.87 257.653C285.88 257.653 285.061 257.983 284.415 258.644C283.783 259.304 283.468 260.173 283.468 261.25C283.468 262.326 283.783 263.195 284.415 263.856C285.061 264.516 285.88 264.846 286.87 264.846ZM310.099 255.37C311.549 255.37 312.698 255.794 313.545 256.641C314.392 257.473 314.815 258.73 314.815 260.41V267H312.123V260.754C312.123 259.749 311.901 258.995 311.456 258.493C311.011 257.976 310.372 257.717 309.539 257.717C308.634 257.717 307.909 258.019 307.364 258.622C306.818 259.211 306.545 260.058 306.545 261.163V267H303.853V260.754C303.853 259.749 303.631 258.995 303.185 258.493C302.74 257.976 302.101 257.717 301.269 257.717C300.35 257.717 299.617 258.012 299.072 258.601C298.541 259.189 298.275 260.044 298.275 261.163V267H295.583V255.499H298.146V256.964C298.576 256.447 299.115 256.052 299.761 255.779C300.407 255.506 301.125 255.37 301.915 255.37C302.776 255.37 303.537 255.535 304.198 255.865C304.873 256.181 305.404 256.655 305.791 257.287C306.265 256.684 306.875 256.217 307.622 255.887C308.369 255.542 309.194 255.37 310.099 255.37ZM322.649 255.37C324.344 255.37 325.636 255.779 326.526 256.598C327.431 257.402 327.883 258.622 327.883 260.259V267H325.341V265.6C325.011 266.103 324.537 266.49 323.92 266.763C323.317 267.022 322.585 267.151 321.723 267.151C320.862 267.151 320.108 267.007 319.462 266.72C318.816 266.418 318.313 266.009 317.954 265.492C317.61 264.961 317.437 264.365 317.437 263.705C317.437 262.671 317.818 261.845 318.579 261.228C319.354 260.596 320.567 260.28 322.219 260.28H325.191V260.108C325.191 259.304 324.947 258.687 324.458 258.256C323.985 257.825 323.274 257.61 322.326 257.61C321.68 257.61 321.041 257.71 320.409 257.911C319.792 258.112 319.268 258.392 318.837 258.751L317.782 256.791C318.385 256.332 319.11 255.98 319.957 255.736C320.804 255.492 321.702 255.37 322.649 255.37ZM322.283 265.191C322.958 265.191 323.554 265.04 324.071 264.739C324.602 264.423 324.975 263.978 325.191 263.403V262.068H322.412C320.862 262.068 320.086 262.578 320.086 263.597C320.086 264.085 320.28 264.473 320.668 264.76C321.056 265.047 321.594 265.191 322.283 265.191ZM333.901 257.179C334.676 255.973 336.04 255.37 337.993 255.37V257.933C337.763 257.89 337.555 257.868 337.368 257.868C336.32 257.868 335.502 258.177 334.913 258.794C334.324 259.397 334.03 260.273 334.03 261.422V267H331.338V255.499H333.901V257.179ZM341.033 267.151C340.545 267.151 340.128 266.986 339.784 266.655C339.439 266.311 339.267 265.88 339.267 265.363C339.267 264.832 339.432 264.401 339.762 264.071C340.107 263.741 340.53 263.576 341.033 263.576C341.535 263.576 341.952 263.741 342.282 264.071C342.627 264.401 342.799 264.832 342.799 265.363C342.799 265.88 342.627 266.311 342.282 266.655C341.937 266.986 341.521 267.151 341.033 267.151Z" fill="black"></path><path d="M41.6532 1.79468H2.29761V51.8836C2.29761 92.1932 74.0917 102.688 80.5317 54.7458C85.6837 16.392 56.7594 3.46431 41.6532 1.79468Z" fill="white" stroke="#19B300" stroke-width="3.33926"></path><path d="M45.6506 39.2246C49.5321 39.8575 52.5064 41.313 54.5737 43.5912C56.641 45.8273 57.6746 48.6118 57.6746 51.9447C57.6746 54.5183 56.9996 56.902 55.6495 59.0959C54.2995 61.2475 52.2322 62.9773 49.4477 64.2852C46.7054 65.593 43.3302 66.247 39.3222 66.247C36.2002 66.247 33.1204 65.8462 30.0827 65.0446C27.0873 64.2008 24.5348 63.0195 22.4254 61.5007L26.4123 53.6534C28.0998 54.9191 30.0406 55.9106 32.2344 56.6278C34.4704 57.3028 36.7487 57.6403 39.0691 57.6403C41.6426 57.6403 43.6677 57.1551 45.1444 56.1848C46.621 55.1722 47.3593 53.7589 47.3593 51.9447C47.3593 48.3165 44.5959 46.5023 39.0691 46.5023H34.3861V39.7309L43.499 29.4156H24.6403V21.1887H55.6495V27.8335L45.6506 39.2246Z" fill="black"></path><g clip-path="url(#clip0_40_270)"><path d="M236.738 51.1755C226.05 51.1755 215.601 54.3451 206.714 60.2833C197.827 66.2215 190.9 74.6618 186.81 84.5367C182.719 94.4116 181.649 105.278 183.734 115.761C185.82 126.244 190.967 135.873 198.525 143.431C206.083 150.989 215.712 156.136 226.195 158.222C236.678 160.307 247.544 159.237 257.419 155.146C267.294 151.056 275.735 144.129 281.673 135.242C287.611 126.355 290.781 115.906 290.781 105.218C290.781 90.8849 285.087 77.139 274.952 67.0041C264.817 56.8693 251.071 51.1755 236.738 51.1755ZM257.68 122.714C257.434 123.085 257.118 123.404 256.749 123.653C256.38 123.902 255.965 124.075 255.529 124.163C255.093 124.251 254.643 124.251 254.207 124.165C253.77 124.079 253.355 123.907 252.985 123.66L233.057 110.149V80.7299C233.057 79.8341 233.413 78.975 234.046 78.3415C234.679 77.7081 235.539 77.3523 236.434 77.3523C237.33 77.3523 238.189 77.7081 238.823 78.3415C239.456 78.975 239.812 79.8341 239.812 80.7299V106.569L256.7 118.019C257.074 118.262 257.396 118.576 257.648 118.944C257.9 119.312 258.077 119.726 258.168 120.162C258.259 120.599 258.263 121.049 258.179 121.487C258.095 121.925 257.925 122.342 257.68 122.714ZM256.498 72.2182C251.745 69.3537 246.429 67.5512 240.915 66.9343C235.4 66.3174 229.817 66.9008 224.549 68.6444C219.281 70.3881 214.453 73.2507 210.395 77.0358C206.338 80.821 203.147 85.4391 201.042 90.5734C198.937 95.7076 197.968 101.237 198.2 106.781C198.433 112.325 199.862 117.753 202.39 122.693C204.918 127.633 208.485 131.967 212.845 135.399C217.206 138.831 222.257 141.278 227.652 142.574L226.605 147.877C220.417 146.437 214.616 143.671 209.601 139.77C204.586 135.87 200.477 130.927 197.558 125.284C194.639 119.64 192.98 113.431 192.694 107.084C192.409 100.737 193.504 94.4035 195.905 88.521C198.305 82.6385 201.954 77.347 206.598 73.0119C211.243 68.6767 216.773 65.4011 222.807 63.4111C228.841 61.4212 235.234 60.7644 241.547 61.486C247.859 62.2077 253.94 64.2905 259.369 67.5909L256.498 72.2182Z" fill="black"></path></g><defs><linearGradient id="paint0_linear_40_270" x1="112.9" y1="14.5824" x2="405.895" y2="360.747" gradientUnits="userSpaceOnUse"><stop stop-color="#05E401"></stop><stop offset="1" stop-color="#70FF00"></stop></linearGradient><clipPath id="clip0_40_270"><rect width="121.595" height="121.595" fill="white" transform="translate(175.941 44.4204)"></rect></clipPath></defs></svg>