<svg xmlns="http://www.w3.org/2000/svg" width="133" height="94" viewBox="0 0 133 94" fill="none"><g clip-path="url(#clip0_3_42)"><path d="M14.0107 9.26839H0V69.9362H44.3649V58.4971H14.0107V9.26839ZM48.346 69.9362H61.8343V23.3106H48.346V69.9362ZM129.325 58.1503C127.825 59.3078 126.01 59.8842 123.876 59.8842C122.029 59.8842 120.602 59.3528 119.597 58.281C118.589 57.2136 118.084 55.6959 118.084 53.7323V34.7542H129.672V24.3554H118.084V13.0019H104.596V24.3554H86.2302V22.3603C86.2302 17.8522 88.2749 15.6004 92.3686 15.6004C94.4448 15.6004 96.2597 16.1499 97.818 17.2488L101.362 7.45345C100.151 6.6428 98.6376 6.02131 96.8227 5.58896C95.0077 5.15662 93.0892 4.94044 91.0716 4.94044C85.3655 4.94044 80.9385 6.49869 77.7995 9.61967C74.656 12.7407 73.0887 16.956 73.0887 22.2748V24.3554H65.91V34.7542H73.0887V69.9408H86.577V34.7542H104.596V53.908C104.596 59.3978 106.109 63.5592 109.135 66.3874C112.162 69.2202 116.445 70.6343 121.975 70.6343C124.105 70.6343 126.141 70.3866 128.073 69.8957C130.005 69.4048 131.631 68.6707 132.959 67.6844L129.33 58.1503H129.325Z" fill="white"></path><path d="M79.2992 75.0163C79.2992 75.0163 62.3792 75.8405 62.3792 93.9089H117.553C117.553 93.9089 133 93.7107 133 75.0163H79.2992Z" fill="#24FF00"></path><path d="M82.2896 90.5086C81.3168 90.5086 80.4836 90.3465 79.7856 90.0223C79.0875 89.698 78.5156 89.2702 78.0742 88.7387C77.6329 88.2073 77.3041 87.6354 77.0969 87.0094C76.8898 86.3879 76.7862 85.7754 76.7862 85.1809V84.8701C76.7862 84.2261 76.8943 83.5911 77.1105 82.9651C77.3266 82.3346 77.6554 81.7672 78.0922 81.2583C78.5291 80.7494 79.0785 80.3395 79.7405 80.0333C80.4026 79.7271 81.1727 79.5739 82.0599 79.5739C83.0147 79.5739 83.8523 79.7496 84.5864 80.0963C85.3205 80.4431 85.906 80.9295 86.3473 81.551C86.7887 82.168 87.0499 82.8841 87.1264 83.6992H84.4963C84.4378 83.3885 84.3027 83.1047 84.0865 82.857C83.8703 82.6048 83.5911 82.4067 83.2443 82.2626C82.8976 82.1185 82.5058 82.0419 82.0644 82.0419C81.623 82.0419 81.2673 82.114 80.9385 82.2626C80.6097 82.4112 80.3395 82.6184 80.1188 82.8841C79.8982 83.1543 79.7315 83.474 79.6189 83.8388C79.5064 84.2081 79.4478 84.6089 79.4478 85.0413C79.4478 85.4736 79.5109 85.879 79.6325 86.2528C79.7541 86.6266 79.9342 86.9508 80.1684 87.23C80.4026 87.5093 80.6998 87.7254 81.0601 87.874C81.4204 88.0272 81.8302 88.0992 82.2896 88.0992C82.875 88.0992 83.3794 87.9776 83.8028 87.7299C84.2261 87.4867 84.5234 87.158 84.6945 86.7527L84.4963 88.3109V86.0591H86.9013V88.1848C86.4689 88.9324 85.8519 89.5043 85.0548 89.9052C84.2576 90.306 83.3344 90.5086 82.2896 90.5086ZM82.0059 86.568V84.726H87.7479V86.568H82.0059Z" fill="#0B0B0B"></path><path d="M93.8368 90.5086C92.8956 90.5086 92.0714 90.3465 91.3733 90.0223C90.6753 89.698 90.0943 89.2657 89.635 88.7342C89.1711 88.1983 88.8288 87.6218 88.6036 87.0003C88.3785 86.3788 88.2659 85.7709 88.2659 85.1854V84.8747C88.2659 84.2216 88.383 83.5821 88.6216 82.9561C88.8558 82.3256 89.2116 81.7582 89.6845 81.2493C90.1574 80.7404 90.7383 80.335 91.4319 80.0288C92.1254 79.727 92.9316 79.5739 93.8458 79.5739C94.76 79.5739 95.5527 79.727 96.2417 80.0288C96.9353 80.3305 97.5162 80.7359 97.9891 81.2493C98.462 81.7627 98.8178 82.3301 99.0565 82.9561C99.2952 83.5866 99.4168 84.2261 99.4168 84.8747V85.1854C99.4168 85.7709 99.2997 86.3743 99.07 87.0003C98.8403 87.6218 98.4935 88.2028 98.0296 88.7342C97.5658 89.2702 96.9893 89.698 96.2913 90.0223C95.5932 90.3465 94.7781 90.5086 93.8458 90.5086H93.8368ZM93.8368 88.0452C94.2872 88.0452 94.697 87.9686 95.0528 87.82C95.4131 87.6714 95.7193 87.4552 95.9715 87.1805C96.2237 86.9058 96.4174 86.586 96.5525 86.2257C96.6831 85.8609 96.7506 85.4691 96.7506 85.0413C96.7506 84.5864 96.6831 84.1766 96.5435 83.8073C96.4084 83.438 96.2102 83.1228 95.958 82.857C95.7013 82.5913 95.395 82.3887 95.0393 82.2491C94.679 82.1095 94.2782 82.0374 93.8368 82.0374C93.3955 82.0374 92.9766 82.1095 92.6208 82.2491C92.2606 82.3887 91.9543 82.5958 91.7021 82.857C91.4454 83.1228 91.2517 83.438 91.1211 83.8073C90.9905 84.1766 90.923 84.5864 90.923 85.0413C90.923 85.4646 90.9905 85.8609 91.1211 86.2257C91.2517 86.5905 91.4454 86.9103 91.7021 87.1805C91.9588 87.4507 92.2651 87.6669 92.6208 87.82C92.9811 87.9731 93.3864 88.0452 93.8368 88.0452Z" fill="#0B0B0B"></path><path d="M99.6644 82.177V79.8802H107.956V82.177H99.6644ZM102.493 90.2249V81.8933H105.123V90.2249H102.493Z" fill="#0B0B0B"></path><path d="M107.104 90.2249L110.415 79.8802H114.63L118.053 90.2249H115.337L112.675 81.7221L113.427 82.0059H111.558L112.324 81.7221L109.734 90.2249H107.104ZM109.807 87.829L110.599 85.6763H114.517L115.31 87.829H109.807Z" fill="#0B0B0B"></path><path d="M60.7399 8.05242L55.1014 7.62939e-06L49.4629 8.05242C47.1301 11.3851 48.4181 16.0553 52.1651 17.6496C53.0658 18.0324 54.0611 18.244 55.1014 18.244C56.1417 18.244 57.137 18.0324 58.0378 17.6496C61.7847 16.0598 63.0728 11.3896 60.7399 8.05242Z" fill="#36E000"></path></g><defs><clipPath id="clip0_3_42"><rect width="133" height="93.9088" fill="white"></rect></clipPath></defs></svg>